<?xml version="1.0" encoding="utf-8"?>
<!-- Generator: Adobe Illustrator 27.5.0, SVG Export Plug-In . SVG Version: 6.00 Build 0)  -->
<svg version="1.1" xmlns="http://www.w3.org/2000/svg" xmlns:xlink="http://www.w3.org/1999/xlink" x="0px" y="0px"
	 viewBox="0 0 500 500" style="enable-background:new 0 0 500 500;" xml:space="preserve">
<g id="BACKGROUND">
	<path style="fill:#FFFFFF;" d="M500,0v500H0V0H500z"/>
</g>
<g id="OBJECTS">
	
		<ellipse transform="matrix(0.7071 -0.7071 0.7071 0.7071 -61.6691 220.6523)" style="fill:#C1F5F5;" cx="235.516" cy="184.767" rx="134.767" ry="134.767"/>
	<path style="fill:#FFFFFF;" d="M168.549,104.066l2.201-0.844c0.465-0.178,0.465-1.062,0-1.241l-2.201-0.844
		c-4.209-1.614-7.499-6.028-8.701-11.675l-0.629-2.953c-0.133-0.624-0.792-0.624-0.924,0l-0.629,2.953
		c-1.202,5.647-4.492,10.062-8.701,11.675l-2.201,0.844c-0.465,0.178-0.465,1.062,0,1.241l2.201,0.844
		c4.209,1.613,7.499,6.028,8.701,11.675l0.629,2.954c0.133,0.624,0.792,0.624,0.924,0l0.629-2.954
		C161.051,110.094,164.341,105.679,168.549,104.066z"/>
	<path style="fill:#FFFFFF;" d="M127.021,175.588l1.328-0.509c0.28-0.107,0.28-0.641,0-0.748l-1.328-0.509
		c-2.539-0.973-4.523-3.636-5.249-7.043l-0.379-1.782c-0.08-0.376-0.478-0.376-0.558,0l-0.379,1.782
		c-0.725,3.406-2.71,6.069-5.249,7.043l-1.328,0.509c-0.28,0.108-0.28,0.641,0,0.748l1.328,0.509
		c2.539,0.973,4.523,3.636,5.249,7.043l0.379,1.782c0.08,0.376,0.478,0.376,0.558,0l0.379-1.782
		C122.497,179.224,124.482,176.562,127.021,175.588z"/>
	<path style="fill:#FFFFFF;" d="M332.328,161.535l1.92-0.736c0.406-0.156,0.406-0.927,0-1.082l-1.92-0.736
		c-3.672-1.408-6.542-5.258-7.591-10.185l-0.549-2.577c-0.116-0.544-0.691-0.544-0.807,0l-0.549,2.577
		c-1.049,4.926-3.919,8.777-7.591,10.185l-1.92,0.736c-0.406,0.156-0.406,0.927,0,1.082l1.92,0.736
		c3.672,1.408,6.542,5.258,7.591,10.185l0.549,2.577c0.116,0.544,0.691,0.544,0.807,0l0.549-2.577
		C325.787,166.794,328.657,162.943,332.328,161.535z"/>
	<path style="fill:#FFFFFF;" d="M339.449,119.895l1.101-0.422c0.232-0.089,0.232-0.531,0-0.62l-1.101-0.422
		c-2.104-0.807-3.749-3.014-4.35-5.838l-0.315-1.477c-0.066-0.312-0.396-0.312-0.462,0l-0.315,1.477
		c-0.601,2.824-2.246,5.031-4.35,5.838l-1.101,0.422c-0.233,0.089-0.233,0.531,0,0.62l1.1,0.422
		c2.104,0.807,3.749,3.014,4.351,5.838l0.314,1.477c0.066,0.312,0.396,0.312,0.462,0l0.314-1.477
		C335.7,122.909,337.345,120.701,339.449,119.895z"/>
	<path style="fill:#E6E6E6;" d="M243.057,421.996c67.347,0,121.943,6.269,121.943,14.002c0,7.733-54.595,14.002-121.943,14.002
		c-67.348,0-121.943-6.269-121.943-14.002C121.114,428.265,175.709,421.996,243.057,421.996z"/>
	<g>
		<g>
			<path style="fill:#F0D937;" d="M193.767,123.236c0.181-0.364,0.387-0.723,0.345-1.146c-0.359-1.192-2.019-0.728-2.774-0.172
				c-3.092,1.896-4.787,6.838-5.18,10.308c-0.269,2.721,0.171,5.466,0.83,8.103c0.237,1.22,0.685,2.372,1.356,3.42
				c-0.62,1.083-1.501,1.984-2.229,2.991c-2.154,2.859-4.102,5.976-4.991,9.479c-1.595,6.225-0.895,10.238,2.602,15.61
				c1.61,2.555,5.415,0.619,4.322-2.165c-1.26-4.288-2.317-8.74-2.001-13.242c0.14-1.503,0.291-3.013,0.764-4.455
				c0.603-1.58,1.312-3.127,2.217-4.559c0.419-0.591,0.888-1.14,1.428-1.625c1.075-0.796,1.842-1.596,1.906-3.006
				c0.093-2.085-0.515-4.141-0.589-6.223c-0.084-1.458-0.113-2.915-0.044-4.375c0.212-2.554,0.686-5.088,1.462-7.533
				C193.363,124.167,193.553,123.701,193.767,123.236z M203.241,101.199c1.573-1.887,0.424-4.417-0.258-6.436
				c-0.278-0.786-0.296-1.65-0.102-2.452c0.027-0.361-0.192-0.699-0.569-0.75c-0.517-0.07-0.96,0.33-1.305,0.665
				c-0.831,0.761-1.392,1.763-1.706,2.839c-0.333,1.245-0.551,2.572-0.383,3.861c0.08,0.566,0.282,1.1,0.447,1.643
				c-0.034,0.212-0.18,0.384-0.285,0.566c-0.54,0.771-1.185,1.457-1.77,2.193c-1.167,1.484-2.175,3.082-3.101,4.726
				c-0.658,1.125-1.135,2.351-1.394,3.628c-0.248,1.257-0.526,2.618,0.106,3.807c0.564,0.996,0.473,2.412,1.578,3.032
				c1.558,0.938,3.498-0.582,3.013-2.316c-0.27-0.649-0.012-1.275,0.083-1.926c0.057-0.552-0.034-1.078-0.13-1.618
				c-0.582-2.728-0.45-5.133,1.164-7.494c0.724-1.033,1.647-1.911,2.687-2.623C201.963,102.096,202.737,101.835,203.241,101.199z
				 M210.285,149.418c0.377-1.539-1.687-1.251-2.473-0.643c-3.865,2.648-5.042,7.924-4.585,12.359
				c0.115,2.657,1.541,5.021,2.777,7.306c1.54,2.534,5.365,0.264,3.903-2.281c-0.889-1.281-1.298-2.745-1.267-4.294
				c-0.397-2.479-0.707-4.999-0.103-7.473C208.867,152.652,209.465,150.985,210.285,149.418z M212.675,116.39
				c0.115-0.908-0.129-1.8-0.455-2.64c-0.661-1.975-1.394-3.935-1.89-5.961c-0.193-1.065-0.228-2.169-0.07-3.241
				c0.078-0.515,0.445-1.06,0.2-1.573c-0.769-0.895-1.795,0.445-2.184,1.118c-2.001,2.938-2.202,6.371-1.323,9.738
				c0.261,1.29,0.804,2.495,1.624,3.521c-2.557,3.656-4.544,7.946-3.653,12.507c0.277,1.264,0.504,2.677,1.471,3.619
				c0.371,0.345,0.801,0.608,1.13,0.998c0.676,0.731,1.883,0.764,2.652,0.171c0.822-0.632,1.014-1.817,0.462-2.687
				c-0.062-0.996-0.385-1.939-0.717-2.876c-0.335-1.079-0.719-2.158-0.832-3.29c-0.056-1.399,0.032-2.828,0.416-4.178
				c0.317-0.849,0.667-1.703,1.248-2.409C211.638,118.37,212.609,117.744,212.675,116.39z M220.993,100.124
				c2.15,1.484,4.346-0.884,3.258-3.085c-1.02-2.139-1.57-4.617-0.926-6.947c0.16-0.424,0.287-1.043-0.309-1.159
				c-0.46-0.088-0.899,0.34-1.209,0.623c-1.818,1.799-2.813,4.449-2.487,7.001C219.548,97.842,219.9,99.298,220.993,100.124z
				 M227.705,116.566c0.157-0.846-0.169-1.673-0.664-2.346c-0.249-0.543-0.442-1.114-0.643-1.674
				c-0.272-0.788-0.646-1.542-0.842-2.354c-0.186-1.036-0.316-2.089-0.251-3.143c-0.013-0.758,0.492-2.186-0.143-2.722
				c-0.566-0.453-1.38,0.007-1.869,0.356c-1.475,1.242-2.023,3.601-2.274,5.445c-0.228,2.537,0.576,5.184,2.206,7.142
				c-1.875,4.482-4.814,14.212,0.55,17.201c1.012,0.462,2.234-0.269,2.377-1.353c0.095-0.869-0.046-1.684-0.22-2.566
				c-0.561-2.724-2.57-5.194-2.074-8.08c0.262-1.131,0.698-1.988,1.321-3.015c0.274-0.38,0.544-0.817,1.019-0.954
				C227.006,118.172,227.58,117.427,227.705,116.566z M228.072,158.13c2.08,0.515,3.2-1.826,2.057-3.431
				c-0.031-2.905-1.814-5.627-0.909-8.569c0.229-0.711,0.514-1.506-0.566-1.501c-3.466,1.744-4.242,6.553-3.305,10.019
				C225.888,155.76,226.855,157.749,228.072,158.13z M245.472,115.732c1.481-2.084,0.682-4.984,0.053-7.263
				c-1.493-4.236-4.933-7.221-8.621-9.548c-0.216-3.197-0.688-9.055-5.283-8.079c-0.897,0.203-1.386,1.169-0.723,1.9
				c0.276,0.971,0.32,1.98,0.296,2.985c-0.379,3.024,0.441,5.768,3.638,6.694c1.244,0.141,2.438,0.502,3.234,1.534
				c1.38,1.929,2.327,4.438,2.29,6.824c-0.078,1.388-0.552,2.805-0.013,4.154c0.464,1.053,0.847,2.396,2.199,2.536
				C243.811,117.666,244.669,116.531,245.472,115.732z M258.49,154.164c0.296-0.814,0.549-1.652,0.431-2.532
				c-0.105-2.204-0.719-4.369-1.736-6.324c-1.234-2.441-3.544-3.763-5.84-5.044c0.534-0.866,0.717-1.891,1.035-2.847
				c0.361-1.238,0.616-2.509,0.663-3.801c0.056-2.962-0.84-6.022-2.573-8.435c-1.117-1.475-2.507-2.836-4.277-3.474
				c-1.297-0.479-3.223-0.681-4.073,0.65c-0.355,0.713,0.336,1.231,0.736,1.731c0.51,0.612,1.001,1.226,1.458,1.878
				c0.637,1.034,1.252,2.088,1.69,3.223c0.435,1.328,0.65,2.715,0.779,4.104c0.071,1.104,0.047,2.207-0.072,3.306
				c-0.195,1.879-0.748,4.244,0.979,5.585c0.972,0.697,2.001,1.361,2.65,2.397c1.593,2.343,2.23,5.115,2.58,7.888
				c0.065,0.685,0.389,1.329,0.732,1.911c0.174,0.465,0.14,0.983,0.159,1.472c0.143,3.063,4.489,3.056,4.629,0
				C258.45,155.291,258.413,154.723,258.49,154.164z M267.154,140.026c0.075-1.891-0.169-3.799-0.642-5.628
				c-1.187-5.111-4.617-9.032-8.64-12.211c-0.981-0.813-0.514-2.243-0.811-3.346c-0.297-1.759-0.749-3.506-1.521-5.12
				c-0.509-1.087-1.122-2.148-1.91-3.06c-0.451-0.529-2.525-3.02-2.926-1.458c0.002,0.316,0.278,0.445,0.41,0.692
				c0.478,0.653,0.671,1.441,0.71,2.238c0.164,2.284-0.095,4.555-0.241,6.834c-0.097,1.341-0.22,2.926,0.608,4.108
				c0.756,1.209,2.069,1.823,3.421,2.113c1.455,0.549,2.815,1.495,3.676,2.807c0.716,1.213,1.331,2.518,1.689,3.884
				c0.173,0.898,0.159,1.809,0.113,2.717c-0.096,1.208-0.228,2.412-0.292,3.622c-0.042,1.35-0.202,2.768,0.384,4.031
				c-0.096,1.325,0.942,2.532,2.241,2.707c1.413,0.206,2.709-0.84,2.957-2.228C266.881,141.911,267.153,140.987,267.154,140.026z
				 M286.148,190.665c0.989-1.635,0.582-3.646,0.509-5.458c-0.293-3.031-1.116-6.048-2.567-8.732
				c-1.306-2.284-2.998-4.345-4.957-6.098c-0.948-0.874-1.973-1.687-2.795-2.684c0.408-0.825,0.64-1.715,0.679-2.635
				c0.362-3.787,0.132-7.759-1.74-11.153c-1.205-2.245-3.321-4.113-5.88-4.554c-0.944-0.498-1.509,1.036-0.432,1.222
				c3.55,4.353,1.766,10.34,1.802,15.451c0.273,4.263,2.457,3.839,5.143,6.093c4.75,4.082,4.472,11.076,5.032,16.793
				c0.059,0.425,0.16,0.839,0.346,1.23c0.098,0.264,0.313,0.486,0.314,0.779c-0.033,0.878-0.088,1.726,0.618,2.384
				c1.197,1.268,3.515,0.497,3.694-1.243C285.98,191.594,285.976,191.107,286.148,190.665z M295.447,207.215
				c0.262,1.595-0.146,3.399,0.505,4.89c-1.131,2.685-2.089,5.43-2.938,8.21c-0.088-0.387-0.154-0.779-0.185-1.177
				c-0.013-1.297,0.233-2.586,0.076-3.885c-0.176-3.745-1.296-7.715-4.297-10.177c-0.566-0.487-2.131-1.739-2.827-1.047
				c-0.209,0.292,0.022,0.566,0.224,0.778c3.069,2.555,1.46,7.92,1.01,11.332c-0.235,1.428-0.156,2.921,0.563,4.207
				c1.252,2.359,2.543,4.726,3.034,7.38c0.048,0.255,0.111,0.507,0.179,0.757c-1.386,5.613-2.59,11.284-4.109,16.843
				c-2.844,9.572-6.427,19.041-11.515,27.659c-0.171-0.615-0.34-1.23-0.485-1.852c-0.276-1.348-0.269-2.73-0.183-4.097
				c0.173-1.95-0.061-3.905-0.34-5.834c-0.276-1.987-0.898-3.925-1.914-5.659c-0.568-0.943-1.146-1.936-2.013-2.638
				c-0.248-0.319-0.774-0.288-0.983,0.07c-0.146,0.248-0.077,0.576,0.127,0.757c0.159,0.413,0.264,0.841,0.369,1.27
				c0.434,1.999,0.037,4.039-0.337,6.015c-0.447,2.446-1.421,4.964-0.804,7.46c0.438,1.65,1.446,3.061,2.22,4.563
				c0.556,1.138,1.031,2.318,1.3,3.559c0.058,0.313,0.105,0.632,0.164,0.946c-4.598,6.791-10.833,12.723-14.193,20.209
				c-1.507-3.663-3.162-7.27-4.797-10.871c-3.109-6.93-6.616-13.748-10.689-20.344c-0.098-0.158-0.195-0.315-0.294-0.472
				c0.176-0.436,0.394-0.856,0.502-1.321c0.153-0.596,0.253-1.207,0.377-1.81l-0.021,0.099c0.347-1.829,0.755-3.641,1.312-5.42
				c0.397-1.134,0.521-2.407,0.066-3.544c-0.365-0.924-1.055-1.646-1.79-2.29c-0.436-0.535-0.784-1.127-1.107-1.734
				c-0.4-0.791-0.656-1.638-0.887-2.49c-0.171-0.482-0.233-1.051-0.594-1.434c-0.692-0.569-1.295,0.123-1.306,0.852
				c-0.229,2.158,0.223,4.302,0.584,6.417c-0.02,1.006,0.23,1.988,0.719,2.865c-0.588,1.375-1.132,2.802-1.504,4.266
				c-6.954-10.043-15.114-19.216-23.142-28.415c-0.877-2.103-1.203-4.403-2.135-6.504c-0.967-3.476-3.105-6.906-2.665-10.606
				c-0.005,0.013-0.008,0.025-0.013,0.038c0.174-0.511-0.063-1.093-0.625-1.247c-1.483-0.339-1.399,2.26-1.883,3.214
				c-0.682,1.971-0.917,4.047-0.75,6.094c-5.582-5.897-11.601-11.375-18.496-15.716c-1.481-0.957-3.001-1.853-4.56-2.677
				c0.945-0.093,1.775-0.932,1.758-1.927c-0.056-1.41-1.108-2.564-1.301-3.966c-0.821-3.159-1.145-6.467-0.72-9.712
				c0.252-1.988,0.716-3.969,1.593-5.779c0.195-0.384,0.393-0.857,0.61-1.289c0.29-0.217,0.467-0.58,0.414-0.967
				c-0.082-0.609-0.673-0.981-1.244-0.866c-6.176,0.948-8.17,9.068-7.334,14.386c0.373,2.241,2.105,6.958,4.192,9.096
				c-2.719-1.298-5.542-2.369-8.452-3.146c-0.718-4.072-0.828-8.229-0.641-12.354c0.219-2.863,0.631-5.851,2.285-8.274
				c1.859-2.086,2.21-4.805,1.236-7.388c-1.399-5.255-3.155-10.741-2.148-16.22c1.097-6.768,6.803-7.112,7.053-12.335
				c0.094-2.949-0.693-5.858-0.532-8.814c0.693-9.333,4.736-9.098,6.371-14.691c0.407-2.614-0.179-5.255-0.09-7.884
				c0.32-4.33,3.257-7.634,6.471-10.253c3.951-3.405,1.442-10.367,6.531-12.78c5.686-1.775,3.147,1.578,10.14-3.059
				c0.412-0.203,0.946-0.372,1.502-0.546c-0.139,0.472-0.181,0.934-0.094,1.355c0.225,0.493,0.813,0.237,1.199,0.105
				c1.001-0.326,1.97-0.727,2.903-1.213c0.457-0.207,0.921-0.436,1.425-0.494c0.608-0.012,1.24,0.011,1.813,0.233
				c1.018,0.622,2.25,0.831,3.384,0.401c1.394-0.475,2.844-0.759,4.307-0.904c2.953-0.282,2.495,1.696,4.392,3.044
				c0.918,0.707,2.08,0.674,3.179,0.703c0.69,0.052,1.378,0.145,2.036,0.368c2.41,0.779,3.806,2.762,5.331,4.631
				c1.384,1.523,2.572,3.256,2.927,5.321c0.15,0.755,0.309,1.505,0.625,2.213c0.519,1.272,2.313,1.374,3.016,0.291
				c1.157,0.87,2.411,1.648,3.424,2.687c2.573,2.389,4.744,5.326,6.037,8.601c0.891,2.642,0.535,5.616,1.654,8.174
				c0.892,1.525,2.303,2.619,3.822,3.467c1.302,0.939,2.288,2.23,3.205,3.531c1.844,2.69,3.177,5.705,3.828,8.906
				c0.468,2.613-0.566,5.604,1.29,7.843c2.076,2.019,5.092,1.842,6.705,4.805c2.003,3.186,3.314,6.758,4.086,10.432
				c0.623,2.851,0.53,5.802,1.384,8.605c1.955,5.545,6.153,5.658,6.318,12.717c-0.289,9.326-2.886,9.834,3.258,18.385
				C294.563,202.378,295.329,204.745,295.447,207.215z"/>
			<path style="fill:#6BA845;" d="M247.397,309.613c0.738-0.338,0.29-1.138,0.101-1.694c-0.835-2.756-1.64-5.619-2.443-8.399
				c-2.701-10.896-7.531-21.214-14.017-30.37c-2.624-3.538-5.266-7.063-7.984-10.53c-0.319-0.379-0.605-0.797-0.992-1.11
				c-0.274-0.199-0.558,0.253-0.269,0.4c0.147,0.153,0.266,0.327,0.391,0.499c5.33,8.338,8.567,17.779,12.773,26.693
				c2.068,4.636,4.547,9.07,6.888,13.57c1.656,3.469,3.226,6.989,4.632,10.568C246.607,309.597,247.058,309.756,247.397,309.613z
				 M304.167,266.699c0.384,24.041-6.942,40.872-27.287,54.38c-2.363,1.577-4.829,3.032-7.464,4.104
				c-0.938,0.178-1.897,0.838-1.601,1.919c0.348,1.252,1.691,1.079,2.652,0.744c0.311-0.05,0.623-0.099,0.934-0.148
				c-1.313,1.901-2.383,3.98-3.315,6.099c-4.629,8.792-9.116,10.971-18.814,11.744c-3.57,0.188-10.467,0.196-14.191-1.726
				c0.363-1.463,0.726-2.939,1.037-4.423c2.472-0.147,4.926-0.519,7.315-1.178c1.891-0.625,3.9-1.247,5.389-2.626
				c1.973-1.737,0.635-2.949-1.447-2.782c-3.455,0.066-6.915,0.177-10.372,0.11c0.038-0.898,0.032-1.798-0.027-2.699
				c-1.267-4.921-8.402,14.814-8.966,16.208c-2.62,7.122-5.492,14.164-7.724,21.419c-0.361,1.259-0.671,2.53-1.005,3.797
				c-1.128,0.498-2.231,1.063-3.402,1.457c-2.253,0.777-4.679,1.224-7.059,1.014c0.005-0.011,0.009-0.022,0.015-0.032
				c0.581-1.307,1.14-2.628,1.678-3.954c3.767-9.358,6.845-18.991,9.175-28.805c0.612-2.879,2.929-12.983,1.569-15.171
				c-0.534-0.579-1.628,1.136-2.869,3.738c-14.517-4.765-26.285-14.988-33.068-29.66c-3.904-7.955-6.379-16.559-7.703-25.313
				c1.145-0.672,2.028-1.204,2.523-1.499c1.117-0.657,2.251-1.288,3.354-1.968c0.314-0.106,0.528-0.435,0.405-0.793
				c-0.437-0.87-1.546-0.092-2.268-0.065c-6.587,1.115-13.211,2.456-19.231,5.469c-0.429,0.229-1.111,0.583-1.885,1.022
				c-0.267-1.342-0.72-2.656-1.245-3.913c-0.918-2.049-2.21-4.079-3.779-5.977c0.787-0.26,1.573-0.524,2.339-0.847
				c7.866-3.406,15.851-6.531,23.788-9.766c0.293-0.066,0.463-0.394,0.367-0.674c-0.089-0.264-0.342-0.37-0.595-0.343
				c-0.874-0.001-1.747,0.027-2.621,0.064c-1.009,0.048-2.016,0.124-3.019,0.227c-0.254-2.778-0.532-5.554-0.859-8.326
				c-0.367-3.093-1.177-12.999-3.846-18.577c0.694-1.645,1.715-3.168,3.014-4.366c1.913-1.635,4.067-2.444,6.47-3.13
				c0.924-0.089,1.853-0.115,2.786-0.058c5.959,0.406,11.522,2.278,16.469,5.724c1.832,1.224,3.543,2.605,5.261,3.981
				c1.01,1.101,1.985,2.243,2.981,3.354c8.788,10.048,17.724,20.021,25.343,31.008c6.398,9.304,11.338,19.482,16.093,29.694
				c4.79,10.371,10.603,21.439,8.832,33.213c-0.072,0.314-0.175,0.619-0.311,0.912c-0.245,0.302,0.001,0.803,0.372,0.803
				c0.015,0,0.03-0.001,0.045-0.003l-0.005,0.002c0.664-0.076,1.225-0.61,1.696-1.054c1.109-1.037,1.792-2.424,2.28-3.846
				c1.383-3.874,1.26-8.006,0.564-12.012c0.371-0.419,0.722-0.859,1.065-1.3c0.928-1.19,1.901-2.345,2.855-3.513
				c1.891-2.367,3.475-4.98,4.729-7.738c1.049-2.35,2.034-4.737,3.292-6.988c0.191-0.34,0.379-0.688,0.583-1.022
				c0.28-0.181,0.34-0.641,0.043-0.872c-0.302-0.233-0.725-0.055-0.831,0.262c-0.105,0.113-0.21,0.227-0.304,0.35
				c-2.832,3.935-7.003,6.654-9.816,10.612c-1.092,1.426-2.027,2.954-2.99,4.465c-0.137-0.464-0.279-0.926-0.424-1.386
				c0.346-1.278,0.805-2.529,1.348-3.735c1.233-2.125,2.792-4.043,4.275-5.998c4.695-5.82,9.559-11.536,13.545-17.881
				c5.553-8.973,9.497-18.868,12.473-28.968c2.255-7.848,3.275-15.984,5.41-23.862c1.124-4.119,2.483-8.185,4.191-12.1
				C300.412,229.999,304.211,254.184,304.167,266.699z"/>
			<path style="fill:#6BA845;" d="M327.305,227.85c1.485,1.513,2.201,3.092,2.711,4.914c-5.812,4.546-11.203,9.622-16.159,15.089
				c-0.794,0.97-2.056,2.373-3.378,3.949c-0.358-4.221-0.784-8.436-1.172-12.618c0.143-0.108,0.27-0.199,0.378-0.266
				c5.409-4.124,10.74-8.361,15.953-12.729c0.025-0.022,0.051-0.043,0.076-0.065C326.258,226.688,326.789,227.263,327.305,227.85z"
				/>
			<path style="fill:#6BA845;" d="M269.353,350.185c-0.03,1.081-0.066,2.16-0.122,3.235c-0.07,5.811-0.594,11.783,0.402,17.534
				c-2.796,0.904-5.73,1.539-8.681,1.447c0.024-0.166,0.039-0.335,0.053-0.507c0.126-1.731,0.339-3.541,0.328-5.296
				c0.022-4.33-0.173-8.661-0.62-12.968c-0.072-0.428-0.138-0.994-0.212-1.628c1.52-1.495,3.487-2.806,5.689-2.698
				C267.305,349.33,268.327,349.787,269.353,350.185z"/>
			<path style="fill:#A4E873;" d="M193.281,219.451c-2.986-1.488-6.203-2.43-9.465-3.09c-2.03-0.4-4.065-0.829-6.134-0.943
				c-3.712-0.075-7.524,0.648-10.738,2.568c-2.658,1.56-5.203,3.575-6.657,6.35c-2.058,4.056-2.861,8.67-2.944,13.187
				c-0.116,4.813,0.721,9.603,0.565,14.418c-0.133,1.627-0.348,3.244-0.649,4.849c-0.31,1.4-0.786,2.75-1.348,4.065
				c-0.926,0.382-1.835,0.798-2.704,1.302c-0.556,0.352-1.171,0.632-1.744,0.966c-0.71-0.599-1.448-1.171-2.21-1.709
				c-0.134-1.888-0.528-3.757-1.125-5.555c-1.258-3.998-2.895-7.858-4.62-11.672c-2.761-6.348-5.647-13.04-5.266-20.102
				c0.205-2.304,0.926-4.532,1.899-6.619c1.253-2.254,3.186-4.023,5.012-5.807c0.698-0.637,1.458-1.209,2.246-1.766
				c1.562-1.007,3.164-1.969,4.916-2.611c3.355-0.99,6.903-1.394,10.397-1.239c4.347,0.326,8.663,1.062,12.783,2.512
				C182.054,211.001,187.868,215.082,193.281,219.451z"/>
			<path style="fill:#A4E873;" d="M174.117,146.58c0.044,0.512,0.023,1.025,0.02,1.537c-2.686,3.808-4.84,8.025-5.281,12.737
				c-0.516,4.842-0.218,10.056,1.978,14.453c-0.318,0.881-0.705,1.75-1.044,2.623c-1.814-7.959-5.14-15.568-9.458-22.484
				c-2.459-3.764-5.041-7.881-9.225-9.892c-0.11-0.044-0.221-0.09-0.335-0.133c0.155-0.432,0.336-0.859,0.549-1.278
				c2.3-5.275,8.597-7.949,14.107-6.896c2.172,0.426,4.071,1.458,5.925,2.587c0.633,0.865,1.22,1.76,1.727,2.705
				C173.696,143.799,174.029,145.181,174.117,146.58z"/>
			<path style="fill:#A4E873;" d="M290.093,123.425c6.046,1.584,13.265,4.106,18.853-0.022c-1.039,4.951-5.589,8.472-10.46,9.212
				c-8.262,1.01-12.891,4.963-14.482,13.249c-0.024-0.013-0.049-0.027-0.073-0.04c-3.879-1.846-6.636-4.942-7.622-8.484
				c-0.089-0.9-0.221-1.805-0.398-2.703c-0.043-2.33,0.674-4.757,2.312-7.081C280.714,123.646,285.767,122.488,290.093,123.425z"/>
			<path style="fill:#6BA845;" d="M156.748,158.305c-0.076,0.072-0.149,0.153-0.22,0.241c-2.791,3.343-8.478,6.196-12.826,6.44
				c2.875-1.049,4.505-3.939,5.376-6.718c0.937-3.631,0.416-7.567,1.224-11.213c0.582,0.687,1.094,1.435,1.612,2.172
				C153.699,152.157,155.306,155.191,156.748,158.305z"/>
			<path style="fill:#A4E873;" d="M318.935,192.922c-2.285-0.31-4.623-0.166-6.882,0.529c-5.092,1.546-8.365,4.808-10.98,8.81
				c-0.491-2.416-1.415-4.732-2.805-6.752c-0.271-1.012-0.47-2.041-0.566-3.092c-0.022-0.343-0.035-0.688-0.037-1.031
				c0.098-0.035,0.195-0.074,0.29-0.119c2.288-0.978,4.725-1.575,7.207-1.745C309.973,189.279,314.741,190.584,318.935,192.922z"/>
			<path style="fill:#F9DA12;" d="M229.972,370.382c1.368,4.414-1.089,9.292-4.774,11.792c-5.861,3.989-13.32,5.104-20.245,4.016
				c-7.773-1.411-12.431-7.942-6.289-14.519c1.789-1.927,3.872-3.542,6.036-5.023c0.309-0.236,0.722-0.496,1.186-0.777
				c-0.415,1.387-0.832,2.772-1.254,4.153c-0.311,1.049-0.586,2.111-0.903,3.16c-0.119,0.398-0.261,0.812-0.392,1.23
				c-0.602-0.115-1.202-0.197-1.795-0.049c-1.701,1.369,1.87,3.775,2.971,4.483c1.657,1.027,3.569,1.548,5.468,1.911
				c4.098,0.74,8.44,0.169,12.15-1.746c1.79-0.866,4.11-1.854,4.048-4.202c0.276-0.928-0.087-1.69-0.714-2.245
				c0.406-0.803,0.8-1.611,1.169-2.433c0.444-1.082,0.873-2.171,1.289-3.265C228.74,367.959,229.502,369.098,229.972,370.382z"/>
			<path style="fill:#F9DA12;" d="M232.422,398.069c0.652,3.295,0.922,6.658,0.785,10.013c-0.317,3.814-1.093,7.657-2.792,11.107
				c-1.182,2.324-2.99,4.3-5.109,5.808c-1.199,0.775-2.512,1.335-3.85,1.817c-8.064,2.721-16.651,2.758-25.044,3.543
				c-8.868,0.811-17.698,2.048-26.601,2.449c-8.584,0.348-17.355,0.677-25.746-1.478c-2.853-0.804-5.943-1.895-7.707-4.423
				c-1.764-2.919-1.594-6.478-0.416-9.578c2.273-6.255,6.581-11.796,12.379-15.143c1.943-1.155,4.055-1.969,6.173-2.739
				c8.588-2.873,17.705-3.824,26.725-3.272c3.063,0.224,6.097,0.732,9.157,0.988c0.866,0.056,1.745,0.163,2.606,0.008
				c0.164,0.015,0.335-0.044,0.453-0.197c0.476-0.791-1.139-2.094-1.715-2.509c-2.182-1.628-4.719-2.8-7.32-3.578
				c-1.434-0.423-2.865-0.739-4.305-0.971c1.353-0.634,2.476-1.168,3.175-1.457c2.188-1.007,4.282-2.186,6.325-3.453
				c0.25-0.136,0.527-0.28,0.815-0.434c2.768,4.868,8.497,8.45,15.553,9.032c7.758,0.703,16.629-0.763,23.099-5.368
				C230.373,391.447,231.665,394.677,232.422,398.069z"/>
			<path style="fill:#F9DA12;" d="M281.282,369.198c3.783,6.347-2.775,12.528-8.559,14.343c-6.411,2.155-19.551,1.616-22.267-5.813
				c-1.215-3.489-0.297-7.748,2.326-10.364c0.544-0.612,1.539-1.161,2.572-1.731c0.003,0.686,0.008,1.373,0.017,2.059
				c0.033,1.179,0.144,2.354,0.231,3.53c-0.102-0.045-0.204-0.091-0.307-0.138c-0.328-0.143-0.617-0.43-0.987-0.447
				c-1.142,0.152-0.289,1.591,0.054,2.162c1.939,3.025,5.581,4.586,9.06,4.914c3.447,0.334,6.957-0.341,10.129-1.697
				c1.679-0.735,3.719-1.66,3.934-3.717c0.235-1.435-0.813-2.621-2.106-2.976c0.094-1.644,0.137-3.288,0.14-4.934
				C277.67,365.727,279.895,366.98,281.282,369.198z"/>
			<path style="fill:#F9DA12;" d="M347.037,417.629c0.884,4.027,0.261,8.845-2.933,11.719c-3.474,2.799-9.218,2.597-13.51,3.17
				c0.138-0.009,0.275-0.019,0.413-0.027c-7.554,0.613-15.959-0.287-23.74-0.975c-12.712-1.317-25.442-2.462-38.158-3.75
				c-5.601-0.848-13.989-1.427-17.97-5.773c-4.902-6.751-4.431-15.892-3.058-23.737c0.569-2.659,1.277-5.284,1.855-7.941
				c0.008-0.049,0.017-0.098,0.026-0.148c0.671-0.482,1.379-0.921,2.094-1.337c2.931,1.421,6.234,2.184,9.409,2.454
				c5.306,0.348,10.795-0.219,15.67-2.444c4.246-1.863,8.162-5.099,10.41-9.059c3.586,1.276,7.333,2.135,10.9,3.467
				c0.124,0.043,0.244,0.085,0.374,0.13c14.263,5.047,31.78,11.996,42.292,23.101C343.9,409.688,346.297,413.377,347.037,417.629z"
				/>
			<path style="fill:#FFFFFF;" d="M423.374,211.27c2.716,2.273,5.084,5.688,4.16,9.382c-0.406,1.683-0.853,2.767-1.813,3.821
				c-0.529-1.972-1.501-3.877-2.953-5.521c-6.405-7.52-17.22-9.88-26.685-8.448c-0.95,0.145-1.894,0.34-2.837,0.521
				c-0.578,0.181-1.122,0.482-1.75,0.468c-0.96-0.061-2.005,0.429-1.996,1.518c0.065,1.461,1.363,1.562,2.526,1.49
				c0.943,0.221,1.868,0.539,2.844,0.655c4.858,0.895,9.753,1.721,14.434,3.345c3.616,1.31,7.32,3.293,9.161,6.829
				c1.343,2.37,1.361,7.712-2.183,7.966c-3.531,0.146-6.388-2.388-9.253-4.111c-2.156-1.401-4.375-2.755-6.755-3.749
				c-4.978-2.084-10.475-2.829-15.846-2.773c-5.261,0.085-10.378,1.434-15.532,2.345c-7.245,1.277-15.76,2.378-22.008-2.368
				c-6.94-5.998-1.769-15.466,5.299-18.623c7.796-3.799,16.906-2.488,25.031-0.519c0.688,0.85,2.095-0.015,1.653-1.017
				c-0.993-1.564-2.426-2.87-4.009-3.848c-7.22-4.335-16.492-4.911-24.259-1.715c-1.258,0.49-2.442,1.065-3.548,1.715
				c0.929-4.576,4.797-8.026,8.926-9.973c3.224-1.553,6.928-1.805,10.058-3.6c3.34-1.505,5.767-4.567,6.621-8.112
				c1.288-4.418-0.55-8.946,0.072-13.394c0.711-4.14,5.396-7.011,9.402-5.749c5.151,2.079,7.094,7.899,6.683,13.086
				c-0.387,4.049-1.468,8.062-2.84,11.873c-0.018,0.053-0.036,0.104-0.055,0.156c-3.214,0.524-6.393,1.262-9.452,2.37
				c-1.459,0.097-1.052,2.222,0.289,1.805c7.519,0.458,15.043,0.9,22.564,1.363c5.339,0.46,10.749,0.759,15.951,2.117
				c4.697,1.299,13.211,5.032,12.11,11.018c-0.219,1.337-0.95,2.423-1.835,3.387c-4.217-2.855-9.417-4.405-14.417-4.346
				c0.895-0.573,1.314-1.694,0.887-2.699c-0.453-1.089-1.723-1.574-2.815-1.181c-2.296,0.09-4.334,1.367-6.318,2.407
				c-4.554,2.467-8.072,6.296-11.791,9.807c-0.057,0.049-0.114,0.096-0.171,0.143c-0.354,0.107-0.535,0.568-0.341,0.898
				c0.496,0.726,1.212-0.11,1.777-0.311c1.606-0.792,3.276-1.435,4.944-2.08c2.842-1.093,5.689-2.199,8.431-3.527
				C412.011,205.354,418.351,207.185,423.374,211.27z"/>
			<path style="fill:#FFFFFF;" d="M344.05,228.915c-5.829,0.189-10.468-3.863-12.283-9.783c-1.366-4.205-0.857-9.517,1.634-13.213
				c2.259-3.584,5.834-4.404,8.283-5.432c0.242,0.553,0.564,1.057,0.975,1.485C334.673,209.734,333.929,222.143,344.05,228.915z"/>
			<path style="fill:#FFFFFF;" d="M144.762,280.144c2.237,4.142,0.827,9.173-1.402,13.018c-3.635,6.396-9.153,11.394-13.335,17.396
				c-3.09,4.591-5.61,9.683-6.431,15.201c-1.415,7.131-0.161,14.866-3.303,21.59c-0.855,1.429-1.913,2.866-3.517,3.491
				c-0.801,0.161-1.623-0.039-2.411-0.189c-1.135-0.346-2.078-1.132-2.972-1.886c-1.016-1.069-1.622-2.429-2.197-3.775
				c-1.633-4.367-1.276-9.183-0.199-13.641c0.748-2.919,1.908-5.702,2.998-8.503c0.325-0.888,0.598-1.793,0.947-2.672
				c0.156-0.47,0.486-1.47,0.891-1.943c0.937-1.477-1.111-3.003-2.25-1.702c-0.398,0.556-0.862,1.045-1.373,1.494
				c-3.461,3.366-6.05,7.554-7.52,12.154c-0.791,2.577-1.399,5.254-1.496,7.956c-0.01,1.42,0.052,2.826,0.195,4.238
				c0.358,3.1,1.276,6.33,2.974,9.015c-1.275,0.759-2.514,1.61-4.057,1.285c-7.093-3.009-4.802-14.378-3.631-20.372
				c0.643-2.939,1.441-5.842,2.359-8.707c0.065-0.301,0.174-0.61,0.292-0.922c2.13-0.72,4.226-1.521,6.195-2.62
				c1.008-0.473,2.246-0.996,2.476-2.216c0.221-1.051-0.544-2.212-1.619-2.372c-0.692-0.111-1.376,0.019-2.044,0.203
				c-2.98,0.636-5.691,2.132-8.196,3.825c-2.088,1.413-3.78,3.286-5.521,5.089c-0.305,0.248-0.651,0.494-0.379,0.957
				c0.224,0.338,0.678,0.299,0.939,0.03c0.761-0.409,1.578-0.699,2.39-0.99c0.405-0.143,0.812-0.283,1.221-0.42
				c-0.729,1.17-1.294,2.201-1.49,2.584c-2.229,4.65-4.024,10.114-4.27,15.483c-0.325-0.242-0.626-0.52-0.888-0.853
				c-6.912-7.781-3.373-20.501,0.235-29.092c2.894-6.664,6.439-13.035,10.147-19.266c0.737-0.999-0.771-2.172-1.58-1.269
				c-1.575,1.352-3.143,2.72-4.638,4.166c-0.527,0.088-1.065,0.107-1.599,0.142c-3.646,0.299-7.233-0.832-10.561-2.217
				c-2.886-1.199-5.461-3.428-6.596-6.389c-2.39-5.547-0.221-13.471,6.76-13.541c5.974,0.389,7.918,8.349,14.186,9.241
				c10.421,2.178,15.296-12.729,26.713-11.351c1.107,0.288,2.13,0.894,3.072,1.555c-0.059,0.038-0.118,0.077-0.176,0.115
				c-6.318,4.394-10.464,10.092-13.221,17.29c-1.09,3.038-2.108,6.307-1.67,9.565c0.023,0.294,0.448,1.626,0.811,0.997
				c0-0.001,0-0.001,0.001-0.001c2.936-4.819,5.693-9.764,9.093-14.289c1.784-2.376,3.93-4.458,6.293-6.251
				c2.246-1.755,4.795-3.132,7.571-3.823c1.696-0.465,3.46-0.704,5.213-0.489C140.699,276.859,143.409,277.856,144.762,280.144z"/>
			<path style="fill:#FFFFFF;" d="M152.681,276.057c0.839,2.225,1.627,5.143,0.341,7.308c-0.021-0.245-0.046-0.49-0.076-0.736
				c-0.839-7.821-6.76-12.464-14.327-13.205c-3.2-0.274-6.427,0.284-9.433,1.427c-0.358-1.295-1.28-2.549-2.362-3.535
				c0.294-0.393,0.591-0.766,0.923-1.046c3.45-2.848,8.521-3.437,12.578-1.589C145.48,267.004,150.323,270.81,152.681,276.057z"/>
			<path style="fill:#E7B536;" d="M253.302,286.882c-3.109-6.93-6.616-13.748-10.69-20.345c-0.098-0.157-0.195-0.315-0.294-0.471
				c0.177-0.436,0.394-0.857,0.502-1.321c0.153-0.597,0.254-1.207,0.377-1.81l-0.02,0.099c0.306-1.611,0.659-3.21,1.12-4.784
				c0.563,0.074,1.128,0.196,1.663,0.377c0.916,0.31,1.832,0.672,2.641,1.211c0.422,0.282,0.845,0.56,1.25,0.864
				c0.368,0.277,0.716,0.606,1.056,0.906c0.391,0.345,0.767,0.702,1.123,1.085c0.842,0.906,1.615,1.866,2.333,2.872
				c1.57,2.197,2.873,4.517,4.031,6.952c0.928,1.952,1.755,3.95,2.546,5.961c0.166,0.423,0.328,0.849,0.489,1.275
				c0.427-0.669,0.834-1.348,1.218-2.044c0.718-1.525,1.311-3.096,1.881-4.682c0.606-1.808,1.146-3.639,1.718-5.458
				c0.293-0.931,0.581-1.866,0.852-2.804c0.281-0.974,0.507-1.967,0.814-2.933c0.156-0.492,0.328-0.979,0.511-1.462
				c0.308-0.811,0.801-1.578,1.305-2.279c0.055-0.076,0.11-0.152,0.167-0.227c-0.085,1.059-0.288,2.115-0.484,3.153
				c-0.447,2.446-1.421,4.965-0.804,7.46c0.438,1.65,1.446,3.062,2.22,4.563c0.556,1.138,1.03,2.318,1.299,3.559
				c0.059,0.313,0.105,0.632,0.164,0.946c-4.597,6.79-10.832,12.723-14.192,20.209C256.591,294.091,254.937,290.483,253.302,286.882
				z"/>
			<path style="fill:#E7B536;" d="M274.684,271.133c-0.275-1.348-0.269-2.73-0.183-4.097c0.172-1.95-0.061-3.905-0.339-5.834
				c-0.276-1.987-0.898-3.925-1.914-5.659c-0.03-0.05-0.06-0.1-0.09-0.15c0.445-0.439,0.895-0.874,1.346-1.306
				c0.744-0.71,1.518-1.389,2.285-2.075c0.788-0.706,1.539-1.447,2.278-2.203c0.559-0.572,1.101-1.159,1.638-1.751
				c1.65-1.922,3.19-3.934,4.633-6.016c0.211-0.428,0.421-0.857,0.632-1.285c1.409-2.863,2.822-5.724,4.195-8.604
				c0.515-1.08,1.027-2.16,1.524-3.248c-1.343,5.475-2.524,11.002-4.005,16.423c-2.844,9.572-6.427,19.04-11.515,27.659
				C274.999,272.369,274.83,271.754,274.684,271.133z"/>
			<path style="fill:#E7B536;" d="M215.528,232.107c-0.877-2.102-1.204-4.403-2.135-6.503c-0.968-3.476-3.105-6.906-2.665-10.607
				c-0.002,0.007-0.004,0.013-0.007,0.019c0.161-0.506-0.076-1.075-0.631-1.227c-1.483-0.34-1.4,2.259-1.883,3.214
				c-0.682,1.972-0.917,4.047-0.75,6.093c-5.583-5.897-11.601-11.375-18.495-15.715c-1.481-0.957-3.001-1.854-4.561-2.677
				c0.945-0.093,1.775-0.932,1.758-1.928c-0.056-1.41-1.108-2.564-1.301-3.966c-0.821-3.158-1.145-6.467-0.72-9.712
				c0.271-2.495,1.043-4.839,2.202-7.067c0.29-0.217,0.467-0.58,0.413-0.968c-0.081-0.609-0.673-0.98-1.243-0.865
				c-6.176,0.948-8.17,9.068-7.334,14.385c0.374,2.241,2.105,6.958,4.191,9.096c-2.719-1.298-5.542-2.369-8.452-3.146
				c-0.851-5.949-1.721-15.415,1.644-20.628c1.859-2.086,2.21-4.805,1.237-7.388c-1.4-5.256-3.155-10.742-2.148-16.221
				c1.098-6.768,6.803-7.112,7.053-12.335c0.093-2.949-0.693-5.858-0.532-8.814c0.693-9.333,4.736-9.097,6.372-14.691
				c0.407-2.613-0.179-5.255-0.09-7.884c0.319-4.331,3.257-7.634,6.47-10.253c3.951-3.405,1.441-10.367,6.531-12.78
				c2.222-0.694,3.188-0.604,3.958-0.514c1.199,0.14,1.922,0.279,6.182-2.544c0.412-0.203,0.946-0.373,1.503-0.546
				c-0.139,0.471-0.182,0.934-0.094,1.355c0.095,0.208,0.255,0.283,0.436,0.29c-0.106,0.882-0.563,1.775-1.213,2.369
				c-0.64,1.178-1.217,2.398-1.71,3.645c-0.286,0.808-0.319,1.66-0.288,2.509c0.169,0.953,0.411,1.947,0.229,2.907
				c-0.185,1.522-1.103,2.822-2.29,3.748c-1.233,0.976-2.667,1.764-3.631,3.039c-0.407,0.673-0.57,1.456-0.613,2.233
				c-0.145,1.237,0.381,1.934,1.162,2.811c0.885,0.888,1.803,1.753,2.76,2.56c0.033,0.144,0.069,0.287,0.106,0.431
				c0.261,1.289,0.804,2.495,1.625,3.521c-1.082,1.547-2.061,3.206-2.765,4.952c-0.146,0.056-0.294,0.104-0.445,0.146
				c0.001,0,0.001,0,0.001,0c-0.423,0.125-0.862,0.188-1.303,0.207c-0.784,0.247-1.55,0.543-2.327,0.81
				c0.108-0.038,0.217-0.075,0.325-0.113c-1.778,0.547-2.67,1.103-3.696,2.683c-0.786,1.028-0.893,2.319-0.993,3.565
				c-0.037,1.141,0.255,2.275,0.582,3.361c0.381,1.12,0.877,2.191,1.542,3.172c0.805,1.208,1.741,2.345,2.365,3.664
				c3.277,2.067,3.384,6.806,0.343,9.133c-0.699,0.54-1.462,0.86-2.293,1.126c-0.847,0.273-1.76,0.287-2.644,0.332
				c-0.908,0.068-1.815,0.147-2.724,0.211c0,0-0.001,0-0.001,0c0.102-0.007,0.205-0.014,0.307-0.021
				c-1.981,0.142-2.539,2.877-2.746,4.486c-0.04,1.275-0.056,2.559,0.174,3.818c0.288,1.175,0.565,2.372,1.064,3.479
				c1.225,2.689,3.781,4.378,5.399,6.779c0.408,0.777,0.729,1.601,1.113,2.393c0.781,1.916,0.294,4.108-0.684,5.864
				c-0.553,0.902-1.238,1.706-2.01,2.429c-2.763,2.623-3.833,2.245-4.682,6.461c-0.154,0.788-0.291,1.574-0.377,2.372
				c-0.038,1.112,0.12,2.218,0.285,3.315c0.261,0.997,0.596,1.978,0.999,2.928c0.502,0.85,1.139,1.627,1.857,2.302
				c3.297,2.582,7.002,4.661,9.943,7.687c1.812,1.8,3.283,3.899,4.678,6.028c1.918,2.843,3.221,6.05,4.262,9.303
				c0.433,1.235,0.876,2.467,1.285,3.71c0.258,0.783,0.439,1.589,0.667,2.38c0.372,0.671,0.867,1.262,1.353,1.853
				c3.047,3.145,6.387,6.007,9.808,8.739c4.143,3.225,8.445,6.417,11.586,10.683c-0.096,1.949,0.305,3.886,0.632,5.799
				c-0.02,1.006,0.23,1.988,0.72,2.865c-0.588,1.374-1.132,2.802-1.504,4.265C231.716,250.48,223.557,241.307,215.528,232.107z
				 M191.338,121.919c-3.093,1.896-4.787,6.839-5.18,10.308c-0.269,2.721,0.171,5.466,0.83,8.103
				c0.237,1.221,0.684,2.372,1.356,3.42c-0.62,1.083-1.501,1.984-2.229,2.991c-2.154,2.859-4.102,5.976-4.991,9.479
				c-1.596,6.225-0.895,10.238,2.602,15.61c1.611,2.555,5.415,0.619,4.322-2.165c-1.698-5.685-2.954-11.865-1.238-17.697
				c0.893-2.215,1.831-4.554,3.645-6.184c1.075-0.797,1.842-1.597,1.906-3.006c0.092-2.085-0.515-4.141-0.589-6.223
				c-0.084-1.458-0.114-2.915-0.044-4.375c0.212-2.554,0.686-5.088,1.462-7.533c0.173-0.478,0.364-0.944,0.578-1.408
				c0.181-0.364,0.387-0.723,0.345-1.147C193.718,120.862,192.048,121.398,191.338,121.919z M201.007,92.226
				c-1.782,1.669-2.293,4.349-2.089,6.7c0.08,0.565,0.283,1.1,0.447,1.643c-0.437,1.062-1.382,1.841-2.055,2.758
				c-1.858,2.542-3.821,5.223-4.494,8.354c-0.248,1.257-0.526,2.618,0.106,3.807c0.564,0.996,0.473,2.412,1.578,3.033
				c1.557,0.938,3.498-0.583,3.012-2.316c-0.27-0.648-0.013-1.274,0.082-1.926c0.057-0.553-0.034-1.078-0.131-1.618
				c-0.581-2.729-0.45-5.133,1.164-7.494c0.724-1.033,1.647-1.911,2.687-2.624c0.648-0.447,1.422-0.709,1.925-1.345
				c1.573-1.887,0.424-4.416-0.258-6.436c-0.277-0.786-0.296-1.65-0.102-2.452c0.038-0.404-0.267-0.773-0.688-0.759
				C201.727,91.552,201.325,91.916,201.007,92.226z"/>
			<path style="fill:#E7B536;" d="M210.286,170.032c-0.483-0.204-0.894-0.471-1.287-0.781c1.014-0.548,1.659-1.783,0.907-3.092
				c-0.889-1.282-1.298-2.745-1.266-4.294c-0.237-1.478-0.443-2.971-0.443-4.46c1.835-1.191,4.339-0.743,6.006,0.565
				c0.894,0.682,1.569,1.6,2.22,2.504c0.491,0.672,0.99,1.339,1.304,2.119C219.678,167.278,214.968,171.995,210.286,170.032z"/>
			<path style="fill:#E7B536;" d="M212.351,136.822c-1.307-0.178-2.496-0.813-3.393-1.761c1.563,0.026,2.532-1.806,1.681-3.101
				c-0.062-0.996-0.385-1.939-0.717-2.876c-0.57-1.644-1.017-3.341-0.813-5.096c2.11-1.617,5.237-0.396,6.88,1.369
				c1.102,1.258,2.229,2.638,2.646,4.286C219.748,133.539,216.358,137.41,212.351,136.822z"/>
			<path style="fill:#E7B536;" d="M229.501,160.634c-0.79-0.463-1.457-1.129-1.919-1.919c-0.233-0.398-0.435-0.857-0.568-1.333
				c0.325,0.355,0.679,0.629,1.058,0.748c2.08,0.515,3.2-1.826,2.057-3.431c-0.013-1.242-0.347-2.451-0.654-3.658
				c1.708-0.98,3.798-0.587,5.427,0.353c1.636,0.915,2.65,2.764,2.65,4.62C237.573,160.104,233.022,162.715,229.501,160.634z"/>
			<path style="fill:#E7B536;" d="M211.527,101.024c-1.908-1.424-2.067-4.513-0.334-6.138c3.145-3.015,7.993,0.647,6.394,4.547
				C216.646,101.779,213.503,102.609,211.527,101.024z"/>
			<path style="fill:#E7B536;" d="M226.326,118.446c1.636-0.776,1.797-2.912,0.715-4.226c-0.46-1.068-0.809-2.176-1.248-3.252
				c2.842-2.903,7.914-1.147,8.428,2.85C234.797,118.158,229.831,121.08,226.326,118.446z"/>
			<path style="fill:#E7B536;" d="M226.701,136.327c-0.853-0.36-1.525-0.979-1.971-1.743c0.706-0.133,1.322-0.715,1.421-1.465
				c0.114-1.296-0.177-2.629-0.591-3.875c2.449-2.188,6.533-0.59,6.932,2.647C232.955,135.068,229.642,137.601,226.701,136.327z"/>
			<path style="fill:#E7B536;" d="M257.184,145.309c-1.234-2.442-3.545-3.763-5.841-5.044c0.534-0.866,0.718-1.891,1.035-2.847
				c0.066-0.227,0.129-0.455,0.188-0.685c2.368-2.226,6.068-1.439,8.289,0.601c-0.063,1.633-0.357,3.371,0.326,4.914
				c-0.064,0.883,0.375,1.714,1.06,2.222c-0.862,1.514-2.51,2.54-4.248,2.665C257.762,146.51,257.492,145.9,257.184,145.309z"/>
			<path style="fill:#E7B536;" d="M246.192,121.707c-0.564-0.208-1.249-0.364-1.911-0.364c-0.664,0-1.307,0.157-1.786,0.576
				c-0.698-1.431-0.951-3.086-0.594-4.632c1.456,0.733,2.659-0.568,3.57-1.556c0.401-0.564,0.635-1.187,0.75-1.842
				c2.037-0.167,4.128,0.586,5.576,2.03c-0.063,1.015-0.15,2.03-0.215,3.046c-0.11,1.403-0.212,3.057,0.708,4.26
				c-0.157,0.21-0.329,0.409-0.516,0.595c-0.445,0.445-0.962,0.809-1.522,1.08C249.173,123.535,247.849,122.305,246.192,121.707z"/>
			<path style="fill:#E7B536;" d="M287.552,184.284c-0.357-0.098-0.717-0.243-1.061-0.43c-0.685-5.231-3.405-10.019-7.357-13.477
				c-0.949-0.874-1.973-1.687-2.795-2.684c0.325-0.658,0.538-1.357,0.631-2.079c1.262-1.934,3.978-2.309,6.126-1.764
				c0.493,11.741,8.275,9.016,7.052,20.432C289.302,184.513,288.4,184.517,287.552,184.284z"/>
			<path style="fill:#E7B536;" d="M279.054,217.613c-1.496-2.447-0.86-5.897,1.4-7.651c2.283-1.84,5.7-0.732,7.279,1.518
				c-0.18,1.661-0.538,3.312-0.716,4.658c-0.152,0.923-0.172,1.873,0.026,2.777C284.674,221.08,280.66,220.406,279.054,217.613z"/>
			<path style="fill:#E7B536;" d="M265.065,251.24c-5.086-0.73-6.592-7.266-3.154-10.713c1.148-1.121,2.748-1.801,4.363-1.547
				c3.088,0.385,5.255,3.463,5.212,6.466C271.572,248.832,268.422,251.736,265.065,251.24z"/>
			<path style="fill:#FFFDA3;" d="M225.223,97.154c-0.514-0.217-0.963-0.537-1.332-0.932c-0.552-1.373-0.889-2.853-0.838-4.324
				c0.433-1.015,1.13-2.082,2.27-2.371c2.989-0.876,6.128,1.971,5.247,5.037C230.001,96.809,227.338,98.104,225.223,97.154z"/>
			<path style="fill:#FFFDA3;" d="M233.488,109.641c-2.885-0.28-4.618-3.945-2.757-6.253c0.704-0.882,1.774-1.419,2.904-1.452
				c0.355,0.194,0.753,0.357,1.196,0.486c0.394,0.045,0.783,0.112,1.157,0.215c0.798,0.518,1.389,1.388,1.63,2.287
				C238.338,107.496,236.13,110.009,233.488,109.641z"/>
			<path style="fill:#FFFDA3;" d="M235.648,130.376c-2.104-1.29-3.559-3.942-2.887-6.415c0.367-1.334,1.335-2.398,2.59-2.954
				c5.053-2.076,10.385,4.391,6.291,8.596C240.104,131.142,237.522,131.548,235.648,130.376z"/>
			<path style="fill:#FFFDA3;" d="M242.171,143.704c-1.524-1.151-1.24-3.674,0.551-4.403c1.499-0.68,3.339,0.436,3.526,2.043
				C246.56,143.574,243.95,145.087,242.171,143.704z"/>
			<path style="fill:#FFFDA3;" d="M270.316,141.499c-1.308-0.68-2.268-1.846-3.168-2.982c-0.201-6.686-4.062-12.402-9.276-16.331
				c-0.981-0.813-0.513-2.243-0.811-3.347c-0.483-2.934-1.497-5.876-3.431-8.179c-0.353-0.382-2.455-3.057-2.926-1.459
				c0.002,0.317,0.278,0.445,0.41,0.693c0.732,0.978,0.73,2.236,0.759,3.403c-2.285-2.295-4.253-4.937-6.938-6.796
				c-0.148-0.097-0.296-0.192-0.445-0.288c-1.279-2.239-3.126-4.08-5.192-5.645c-0.339-1.132-0.384-2.314-0.54-3.477
				c-0.145-0.905-0.383-1.799-0.437-2.716c-0.266-0.982,0.897-1.811,1.739-1.233c0.665,0.263,1.367,0.549,1.91,1.02
				c1.384,1.523,2.572,3.255,2.928,5.32c0.15,0.755,0.309,1.506,0.625,2.213c0.519,1.272,2.313,1.374,3.016,0.291
				c4.126,2.76,7.617,6.642,9.462,11.287c0.89,2.642,0.536,5.617,1.654,8.175c0.892,1.524,2.303,2.618,3.822,3.466
				c3.738,3.08,5.992,7.771,7.032,12.437c0.249,1.388,0.073,2.883,0.133,4.316C270.533,141.612,270.425,141.556,270.316,141.499z"/>
			<path style="fill:#FFFDA3;" d="M263.394,163.066c-0.931-0.256-1.689-0.772-2.333-1.457c0.023,0.026,0.046,0.052,0.069,0.078
				c-2.685-2.39-2.632-6.783,0.484-8.77c3.237-1.938,7.465,0.446,7.902,4.089c0.145,1.306,0.126,2.645-0.581,3.804
				C267.861,162.701,265.48,163.67,263.394,163.066z"/>
			<path style="fill:#FFFDA3;" d="M211.313,147.272c0.198-4.664,6.858-4.662,7.055,0
				C218.171,151.934,211.51,151.933,211.313,147.272z"/>
			<path style="fill:#FFFDA3;" d="M211.525,111.713c-0.271-0.794-0.536-1.59-0.776-2.394c0.047-2.079,1.796-3.799,3.884-3.799
				c5.134,0.217,5.132,7.552,0,7.769C213.373,113.29,212.238,112.665,211.525,111.713z"/>
			<path style="fill:#FFFDA3;" d="M244.465,159.189c0.16-3.778,5.556-3.776,5.715,0C250.02,162.966,244.624,162.966,244.465,159.189
				z"/>
			<path style="fill:#FFFDA3;" d="M277.234,233.813c-2.998-1.694-2.724-6.357,0.473-7.664c3.016-1.311,6.347,1.335,5.905,4.561
				C283.25,233.667,279.786,235.359,277.234,233.813z"/>
			<path style="fill:#FFFDA3;" d="M271.91,182.933c-5.023-1.321-5.543-8.708-0.391-10.276c3.927-1.167,7.794,2.835,6.632,6.733
				C277.516,182.059,274.498,183.662,271.91,182.933z"/>
			<path style="fill:#5B9636;" d="M239.539,310.451c-0.307-0.759-0.587-1.533-0.961-2.262c-1.19-0.902-1.986-2.158-2.583-3.503
				c-2.168-4.636-4.812-9.019-7.312-13.479c-5.534-10.013-11.199-20.042-15.303-30.745c-0.614-1.64-1.098-3.321-1.597-4.997
				c-0.452-0.67-0.604-1.553,0.05-2.195c0.719-0.713,1.737-0.49,2.399,0.153c3.188,1.796,6.184,3.952,8.861,6.449
				c7.135,12.477,11.511,26.353,18.753,38.801c1.656,3.469,3.226,6.989,4.633,10.567c0.13,0.358,0.581,0.517,0.92,0.374
				c0.738-0.338,0.289-1.137,0.101-1.694c-0.834-2.755-1.641-5.619-2.444-8.399c-3.188-13.114-9.642-25.217-18.03-35.736
				c2.819,3.09,5.311,6.478,7.686,9.914c4.339,6.169,8.124,12.747,10.721,19.846c0.824,2.108,1.622,4.229,2.411,6.35
				c0.379,1.02,0.69,2.008,0.696,3.117c0.002,0.336-0.015,0.671-0.04,1.006c0.228,0.782,0.571,1.525,0.855,2.287
				c0.524,1.344,0.567,2.806,0,4.147C247.598,314.728,241.303,314.76,239.539,310.451z"/>
			<path style="fill:#5B9636;" d="M235.083,343.815c0.363-1.463,0.726-2.939,1.037-4.423c2.473-0.148,4.926-0.519,7.315-1.178
				c1.891-0.625,3.9-1.248,5.389-2.626c1.973-1.737,0.635-2.949-1.447-2.782c-3.455,0.066-6.915,0.177-10.371,0.11
				c0.038-0.898,0.032-1.799-0.027-2.7c-0.923-3.585-4.96,5.916-7.302,11.878c-0.733-0.426-1.475-0.835-2.227-1.229
				c-2.171-1.006-4.403-1.859-6.619-2.757c-0.141-0.057-0.282-0.114-0.423-0.171c0.842-4.156,1.864-10.161,0.853-11.788
				c-0.533-0.579-1.628,1.136-2.869,3.737c-14.517-4.764-26.285-14.987-33.068-29.66c-3.904-7.956-6.379-16.559-7.703-25.313
				c1.145-0.672,2.028-1.204,2.523-1.499c1.117-0.656,2.251-1.288,3.354-1.968c0.314-0.106,0.528-0.435,0.405-0.794
				c-0.437-0.87-1.546-0.092-2.268-0.065c-3.687,0.624-7.385,1.319-10.983,2.338c0.078-0.281,0.154-0.563,0.227-0.846
				c0.357-1.386,0.679-2.785,0.978-4.185c0.155-0.852,0.267-1.704,0.352-2.565c0.045-0.956,0.046-1.909-0.001-2.865
				c-0.057-0.669-0.124-1.337-0.196-2.005c3.204-1.294,6.411-2.58,9.61-3.884c0.292-0.065,0.463-0.394,0.367-0.674
				c-0.089-0.264-0.343-0.37-0.595-0.344c-0.874-0.001-1.747,0.027-2.62,0.065c-1.009,0.048-2.016,0.123-3.019,0.227
				c-0.255-2.778-0.532-5.555-0.859-8.326c-0.367-3.093-1.177-12.999-3.846-18.578c0.694-1.645,1.714-3.169,3.015-4.366
				c1.913-1.635,4.067-2.444,6.47-3.13c0.923-0.089,1.853-0.115,2.787-0.059c5.958,0.407,11.522,2.278,16.469,5.724
				c1.832,1.224,3.543,2.605,5.261,3.982c1.01,1.101,1.985,2.242,2.98,3.354c2.07,2.367,4.15,4.731,6.217,7.104
				c0.017,0.389,0.023,0.779,0.008,1.168c-0.014,0.369-0.084,0.723-0.164,1.076c0.152,0.663-0.144,1.379-0.744,1.73
				c-0.644,0.378-1.482,0.239-1.977-0.306c0.022,0.007,0.044,0.015,0.065,0.022c-0.012-0.004-0.023-0.008-0.035-0.012
				c-0.01-0.004-0.021-0.007-0.031-0.011c0,0,0-0.001-0.001-0.001c-1.052-0.376-2.028-0.988-2.966-1.589
				c-0.582-0.373-1.161-0.759-1.689-1.207c-0.444-0.377-0.881-0.761-1.327-1.137c-0.903-0.761-1.838-1.484-2.752-2.232
				c-0.819-0.671-1.661-1.305-2.528-1.91c-1.246-0.814-2.525-1.559-3.849-2.24c-1.072-0.532-2.147-1.056-3.26-1.495
				c-0.964-0.307-1.943-0.566-2.921-0.83c-1.018-0.274-2.037-0.548-3.065-0.784c-0.066-0.011-0.132-0.022-0.198-0.033
				c-0.133,0.058-0.266,0.117-0.398,0.177c-0.169,0.268-0.334,0.539-0.493,0.814c-0.046,0.106-0.091,0.212-0.135,0.319
				c-0.055,0.188-0.107,0.376-0.157,0.565c-0.018,0.091-0.037,0.182-0.058,0.272c-0.081,0.47-0.149,0.943-0.203,1.418
				c-0.024,0.722-0.016,1.442,0.014,2.164c0.086,0.904,0.201,1.802,0.355,2.697c0.391,1.706,0.886,3.383,1.437,5.045
				c1.385,3.826,3.053,7.546,4.854,11.192c2.141,4.246,4.335,8.465,6.495,12.702c1.165,2.284,2.316,4.576,3.464,6.869
				c0.887,1.769,1.768,3.54,2.652,5.31c0.127,0.248,0.229,0.442,0.32,0.64c0.176,0.35,0.351,0.699,0.527,1.05
				c-0.149-0.297-0.298-0.594-0.447-0.891c2.264,4.499,4.581,8.973,7.05,13.362c1.984,3.528,4.121,6.972,6.346,10.351
				c-0.185-0.273-0.369-0.547-0.554-0.82c0.226,0.334,0.451,0.667,0.676,1.001c1.581,2.317,3.325,4.52,5.158,6.642
				c1.499,1.639,3.073,3.191,4.723,4.676c1.341,1.155,2.722,2.24,4.171,3.254c1.448,0.93,2.92,1.808,4.44,2.613
				c2.002,0.963,4.04,1.812,6.129,2.57c0.812,0.265,1.625,0.5,2.454,0.698c0.888,0.143,1.775,0.25,2.669,0.328
				c1.236,0.051,2.465,0.071,3.701,0.032c1.184-0.111,2.353-0.279,3.525-0.492c1.022-0.223,2.04-0.463,3.051-0.729
				c-0.049,0.919-0.142,1.843-0.281,2.77c-0.072,0.315-0.176,0.62-0.311,0.912c-0.245,0.302,0.001,0.803,0.373,0.803
				c0.014,0,0.03-0.001,0.045-0.003l-0.005,0.002c0.665-0.076,1.225-0.609,1.696-1.054c1.108-1.037,1.793-2.424,2.28-3.845
				c0.102-0.284,0.195-0.57,0.28-0.857c1.262-0.435,2.526-0.86,3.788-1.294c0.553-0.19,1.11-0.364,1.673-0.525
				c1.983-0.567,4.141-0.549,6.024,0.302c-1.52,0.897-3.09,1.71-4.724,2.375c-0.938,0.178-1.898,0.838-1.602,1.919
				c0.348,1.252,1.692,1.079,2.652,0.743c0.311-0.049,0.623-0.099,0.935-0.148c-1.313,1.901-2.384,3.981-3.315,6.099
				c-4.629,8.793-9.116,10.971-18.813,11.744c-0.859,0.045-1.912,0.08-3.067,0.08C242.566,345.621,237.91,345.274,235.083,343.815z"
				/>
			<path style="fill:#5B9636;" d="M262.656,324.323c0.076-0.026,0.153-0.053,0.229-0.079
				C262.809,324.27,262.732,324.297,262.656,324.323C262.656,324.323,262.656,324.323,262.656,324.323z"/>
			<path style="fill:#5B9636;" d="M211.301,245.202c0.022,0.008,0.045,0.015,0.068,0.023c0,0,0,0,0,0
				C211.346,245.218,211.324,245.21,211.301,245.202z"/>
			<path style="fill:#5B9636;" d="M211.165,245.155c0.045,0.015,0.09,0.031,0.135,0.047
				C211.255,245.186,211.21,245.171,211.165,245.155z"/>
			<path style="fill:#5B9636;" d="M263.796,318.884c-0.121-0.094-0.238-0.192-0.35-0.295c0.002-1.809-0.195-3.627-0.506-5.42
				c3.227-3.934,6.619-7.826,8.648-12.551c1.202-2.711,2.347-5.46,3.876-8.01c0.28-0.181,0.34-0.642,0.042-0.873
				c-0.301-0.233-0.725-0.055-0.831,0.262c-1.038,1.305-2.072,2.607-3.275,3.763c1.303-2.93,2.345-5.983,3.101-9.1
				c8.694-10.91,14.387-23.881,18.282-37.203c3.279-11.967,4.406-24.562,9.602-35.962c-0.942,7.88-0.568,17.512,0.076,26.788
				c-0.332,1.035-0.662,2.072-0.991,3.109c-3.155,10.053-6.208,20.138-9.37,30.189c-1.405,7.871-3.311,15.661-6.063,23.176
				c-2.174,6.182-5.435,12.15-10.213,16.703c-2.039,2.421-3.936,5.418-7.132,6.389C267.025,320.322,265.166,319.944,263.796,318.884
				z"/>
			<path style="fill:#5B9636;" d="M310.406,250.96c-0.342-3.94-0.738-7.873-1.1-11.776c0.142-0.108,0.27-0.199,0.378-0.266
				c2.457-1.873,4.897-3.769,7.318-5.691c0.437,0.782,0.715,1.624,1.008,2.468c0.744,2.168,0.666,4.503,1.029,6.745
				c-1.777,1.756-3.505,3.562-5.183,5.413c-0.696,0.849-1.75,2.031-2.89,3.371C310.771,251.144,310.585,251.056,310.406,250.96z"/>
			<path style="fill:#5B9636;" d="M260.951,372.401c0.712-6.795,0.367-13.608-0.452-20.397c1.521-1.496,3.488-2.807,5.689-2.697
				c1.116,0.024,2.138,0.48,3.164,0.879c-0.031,1.081-0.066,2.16-0.122,3.235c-0.068,5.619-0.559,11.388,0.308,16.963
				c-0.216,0.296-0.457,0.572-0.718,0.825C266.271,371.973,263.617,372.486,260.951,372.401z"/>
			<path style="fill:#D5FFA3;" d="M145.501,217.274c-1.281-0.122-2.075-1.613-1.548-2.747c0.033-0.865,0.326-1.673,0.743-2.423
				c0.821-0.832,1.737-1.53,2.706-2.213c7.331-5.23,17.081-4.329,25.361-2.192c-0.882,3.678-3.994,3.389-6.849,4.602
				c-1.917,1.599-4.244,2.604-6.57,3.469C155.323,217.11,149.512,219.416,145.501,217.274z"/>
			<path style="fill:#D5FFA3;" d="M173.245,147.773c-3.915-0.249-7.948-0.165-11.645-1.666c-3.822-1.363-6.752-4.612-3.349-8.236
				c4.568-1.743,9.152-0.674,13.1,1.963c1.861,2.417,2.931,4.909,2.788,8.006C173.841,147.816,173.543,147.794,173.245,147.773z"/>
			<path style="fill:#D5FFA3;" d="M279.434,130.544c-0.432-0.516-0.645-1.165-0.74-1.823c0.028,0.135,0.055,0.269,0.082,0.403
				c-0.187-0.794-0.129-1.622,0.055-2.406c2.642-3.234,7.263-4.159,11.263-3.293c2.097,0.549,4.336,1.212,6.599,1.67
				c-1.128,0.86-2.557,1.242-3.728,2.051c-0.381,0.256-0.678,0.604-0.985,0.943c-0.52,0.58-1.182,1.109-1.858,1.502
				C287.54,131.039,281.673,133.375,279.434,130.544z"/>
			<path style="fill:#D5FFA3;" d="M301.988,195.651c-1.963-0.739-3.732-2.661-2.853-4.851c1.938-0.703,3.967-1.138,6.026-1.279
				c1.927-0.097,3.846,0.054,5.725,0.42c0.56,2.117-0.76,4.353-2.836,4.976c-0.581,0.223-1.059,0.626-1.657,0.831
				C304.977,196.273,303.382,196.233,301.988,195.651z"/>
			<path style="fill:#7CBF52;" d="M237.839,317.222c-0.582-0.816-1.158-1.636-1.804-2.404c-0.383-0.419-0.782-0.825-1.139-1.267
				c-0.357-0.442-0.681-0.911-1.014-1.371c-0.649-0.895-1.307-1.783-1.994-2.65c-1.425-1.802-2.874-3.592-4.359-5.346
				c-0.143-0.17-0.29-0.337-0.436-0.504c-0.391-0.442-0.781-0.884-1.171-1.327c0.048,0.055,0.097,0.109,0.145,0.164
				c-0.098-0.111-0.196-0.222-0.293-0.333c-0.009-0.011-0.019-0.021-0.028-0.032c0.005,0.006,0.011,0.012,0.016,0.018
				c-0.1-0.114-0.2-0.227-0.3-0.341c-1.591-1.811-3.053-3.711-4.503-5.635c-1.407-1.866-2.755-3.774-4.087-5.694
				c-1.453-2.093-2.905-4.186-4.249-6.352c-1.309-2.108-2.457-4.345-3.471-6.609c-1.893-4.23-3.584-8.544-5.115-12.918
				c-0.823-2.352-1.654-4.703-2.42-7.076c-0.323-1.002-0.634-2.012-0.874-3.037c-0.147-0.626-0.269-1.254-0.38-1.888
				c-0.094-0.534-0.114-1.086-0.143-1.628c-0.018-0.195-0.036-0.39-0.053-0.584c-0.021-0.097-0.042-0.193-0.062-0.29
				c0.005,0.015,0.01,0.03,0.016,0.045c0.003,0.002,0.006,0.005,0.01,0.007c-0.15-0.351-0.107-0.787,0.195-1.089
				c0.368-0.368,0.93-0.346,1.301-0.072c-0.001-0.003-0.003-0.006-0.004-0.008c0.425,0.364,0.885,0.683,1.339,1.009
				c0.478,0.342,0.915,0.742,1.339,1.147c0.898,0.859,1.699,1.817,2.473,2.788c1.431,1.793,2.747,3.679,4.058,5.56
				c1.428,2.048,2.842,4.104,4.193,6.204c1.266,1.969,2.467,3.978,3.629,6.01c2.437,4.26,4.418,8.763,6.582,13.163
				c0.01,0.021,0.021,0.042,0.031,0.063c2.12,4.166,4.449,8.222,6.513,12.417c0.396,0.805,0.786,1.613,1.183,2.418
				c1.01,1.973,2.101,3.904,3.217,5.819c0.578,0.991,1.182,1.964,1.808,2.926c0.299,0.458,0.604,0.913,0.908,1.368
				c0.359,0.538,0.665,1.087,0.953,1.665c0.004,0.008,0.008,0.015,0.012,0.023c-0.035-0.07-0.07-0.14-0.105-0.21
				c0.313,0.614,0.663,1.2,1.043,1.774c0.267,0.39,0.539,0.777,0.812,1.163c0.373,0.526,0.563,1.13,0.475,1.778
				c-0.083,0.615-0.413,1.182-0.904,1.563c-0.42,0.325-0.945,0.487-1.469,0.487C238.991,318.139,238.275,317.833,237.839,317.222z"
				/>
			<path style="fill:#7CBF52;" d="M225.761,302.171c0.004,0.005,0.008,0.009,0.012,0.014c0.049,0.056,0.099,0.112,0.148,0.169
				C225.868,302.293,225.815,302.232,225.761,302.171z"/>
			<path style="fill:#7CBF52;" d="M225.411,301.773c0.017,0.019,0.033,0.038,0.05,0.056c0.015,0.017,0.029,0.034,0.044,0.05
				C225.474,301.845,225.442,301.809,225.411,301.773z"/>
			<path style="fill:#7CBF52;" d="M225.174,301.503c0.079,0.09,0.158,0.18,0.237,0.27
				C225.332,301.684,225.253,301.594,225.174,301.503z"/>
			<path style="fill:#7CBF52;" d="M291.96,306.887c-0.876-0.241-1.637-0.828-2.096-1.612c-0.482-0.823-0.584-1.785-0.354-2.703
				c0.415-1.651,0.801-3.31,1.149-4.975c0.159-0.819,0.295-1.637,0.382-2.466c0.017-0.446,0.017-0.889,0.002-1.337
				c-0.009-0.25-0.033-0.501-0.042-0.751c-0.018-0.51,0.021-1.013,0.056-1.523c0.039-0.563,0.144-1.125,0.247-1.68
				c0.109-0.592,0.223-1.184,0.338-1.776c0.469-2.415,0.978-4.822,1.484-7.228c0.457-2.175,0.953-4.331,1.59-6.459
				c0.305-1.021,0.635-2.034,0.909-3.064c0.255-0.957,0.49-1.921,0.705-2.887c0.105-0.545,0.203-1.092,0.309-1.637
				c0.09-0.462,0.16-1.267,0.808-1.216c0.525,0.041,0.674,0.802,0.805,1.195c0.176,0.524,0.323,1.057,0.48,1.586
				c0.303,1.019,0.649,2.026,0.942,3.05c0.334,1.167,0.656,2.329,0.889,3.522c0.222,1.134,0.374,2.264,0.467,3.415
				c0.157,1.938,0.089,3.894-0.038,5.832c-0.122,1.805-0.27,3.605-0.551,5.394c-0.057,0.364-0.12,0.727-0.192,1.088
				c-0.122,0.612-0.227,1.232-0.39,1.835c-0.058,0.211-0.114,0.422-0.172,0.633c-0.033,0.121-0.083,0.239-0.124,0.358
				c-0.087,0.252-0.169,0.565-0.274,0.79c-0.191,0.404-0.387,0.804-0.587,1.202c0.019-0.039,0.039-0.077,0.058-0.116
				c-0.207,0.437-0.397,0.876-0.571,1.325c-0.299,0.94-0.538,1.895-0.763,2.854c-1.385,2.595-3.002,5.076-4.87,7.457
				C292.359,306.977,292.159,306.942,291.96,306.887z"/>
			<path style="fill:#7CBF52;" d="M300.992,284.223c-0.004,0.055-0.007,0.109-0.011,0.164
				C300.985,284.332,300.989,284.277,300.992,284.223z"/>
			<path style="fill:#7CBF52;" d="M300.996,284.173c0.002-0.025,0.003-0.051,0.005-0.076c-0.003,0.042-0.006,0.084-0.008,0.126
				C300.993,284.206,300.995,284.189,300.996,284.173z"/>
			<path style="fill:#7CBF52;" d="M301.02,283.815c-0.006,0.094-0.013,0.188-0.019,0.282
				C301.007,284.003,301.013,283.909,301.02,283.815z"/>
			<path style="fill:#E0D5D5;" d="M80.142,293.834c-1.936-0.804-3.732-2.072-5.048-3.714c-1.945-4.16,2.519-7.474,6.401-7.253
				c1.055,0.024,2.003,0.151,3.029,0.4c3.076,0.857,5.852,2.854,7.51,5.598c0.999,1.721,1.789,3.739,1.64,5.755
				c-0.463,0.424-0.921,0.854-1.373,1.29C88.141,296.565,83.957,295.477,80.142,293.834z"/>
			<path style="fill:#E0D5D5;" d="M112.955,282.972c-0.673-0.388-0.957-1.273-0.626-1.977c-0.023-0.486-0.111-0.961-0.101-1.451
				c0.018-2.295,0.681-4.549,1.916-6.485c2.1-1.022,4.402-1.583,7.059-1.262c1.107,0.288,2.13,0.894,3.072,1.555
				c-0.059,0.038-0.118,0.077-0.176,0.116c-3.693,2.569-6.644,5.583-9.01,9.082c-0.048,0.013-0.096,0.027-0.142,0.048
				C114.475,283.194,113.606,283.355,112.955,282.972z"/>
			<path style="fill:#E0D5D5;" d="M152.947,282.629c-0.716-6.682-5.142-11.043-11.133-12.634c-0.107-1.816,0.679-2.695,2.355-3.25
				c3.617,2.292,6.755,5.402,8.512,9.312c0.839,2.225,1.627,5.143,0.341,7.308C153.002,283.12,152.977,282.876,152.947,282.629z"/>
			<path style="fill:#E0D5D5;" d="M114.363,350.65c-0.402-0.123-0.781-0.301-1.141-0.513c0.293-3.447,0.975-6.852,1.467-10.274
				c0.756-4.892,1.088-9.845,2.148-14.688c1.115-5.952,4.05-11.295,6.022-16.967c0.515-1.356,1.191-2.644,1.925-3.893
				c1.691-2.832,3.337-5.688,4.807-8.642c2.153-4.217,3.557-8.777,5.787-12.954c0.595-1.097,1.323-2.074,2.312-2.856
				c1.696-1.452,5.954-2.037,7.073,0.284c5.074,11.387-9.194,21.802-14.738,30.414c-3.089,4.591-5.61,9.683-6.431,15.2
				c-1.415,7.132-0.161,14.867-3.303,21.591c-0.856,1.429-1.914,2.866-3.517,3.49C115.97,351,115.15,350.8,114.363,350.65z"/>
			<path style="fill:#E0D5D5;" d="M100.526,352.709c-0.041-0.558-0.06-1.12-0.09-1.677c-0.14-1.66-0.386-3.301-0.706-4.935
				c-0.221-1.043-0.458-2.082-0.68-3.125c-0.276-1.291-0.474-2.59-0.637-3.9c-0.163-1.305-0.268-2.624-0.252-3.94
				c0.017-1.355,0.142-2.721,0.338-4.062c0.139-0.95,0.352-1.894,0.584-2.825c0.195-0.788,0.388-1.582,0.632-2.356
				c0.407-1.293,0.884-2.561,1.349-3.832c1.528-0.567,3.025-1.208,4.454-2.005c1.008-0.473,2.246-0.996,2.476-2.216
				c0.143-0.678-0.125-1.401-0.622-1.872c0.866,0.241,1.664,0.743,2.173,1.474c0.177,0.254,0.338,0.506,0.473,0.771
				c-3.367,3.334-5.889,7.453-7.332,11.969c-0.791,2.577-1.4,5.254-1.496,7.957c-0.01,1.42,0.053,2.826,0.195,4.238
				c0.358,3.1,1.277,6.33,2.974,9.015c-1.084,0.644-2.14,1.356-3.38,1.356C100.832,352.741,100.681,352.731,100.526,352.709z"/>
			<path style="fill:#E0D5D5;" d="M108.179,336.165c-0.006,0.109-0.011,0.219-0.017,0.329c-0.028,0.532-0.057,1.064-0.083,1.596
				C108.088,337.449,108.122,336.806,108.179,336.165z"/>
			<path style="fill:#E0D5D5;" d="M88.137,341.37c-1.641-1.847-2.693-3.972-3.295-6.255c0.476-2.006,1.168-3.948,2.004-5.841
				c0.902-1.979,1.984-3.879,3.222-5.667c0.871-1.369,2.267-2.726,4.012-2.496c-1.216,1.088-2.331,2.293-3.466,3.468
				c-0.305,0.248-0.651,0.495-0.378,0.958c0.224,0.337,0.678,0.299,0.939,0.03c1.146-0.602,2.391-0.987,3.611-1.411
				c-0.728,1.17-1.294,2.201-1.491,2.584c-2.229,4.651-4.023,10.113-4.269,15.484C88.7,341.981,88.4,341.703,88.137,341.37z"/>
			<path style="fill:#E0D5D5;" d="M331.766,219.133c-0.216-0.665-0.385-1.357-0.507-2.066c1.652-2.132,3.529-1.041,5.385,0.115
				c0.458,4.431,2.814,8.663,7.404,11.735C338.244,229.111,333.576,225.055,331.766,219.133z"/>
			<path style="fill:#E0D5D5;" d="M407.028,229.185c-6.554-4.673-14.605-6.721-22.602-6.522c-12.315,0.111-26.266,7.822-37.54-0.024
				c-2.02-1.746-3.013-3.785-3.233-5.878c1.484-2.805,5.096-2.788,7.796-2.147c3.137,0.602,6.075,1.931,9.198,2.585
				c3.785,0.692,7.64,0.771,11.478,0.758c9.591-0.157,19.386-0.181,28.67,2.537c6.625,2.033,12.943,5.381,18.407,9.633
				C417.849,236.834,410.272,231.298,407.028,229.185z"/>
			<path style="fill:#E0D5D5;" d="M422.768,218.952c-7.093-8.295-19.29-10.257-29.53-7.924c-0.282-0.46-0.443-0.992-0.454-1.537
				c2.768-1.297,5.67-2.265,8.492-3.435c1.868,0.09,3.719,0.401,5.542,0.812c3.502,0.759,6.84,2.116,10.158,3.439
				c2.204,0.893,4.379,1.922,6.374,3.222c1.458,0.939,2.819,2.017,4.031,3.26c0.867,2.461-0.004,5.88-1.661,7.686
				C425.191,222.502,424.22,220.596,422.768,218.952z"/>
			<path style="fill:#E0D5D5;" d="M413.291,200.705c-0.48-0.278-1.103-0.33-1.403-0.86c0.3-0.516,0.391-1.14,0.197-1.737
				c0.93-0.768,2.163-1.076,3.31-1.372c3.719-0.847,7.746-0.592,11.274,0.882c0.68,1.189,0.983,2.514,0.714,3.974
				c-0.219,1.336-0.95,2.422-1.834,3.387C421.936,202.532,417.602,201.044,413.291,200.705z"/>
			<path style="fill:#E0D5D5;" d="M354.166,189.625c1.604-0.087,3.327-0.044,4.792,0.711c1.689,0.823,3.469,2.534,2.355,4.55
				c-3.66-0.038-7.328,0.638-10.711,2.03c-1.258,0.49-2.443,1.066-3.549,1.715C347.845,194.736,350.766,191.656,354.166,189.625z"/>
			<path style="fill:#E0D5D5;" d="M380.422,183.771c-2.551-1.109-2.003-4.418-1.148-6.5c1.534-3.7,5.757-7.763,9.54-9.094
				c0.267,5.039-1.273,10.034-2.894,14.741c-1.68,0.274-3.35,0.606-4.999,1.019C380.751,183.897,380.584,183.843,380.422,183.771z"
				/>
			<path style="fill:#F8B620;" d="M226.411,373.593c-0.092-0.03-0.181-0.061-0.27-0.094c-0.138-0.355-0.377-0.668-0.677-0.933
				c0.407-0.803,0.8-1.612,1.169-2.434c0.444-1.082,0.874-2.171,1.288-3.264c0.818,1.092,1.58,2.23,2.051,3.514
				c0.242,0.78,0.364,1.576,0.381,2.369C229.239,373.575,227.751,373.976,226.411,373.593z"/>
			<path style="fill:#F8B620;" d="M200.503,375.11c-0.738-0.567-1.073-1.576-0.799-2.469c-0.007-0.644-0.114-1.283-0.101-1.927
				c1.562-1.515,3.302-2.836,5.098-4.066c0.308-0.236,0.721-0.496,1.185-0.777c-0.889,2.845-1.655,5.699-2.549,8.544
				c-0.603-0.115-1.202-0.198-1.795-0.049c-0.392,0.316-0.504,0.686-0.431,1.078C200.894,375.365,200.689,375.253,200.503,375.11z"
				/>
			<path style="fill:#F8B620;" d="M184.4,390.886c-1.435-0.423-2.866-0.739-4.305-0.971c1.353-0.634,2.476-1.168,3.174-1.457
				c2.496-1.106,4.762-2.563,7.141-3.887c0.886,1.559,2.076,2.986,3.516,4.224c0.88,2.417-0.052,5.001-2.867,5.196
				C189.033,392.607,186.743,391.587,184.4,390.886z"/>
			<path style="fill:#F8B620;" d="M217.708,425.937c1.99-2.279,3.652-4.805,5.196-7.401c2.689-4.264,4.588-9.089,5.134-14.119
				c0.116-2.707-0.062-5.428-0.472-8.106c-0.287-1.392-0.694-2.755-1.251-4.065c-0.138-0.341-0.255-0.687-0.369-1.034
				c-0.232-0.247-0.352-0.579-0.345-0.91c0.677-0.337,1.337-0.7,1.979-1.091c0.971,0.224,1.797,0.861,2.499,1.552
				c2.303,5.467,3.421,11.387,3.129,17.319c-0.5,6.313-2.356,13.203-7.901,16.914c-2.999,1.879-6.539,2.697-9.956,3.403
				C216.153,427.597,216.938,426.775,217.708,425.937z"/>
			<path style="fill:#FFB700;" d="M250.383,371.443c0.464-1.535,1.275-2.959,2.399-4.08c0.544-0.611,1.54-1.161,2.572-1.732
				c0.003,0.687,0.008,1.373,0.017,2.059c0.033,1.179,0.144,2.354,0.231,3.53c-0.451-0.145-0.818-0.535-1.294-0.584
				c-1.137,0.151-0.298,1.576,0.049,2.153c-0.079,0.002-0.159,0.003-0.239,0.003C252.734,372.793,251.283,372.474,250.383,371.443z"
				/>
			<path style="fill:#FFB700;" d="M277.43,371.253c-0.264-0.944-1.089-1.668-2.051-1.931c0.094-1.645,0.137-3.289,0.14-4.934
				c2.152,1.339,4.376,2.591,5.763,4.809c0.08,0.135,0.156,0.269,0.227,0.404C280.497,370.762,278.971,371.353,277.43,371.253z"/>
			<path style="fill:#FFB700;" d="M251.14,421.993c-4.903-6.751-4.431-15.892-3.058-23.737c0.57-2.659,1.277-5.285,1.855-7.941
				c0.008-0.049,0.017-0.098,0.026-0.148c0.671-0.482,1.378-0.921,2.093-1.337c2.931,1.422,6.234,2.185,9.41,2.455
				c1.946,0.128,3.917,0.132,5.873-0.023c-1.872,0.547-3.74,1.104-5.591,1.72c-1.02,0.37-2.014,0.781-2.997,1.241
				c-0.597,0.316-1.173,0.655-1.744,1.019c-0.274,0.192-0.543,0.389-0.802,0.6c-0.066,0.064-0.131,0.13-0.195,0.196
				c-0.089,0.111-0.176,0.224-0.261,0.339c-0.205,0.336-0.402,0.674-0.593,1.019c-0.25,0.534-0.481,1.07-0.697,1.62
				c-0.258,0.804-0.479,1.611-0.672,2.434c-0.229,1.269-0.384,2.542-0.501,3.827c-0.073,1.402-0.072,2.797,0.001,4.201
				c0.125,1.604,0.295,3.193,0.573,4.778c0.309,1.378,0.702,2.723,1.15,4.062c0.225,0.61,0.466,1.206,0.73,1.799
				c0.2,0.367,0.406,0.727,0.621,1.086c0.263,0.371,0.534,0.735,0.813,1.097c0.545,0.592,1.111,1.154,1.7,1.704
				c0.411,0.334,0.826,0.652,1.253,0.964c0.303,0.182,0.606,0.363,0.908,0.545c0.41,0.245,0.863,0.434,1.289,0.648
				c-0.218-0.109-0.437-0.22-0.656-0.329c0.847,0.358,1.694,0.689,2.554,1.006c0.51,0.159,1.021,0.312,1.533,0.461
				C260.552,426.574,254.383,425.534,251.14,421.993z"/>
			<path style="fill:#FFB700;" d="M287.546,379.78c2.643,0.94,5.374,1.654,8.056,2.499c-2.832,0.889-5.666,1.831-8.594,2.319
				c-2.043,0.719-4.081,1.449-6.121,2.176C283.613,384.939,285.983,382.535,287.546,379.78z"/>
			<path style="fill:#FFFD9F;" d="M153.32,420.69c-4.257-1.186-7.707-5.165-7.767-9.658c-0.105-2.328,0.281-4.795,1.584-6.768
				c0.731-1.088,1.572-2.077,2.624-2.863c1.527-0.763,3.129-1.371,4.733-1.955c0.998-0.437,2.093-0.386,3.155-0.307
				c0.47,0.036,0.932,0.113,1.384,0.226c0.563-0.065,1.131-0.082,1.689-0.046c1.304,0.085,2.565,0.336,3.792,0.79
				c3.849,1.237,6.217,5.194,6.063,9.15c-0.06,4.044-2.651,7.753-6.068,9.771C161.255,420.855,156.957,421.676,153.32,420.69z"/>
			<path style="fill:#FFFD9F;" d="M176.296,407.908c0.201-4.754,6.991-4.752,7.191,0
				C183.286,412.66,176.497,412.659,176.296,407.908z"/>
			<path style="fill:#FFFD9F;" d="M328.731,418.146c-7.982-0.036-16.207-9.119-11.803-16.888c0.542-0.937,1.283-1.771,2.16-2.399
				c1.031-2.147,2.905-3.869,5.128-4.724c6.398,3.449,12.313,7.501,16.897,12.343c0.016,0.018,0.032,0.037,0.048,0.055
				C341.009,412.801,334.929,418.279,328.731,418.146z"/>
			<path style="fill:#FFFD9F;" d="M299.329,409.062c-3.267-3.277-0.935-8.908,3.692-8.914c2.804-0.052,5.275,2.417,5.222,5.222
				C308.237,409.997,302.606,412.329,299.329,409.062z"/>
			<path style="fill:#1B1818;" d="M207.811,148.775c0.786-0.608,2.85-0.896,2.473,0.643c-0.82,1.566-1.417,3.234-1.748,4.974
				c-0.604,2.474-0.294,4.994,0.103,7.473c-0.031,1.549,0.378,3.013,1.267,4.294c1.462,2.546-2.363,4.815-3.903,2.281
				c-1.236-2.286-2.662-4.649-2.777-7.306C202.769,156.699,203.946,151.423,207.811,148.775z"/>
			<path style="fill:#1B1818;" d="M143.36,293.162c2.229-3.846,3.639-8.876,1.402-13.018c-1.353-2.288-4.063-3.285-6.571-3.679
				c-1.753-0.216-3.517,0.023-5.213,0.489c-2.776,0.691-5.325,2.068-7.571,3.823c-2.364,1.793-4.51,3.875-6.293,6.251
				c-3.4,4.525-6.157,9.47-9.093,14.289c-0.001,0-0.001,0-0.001,0.001c-0.363,0.629-0.788-0.703-0.811-0.997
				c-0.439-3.258,0.58-6.527,1.67-9.565c2.757-7.198,6.903-12.896,13.221-17.29c0.058-0.038,0.117-0.077,0.176-0.115
				c-0.942-0.661-1.965-1.267-3.072-1.555c-11.417-1.378-16.292,13.529-26.713,11.351c-6.268-0.892-8.212-8.852-14.186-9.241
				c-6.981,0.069-9.149,7.994-6.76,13.541c1.136,2.961,3.71,5.19,6.596,6.389c3.328,1.385,6.915,2.516,10.561,2.217
				c0.534-0.036,1.072-0.054,1.599-0.142c1.495-1.446,3.063-2.814,4.638-4.166c0.809-0.903,2.317,0.27,1.58,1.269
				c-3.709,6.231-7.253,12.602-10.147,19.266c-3.607,8.591-7.147,21.311-0.235,29.092c0.263,0.333,0.563,0.611,0.888,0.853
				c0.246-5.37,2.04-10.833,4.27-15.483c0.196-0.383,0.762-1.414,1.49-2.584c-0.409,0.137-0.816,0.277-1.221,0.42
				c-0.811,0.292-1.629,0.582-2.39,0.99c-0.261,0.269-0.715,0.308-0.939-0.03c-0.272-0.462,0.074-0.709,0.379-0.957
				c1.741-1.803,3.433-3.676,5.521-5.089c2.505-1.693,5.217-3.189,8.196-3.825c0.668-0.185,1.352-0.314,2.044-0.203
				c1.075,0.16,1.84,1.321,1.619,2.372c-0.23,1.22-1.468,1.744-2.476,2.216c-1.969,1.098-4.065,1.899-6.195,2.62
				c-0.118,0.312-0.227,0.621-0.292,0.922c-0.918,2.864-1.715,5.767-2.359,8.707c-1.172,5.993-3.463,17.363,3.631,20.372
				c1.544,0.325,2.782-0.526,4.057-1.285c-1.698-2.685-2.616-5.915-2.974-9.015c-0.143-1.412-0.205-2.818-0.195-4.238
				c0.097-2.702,0.705-5.379,1.496-7.956c1.47-4.6,4.059-8.788,7.52-12.154c0.511-0.449,0.976-0.938,1.373-1.494
				c1.139-1.301,3.187,0.225,2.25,1.702c-0.405,0.474-0.735,1.473-0.891,1.943c-0.35,0.879-0.623,1.784-0.947,2.672
				c-1.09,2.802-2.249,5.584-2.998,8.503c-1.078,4.458-1.434,9.274,0.199,13.641c0.575,1.346,1.181,2.706,2.197,3.775
				c0.894,0.754,1.837,1.54,2.972,1.886c0.788,0.15,1.61,0.351,2.411,0.189c1.604-0.625,2.662-2.061,3.517-3.491
				c3.142-6.724,1.888-14.459,3.303-21.59c0.822-5.518,3.342-10.61,6.431-15.201C134.207,304.556,139.725,299.558,143.36,293.162z
				 M153.023,283.366c1.286-2.166,0.498-5.083-0.341-7.308c-2.358-5.248-7.201-9.053-12.354-11.376
				c-4.057-1.849-9.129-1.26-12.578,1.589c-0.332,0.28-0.629,0.653-0.923,1.046c1.081,0.986,2.003,2.24,2.362,3.535
				c3.006-1.142,6.232-1.7,9.433-1.427c7.566,0.741,13.488,5.384,14.327,13.205C152.977,282.876,153.002,283.121,153.023,283.366z
				 M156.528,158.546c0.071-0.088,0.144-0.169,0.22-0.241c-1.442-3.114-3.049-6.148-4.834-9.078
				c-0.519-0.737-1.03-1.486-1.612-2.172c-0.809,3.646-0.287,7.582-1.224,11.213c-0.871,2.779-2.501,5.669-5.376,6.718
				C148.05,164.742,153.736,161.889,156.528,158.546z M168.629,256.996c-0.264-3.034-0.554-6.063-0.932-9.073
				c-0.527-4.934-1.094-9.899-2.628-14.64c-0.023-0.121-0.052-0.244-0.084-0.369c-1.333,7.486,0.996,15.269-0.279,22.806
				c-0.098,0.784-0.233,1.568-0.4,2.348C165.736,257.67,167.178,257.311,168.629,256.996z M174.136,148.117
				c0.004-0.512,0.024-1.025-0.02-1.537c-0.087-1.399-0.42-2.781-1.038-4.042c-0.507-0.945-1.094-1.84-1.727-2.705
				c-1.854-1.128-3.753-2.161-5.925-2.587c-5.51-1.052-11.807,1.622-14.107,6.896c-0.213,0.419-0.394,0.846-0.549,1.278
				c0.114,0.043,0.225,0.089,0.335,0.133c4.184,2.011,6.766,6.128,9.225,9.892c4.318,6.916,7.644,14.525,9.458,22.484
				c0.339-0.872,0.726-1.742,1.044-2.623c-2.196-4.397-2.494-9.611-1.978-14.453C169.296,156.142,171.45,151.925,174.136,148.117z
				 M183.816,216.361c3.261,0.66,6.478,1.602,9.465,3.09c-5.413-4.369-11.227-8.45-17.785-10.897
				c-4.119-1.45-8.436-2.186-12.783-2.512c-3.494-0.155-7.042,0.249-10.397,1.239c-1.751,0.643-3.354,1.604-4.916,2.611
				c-0.789,0.557-1.549,1.129-2.246,1.766c-1.826,1.784-3.759,3.553-5.012,5.807c-0.974,2.087-1.694,4.315-1.899,6.619
				c-0.382,7.062,2.504,13.754,5.266,20.102c1.725,3.814,3.362,7.674,4.62,11.672c0.596,1.798,0.99,3.667,1.125,5.555
				c0.762,0.538,1.5,1.109,2.21,1.709c0.573-0.334,1.187-0.614,1.744-0.966c0.868-0.504,1.778-0.92,2.704-1.302
				c0.562-1.315,1.037-2.665,1.348-4.065c0.301-1.605,0.516-3.222,0.649-4.849c0.157-4.814-0.681-9.605-0.565-14.418
				c0.083-4.517,0.886-9.132,2.944-13.187c1.455-2.774,3.999-4.79,6.657-6.35c3.214-1.92,7.026-2.643,10.738-2.568
				C179.751,215.531,181.787,215.961,183.816,216.361z M225.199,382.174c3.685-2.5,6.142-7.378,4.774-11.792
				c-0.471-1.284-1.232-2.423-2.05-3.514c-0.415,1.094-0.845,2.182-1.289,3.265c-0.369,0.822-0.762,1.63-1.169,2.433
				c0.627,0.555,0.99,1.318,0.714,2.245c0.062,2.348-2.258,3.336-4.048,4.202c-3.709,1.915-8.052,2.486-12.15,1.746
				c-1.899-0.363-3.811-0.883-5.468-1.911c-1.101-0.708-4.673-3.114-2.971-4.483c0.594-0.148,1.193-0.067,1.795,0.049
				c0.131-0.418,0.273-0.833,0.392-1.23c0.317-1.049,0.592-2.11,0.903-3.16c0.422-1.382,0.839-2.766,1.254-4.153
				c-0.463,0.28-0.877,0.54-1.186,0.777c-2.164,1.482-4.247,3.096-6.036,5.023c-6.142,6.577-1.485,13.108,6.289,14.519
				C211.878,387.278,219.337,386.163,225.199,382.174z M233.207,408.083c0.137-3.355-0.133-6.718-0.785-10.013
				c-0.757-3.392-2.049-6.623-3.36-9.834c-6.47,4.605-15.341,6.071-23.099,5.368c-7.056-0.582-12.785-4.164-15.553-9.032
				c-0.288,0.154-0.565,0.298-0.815,0.434c-2.044,1.266-4.137,2.445-6.325,3.453c-0.699,0.289-1.822,0.823-3.175,1.457
				c1.44,0.232,2.871,0.548,4.305,0.971c2.602,0.779,5.138,1.95,7.32,3.578c0.577,0.414,2.192,1.718,1.715,2.509
				c-0.118,0.153-0.289,0.212-0.453,0.197c-0.861,0.156-1.741,0.049-2.606-0.008c-3.06-0.256-6.094-0.764-9.157-0.988
				c-9.02-0.552-18.137,0.4-26.725,3.272c-2.118,0.77-4.23,1.584-6.173,2.739c-5.797,3.346-10.105,8.888-12.379,15.143
				c-1.178,3.1-1.348,6.659,0.416,9.578c1.764,2.529,4.854,3.619,7.707,4.423c8.391,2.155,17.162,1.826,25.746,1.478
				c8.904-0.401,17.733-1.638,26.601-2.449c8.393-0.785,16.979-0.823,25.044-3.543c1.338-0.482,2.652-1.042,3.85-1.817
				c2.119-1.507,3.927-3.483,5.109-5.808C232.115,415.74,232.89,411.896,233.207,408.083z M269.231,353.42
				c0.056-1.075,0.092-2.153,0.122-3.235c-1.026-0.398-2.048-0.854-3.164-0.879c-2.202-0.109-4.169,1.202-5.689,2.698
				c0.074,0.634,0.14,1.201,0.212,1.628c0.447,4.307,0.642,8.637,0.62,12.968c0.011,1.755-0.203,3.564-0.328,5.296
				c-0.013,0.172-0.028,0.34-0.053,0.507c2.952,0.092,5.885-0.543,8.681-1.447C268.637,365.203,269.161,359.231,269.231,353.42z
				 M272.723,383.54c5.784-1.815,12.342-7.996,8.559-14.343c-1.387-2.217-3.612-3.47-5.763-4.809
				c-0.003,1.645-0.046,3.289-0.14,4.934c1.292,0.354,2.34,1.541,2.106,2.976c-0.215,2.057-2.255,2.982-3.934,3.717
				c-3.172,1.356-6.682,2.031-10.129,1.697c-3.479-0.328-7.122-1.889-9.06-4.914c-0.343-0.571-1.197-2.01-0.054-2.162
				c0.369,0.017,0.658,0.304,0.987,0.447c0.102,0.047,0.204,0.093,0.307,0.138c-0.086-1.176-0.198-2.351-0.231-3.53
				c-0.008-0.686-0.014-1.372-0.017-2.059c-1.033,0.57-2.028,1.12-2.572,1.731c-2.623,2.616-3.541,6.875-2.326,10.364
				C253.172,385.156,266.312,385.695,272.723,383.54z M295.952,212.105c-0.652-1.491-0.244-3.295-0.505-4.89
				c-0.118-2.469-0.884-4.837-1.898-7.074c-6.144-8.551-3.547-9.059-3.258-18.385c-0.165-7.059-4.363-7.172-6.318-12.717
				c-0.854-2.803-0.761-5.754-1.384-8.605c-0.773-3.675-2.083-7.246-4.086-10.432c-1.613-2.963-4.63-2.786-6.705-4.805
				c-1.856-2.239-0.822-5.23-1.29-7.843c-0.651-3.2-1.984-6.216-3.828-8.906c-0.917-1.301-1.903-2.592-3.205-3.531
				c-1.519-0.848-2.93-1.941-3.822-3.467c-1.118-2.558-0.763-5.532-1.654-8.174c-1.293-3.275-3.465-6.212-6.037-8.601
				c-1.013-1.039-2.267-1.817-3.424-2.687c-0.703,1.083-2.498,0.981-3.016-0.291c-0.315-0.707-0.475-1.457-0.625-2.213
				c-0.355-2.065-1.543-3.798-2.927-5.321c-1.525-1.868-2.922-3.852-5.331-4.631c-0.658-0.222-1.346-0.316-2.036-0.368
				c-1.098-0.028-2.26,0.005-3.179-0.703c-1.897-1.349-1.44-3.327-4.392-3.044c-1.463,0.145-2.913,0.429-4.307,0.904
				c-1.134,0.43-2.366,0.22-3.384-0.401c-0.573-0.221-1.205-0.245-1.813-0.233c-0.504,0.058-0.968,0.287-1.425,0.494
				c-0.933,0.486-1.902,0.886-2.903,1.213c-0.385,0.132-0.974,0.388-1.199-0.105c-0.087-0.421-0.045-0.883,0.094-1.355
				c-0.556,0.174-1.091,0.343-1.502,0.546c-6.993,4.636-4.454,1.284-10.14,3.059c-5.089,2.413-2.579,9.375-6.531,12.78
				c-3.213,2.62-6.151,5.923-6.471,10.253c-0.089,2.629,0.497,5.27,0.09,7.884c-1.636,5.593-5.678,5.357-6.371,14.691
				c-0.161,2.955,0.626,5.865,0.532,8.814c-0.25,5.223-5.956,5.568-7.053,12.335c-1.007,5.479,0.748,10.965,2.148,16.22
				c0.974,2.583,0.623,5.302-1.236,7.388c-1.654,2.424-2.066,5.412-2.285,8.274c-0.188,4.125-0.077,8.282,0.641,12.354
				c2.91,0.777,5.733,1.848,8.452,3.146c-2.087-2.137-3.818-6.855-4.192-9.096c-0.837-5.318,1.157-13.438,7.334-14.386
				c0.57-0.115,1.162,0.257,1.244,0.866c0.053,0.387-0.124,0.75-0.414,0.967c-0.217,0.432-0.415,0.904-0.61,1.289
				c-0.877,1.809-1.34,3.791-1.593,5.779c-0.425,3.245-0.1,6.553,0.72,9.712c0.193,1.402,1.245,2.557,1.301,3.966
				c0.017,0.995-0.812,1.835-1.758,1.927c1.559,0.824,3.079,1.72,4.56,2.677c6.895,4.341,12.913,9.819,18.496,15.716
				c-0.167-2.047,0.069-4.122,0.75-6.094c0.483-0.955,0.4-3.554,1.883-3.214c0.562,0.155,0.798,0.736,0.625,1.247
				c0.005-0.013,0.008-0.025,0.013-0.038c-0.44,3.7,1.698,7.13,2.665,10.606c0.931,2.101,1.258,4.401,2.135,6.504
				c8.029,9.199,16.189,18.372,23.142,28.415c0.372-1.463,0.916-2.891,1.504-4.266c-0.49-0.877-0.739-1.859-0.719-2.865
				c-0.361-2.115-0.813-4.259-0.584-6.417c0.01-0.73,0.613-1.422,1.306-0.852c0.361,0.384,0.423,0.952,0.594,1.434
				c0.232,0.852,0.487,1.699,0.887,2.49c0.323,0.607,0.671,1.2,1.107,1.734c0.735,0.644,1.426,1.367,1.79,2.29
				c0.456,1.137,0.331,2.41-0.066,3.544c-0.557,1.779-0.965,3.591-1.312,5.42l0.021-0.099c-0.124,0.603-0.224,1.214-0.377,1.81
				c-0.108,0.464-0.325,0.884-0.502,1.321c0.098,0.157,0.196,0.314,0.294,0.472c4.073,6.596,7.58,13.414,10.689,20.344
				c1.635,3.602,3.289,7.209,4.797,10.871c3.36-7.486,9.595-13.419,14.193-20.209c-0.059-0.314-0.106-0.633-0.164-0.946
				c-0.269-1.241-0.744-2.421-1.3-3.559c-0.774-1.502-1.782-2.913-2.22-4.563c-0.617-2.496,0.356-5.014,0.804-7.46
				c0.373-1.976,0.771-4.016,0.337-6.015c-0.104-0.429-0.21-0.857-0.369-1.27c-0.203-0.181-0.273-0.509-0.127-0.757
				c0.209-0.358,0.735-0.389,0.983-0.07c0.867,0.702,1.445,1.696,2.013,2.638c1.017,1.734,1.638,3.672,1.914,5.659
				c0.279,1.929,0.512,3.884,0.34,5.834c-0.086,1.367-0.093,2.749,0.183,4.097c0.145,0.622,0.314,1.237,0.485,1.852
				c5.088-8.619,8.671-18.087,11.515-27.659c1.519-5.559,2.723-11.231,4.109-16.843c-0.069-0.249-0.131-0.502-0.179-0.757
				c-0.491-2.654-1.782-5.022-3.034-7.38c-0.719-1.286-0.798-2.779-0.563-4.207c0.45-3.412,2.059-8.777-1.01-11.332
				c-0.203-0.212-0.433-0.486-0.224-0.778c0.696-0.692,2.26,0.56,2.827,1.047c3,2.462,4.12,6.432,4.297,10.177
				c0.157,1.299-0.089,2.588-0.076,3.885c0.031,0.398,0.097,0.79,0.185,1.177C293.864,217.535,294.821,214.79,295.952,212.105z
				 M308.946,123.403c-5.588,4.128-12.807,1.606-18.853,0.022c-4.326-0.937-9.379,0.221-11.868,4.132
				c-1.638,2.324-2.355,4.752-2.312,7.081c0.176,0.898,0.309,1.803,0.398,2.703c0.986,3.542,3.742,6.638,7.622,8.484
				c0.024,0.013,0.049,0.027,0.073,0.04c1.591-8.286,6.219-12.239,14.482-13.249C303.357,131.875,307.907,128.355,308.946,123.403z
				 M276.88,321.078c20.345-13.508,27.671-30.339,27.287-54.38c0.044-12.515-3.754-36.7-1.783-53.204
				c-1.709,3.915-3.068,7.981-4.191,12.1c-2.135,7.878-3.155,16.014-5.41,23.862c-2.976,10.1-6.92,19.995-12.473,28.968
				c-3.986,6.345-8.85,12.061-13.545,17.881c-1.483,1.955-3.042,3.873-4.275,5.998c-0.543,1.206-1.002,2.456-1.348,3.735
				c0.145,0.461,0.287,0.922,0.424,1.386c0.963-1.511,1.898-3.04,2.99-4.465c2.814-3.958,6.984-6.677,9.816-10.612
				c0.094-0.123,0.199-0.236,0.304-0.35c0.106-0.317,0.529-0.494,0.831-0.262c0.297,0.231,0.237,0.691-0.043,0.872
				c-0.204,0.334-0.392,0.683-0.583,1.022c-1.258,2.251-2.243,4.637-3.292,6.988c-1.254,2.757-2.838,5.37-4.729,7.738
				c-0.954,1.169-1.927,2.323-2.855,3.513c-0.342,0.441-0.693,0.881-1.065,1.3c0.696,4.006,0.819,8.138-0.564,12.012
				c-0.488,1.421-1.171,2.808-2.28,3.846c-0.471,0.445-1.032,0.978-1.696,1.054l0.005-0.002c-0.015,0.002-0.03,0.003-0.045,0.003
				c-0.372,0-0.617-0.501-0.372-0.803c0.136-0.293,0.239-0.598,0.311-0.912c1.771-11.774-4.043-22.841-8.832-33.213
				c-4.755-10.212-9.694-20.389-16.093-29.694c-7.62-10.988-16.555-20.961-25.343-31.008c-0.996-1.111-1.971-2.253-2.981-3.354
				c-1.717-1.377-3.429-2.757-5.261-3.981c-4.947-3.446-10.51-5.318-16.469-5.724c-0.933-0.057-1.863-0.031-2.786,0.058
				c-2.403,0.686-4.556,1.495-6.47,3.13c-1.3,1.198-2.32,2.721-3.014,4.366c2.668,5.578,3.479,15.484,3.846,18.577
				c0.327,2.772,0.605,5.548,0.859,8.326c1.004-0.103,2.01-0.179,3.019-0.227c0.873-0.037,1.746-0.065,2.621-0.064
				c0.252-0.026,0.505,0.08,0.595,0.343c0.097,0.28-0.074,0.609-0.367,0.674c-7.937,3.235-15.921,6.36-23.788,9.766
				c-0.766,0.323-1.552,0.587-2.339,0.847c1.569,1.898,2.861,3.928,3.779,5.977c0.524,1.257,0.977,2.571,1.245,3.913
				c0.775-0.44,1.456-0.793,1.885-1.022c6.02-3.013,12.644-4.354,19.231-5.469c0.722-0.027,1.831-0.806,2.268,0.065
				c0.123,0.358-0.091,0.687-0.405,0.793c-1.103,0.68-2.237,1.311-3.354,1.968c-0.495,0.294-1.378,0.826-2.523,1.499
				c1.324,8.754,3.799,17.357,7.703,25.313c6.783,14.672,18.551,24.895,33.068,29.66c1.241-2.602,2.335-4.316,2.869-3.738
				c1.36,2.188-0.957,12.292-1.569,15.171c-2.33,9.814-5.408,19.448-9.175,28.805c-0.537,1.326-1.097,2.647-1.678,3.954
				c-0.006,0.01-0.01,0.021-0.015,0.032c2.38,0.21,4.806-0.237,7.059-1.014c1.171-0.394,2.273-0.959,3.402-1.457
				c0.335-1.266,0.644-2.538,1.005-3.797c2.231-7.255,5.104-14.298,7.724-21.419c0.564-1.394,7.699-21.129,8.966-16.208
				c0.059,0.901,0.066,1.802,0.027,2.699c3.456,0.068,6.916-0.044,10.372-0.11c2.082-0.167,3.421,1.045,1.447,2.782
				c-1.49,1.379-3.499,2.002-5.389,2.626c-2.389,0.659-4.842,1.031-7.315,1.178c-0.311,1.485-0.674,2.96-1.037,4.423
				c3.724,1.922,10.621,1.914,14.191,1.726c9.698-0.773,14.185-2.952,18.814-11.744c0.931-2.119,2.001-4.198,3.315-6.099
				c-0.311,0.049-0.623,0.098-0.934,0.148c-0.961,0.335-2.304,0.508-2.652-0.744c-0.296-1.081,0.663-1.741,1.601-1.919
				C272.05,324.111,274.517,322.655,276.88,321.078z M312.053,193.451c2.259-0.695,4.598-0.838,6.882-0.529
				c-4.194-2.338-8.962-3.643-13.773-3.4c-2.482,0.17-4.919,0.766-7.207,1.745c-0.095,0.045-0.191,0.084-0.29,0.119
				c0.002,0.343,0.015,0.688,0.037,1.031c0.096,1.051,0.294,2.08,0.566,3.092c1.39,2.02,2.314,4.336,2.805,6.752
				C303.687,198.259,306.961,194.997,312.053,193.451z M324.496,219.602c-1.397-6.175-0.418-12.93,3.077-17.975
				c-2.514-1.362-5.263-2.299-8.117-2.55c-3.689-0.22-7.426,1.002-10.274,3.355c-0.218,0.206-0.43,0.419-0.634,0.638
				c-0.237,1.864-0.416,3.736-0.538,5.613c-0.377,5.781-0.093,11.581,0.308,17.352c0.105,2.22,0.254,4.46,0.43,6.714
				c4.023-4.78,8.691-9.091,14.099-12.243C323.387,220.204,323.934,219.882,324.496,219.602z M330.017,232.764
				c-0.51-1.821-1.227-3.401-2.711-4.914c-0.516-0.587-1.047-1.162-1.592-1.725c-0.025,0.022-0.051,0.043-0.076,0.065
				c-5.213,4.368-10.544,8.605-15.953,12.729c-0.108,0.068-0.235,0.159-0.378,0.266c0.388,4.181,0.814,8.396,1.172,12.618
				c1.323-1.577,2.584-2.98,3.378-3.949C318.814,242.386,324.204,237.31,330.017,232.764z M331.767,219.133
				c1.815,5.919,6.454,9.971,12.283,9.783c-10.121-6.773-9.377-19.181-1.391-26.944c-0.412-0.428-0.733-0.931-0.975-1.485
				c-2.449,1.028-6.024,1.849-8.283,5.432C330.91,209.616,330.401,214.928,331.767,219.133z M344.104,429.348
				c3.194-2.875,3.817-7.693,2.933-11.719c-0.74-4.252-3.137-7.94-5.925-11.149c-10.512-11.105-28.029-18.054-42.292-23.101
				c-0.13-0.045-0.25-0.087-0.374-0.13c-3.568-1.333-7.315-2.192-10.9-3.467c-2.248,3.96-6.164,7.197-10.41,9.059
				c-4.874,2.225-10.364,2.792-15.67,2.444c-3.175-0.27-6.478-1.033-9.409-2.454c-0.715,0.416-1.423,0.854-2.094,1.337
				c-0.009,0.05-0.019,0.099-0.026,0.148c-0.579,2.657-1.286,5.282-1.855,7.941c-1.373,7.845-1.845,16.986,3.058,23.737
				c3.982,4.346,12.369,4.925,17.97,5.773c12.715,1.288,25.446,2.433,38.158,3.75c7.781,0.688,16.186,1.589,23.74,0.975
				c-0.138,0.009-0.275,0.018-0.413,0.027C334.886,431.945,340.63,432.147,344.104,429.348z M427.534,220.652
				c0.924-3.694-1.443-7.109-4.16-9.382c-5.023-4.086-11.364-5.916-17.638-7.183c-2.742,1.328-5.589,2.434-8.431,3.527
				c-1.668,0.645-3.338,1.288-4.944,2.08c-0.565,0.201-1.281,1.036-1.777,0.311c-0.193-0.329-0.012-0.791,0.341-0.898
				c0.057-0.047,0.113-0.094,0.171-0.143c3.719-3.511,7.237-7.34,11.791-9.807c1.984-1.04,4.022-2.317,6.318-2.407
				c1.092-0.393,2.362,0.092,2.815,1.181c0.427,1.005,0.007,2.126-0.887,2.699c5-0.059,10.2,1.491,14.417,4.346
				c0.884-0.964,1.615-2.05,1.835-3.387c1.101-5.986-7.413-9.719-12.11-11.018c-5.203-1.358-10.613-1.657-15.951-2.117
				c-7.521-0.462-15.045-0.905-22.564-1.363c-1.341,0.417-1.748-1.708-0.289-1.805c3.059-1.109,6.238-1.846,9.452-2.37
				c0.02-0.051,0.038-0.103,0.055-0.156c1.372-3.811,2.453-7.824,2.84-11.873c0.411-5.187-1.532-11.007-6.683-13.086
				c-4.006-1.262-8.691,1.609-9.402,5.749c-0.622,4.449,1.216,8.977-0.072,13.394c-0.854,3.545-3.281,6.608-6.621,8.112
				c-3.13,1.794-6.835,2.047-10.058,3.6c-4.13,1.947-7.997,5.397-8.926,9.973c1.106-0.65,2.29-1.226,3.548-1.715
				c7.767-3.196,17.039-2.62,24.259,1.715c1.582,0.978,3.015,2.284,4.009,3.848c0.443,1.002-0.964,1.867-1.653,1.017
				c-8.125-1.97-17.235-3.281-25.031,0.519c-7.068,3.157-12.239,12.625-5.299,18.623c6.248,4.746,14.763,3.645,22.008,2.368
				c5.154-0.911,10.271-2.26,15.532-2.345c5.371-0.055,10.869,0.689,15.846,2.773c2.38,0.994,4.599,2.348,6.755,3.749
				c2.864,1.723,5.721,4.257,9.253,4.111c3.544-0.254,3.527-5.596,2.183-7.966c-1.84-3.536-5.545-5.519-9.161-6.829
				c-4.68-1.623-9.576-2.45-14.434-3.345c-0.975-0.115-1.9-0.433-2.844-0.655c-1.163,0.071-2.461-0.029-2.526-1.49
				c-0.009-1.09,1.035-1.579,1.996-1.518c0.628,0.014,1.172-0.287,1.75-0.468c0.944-0.181,1.887-0.375,2.837-0.521
				c9.465-1.432,20.28,0.928,26.685,8.448c1.452,1.644,2.424,3.549,2.953,5.521C426.681,223.419,427.128,222.335,427.534,220.652z
				 M434.276,197.876c0.726,3.745,0.064,8.17-3.12,10.622c-0.312,0.207-0.632,0.439-0.959,0.677c1.561,1.895,2.771,4.07,3.494,6.49
				c1.431,5.121-1.082,14.146-7.391,14.268c-0.068-0.025-0.137-0.049-0.206-0.07c-0.768,6.104-5.598,11.139-13.305,9.05
				c-4.414-1.336-7.991-4.416-12.089-6.426c-5.398-2.701-11.546-3.607-17.536-3.349c-11.028,0.964-22.41,6.073-33.34,2.553
				c-0.314,0.504-0.715,0.959-1.111,1.342c-3.017,2.697-7.351,2.785-11.137,1.699c-0.371,0.346-0.785,0.661-1.164,0.984
				c-1.366,1.14-2.689,2.328-3.989,3.54c-6.018,5.313-12.079,10.582-17.824,16.193c-1.205,1.147-2.393,2.314-3.597,3.462
				c0.976,16.403,0.053,32.64-8.885,46.999c-5.519,8.427-12.724,16.822-22.432,20.057c-0.124,0.212-0.251,0.42-0.387,0.623
				c-1.722,2.563-2.665,5.491-3.815,8.325c-0.528,1.283-1.156,2.521-1.853,3.719c0.17,1.162,0.273,2.232,0.371,2.723
				c0.5,5.57,1.082,11.141,1.358,16.709c5.619-0.008,10.763,4.275,13.031,9.248c1.039,2.422,1.319,4.813,1.015,7.087
				c5.782,0.582,11.361,2.509,16.844,4.364c12.833,4.589,25.851,10.097,36.149,19.225c6.627,5.703,11.973,13.698,12.208,22.67
				c0.052,5.032-1.633,10.327-5.411,13.788c-2.945,2.863-7.018,3.935-10.984,4.461c-4.952,0.731-9.523,1.063-14.436,0.977
				c-12.714-0.457-25.237-2.078-37.879-3.276c-10.117-1.074-20.433-1.309-30.285-4.055c-3.597-1.058-7.157-2.778-9.591-5.712
				c-6.547-8.345-6.719-20.005-4.878-30.023c0.383-2.492,2.487-9.447,5.438-12.045c-0.281-0.316-0.55-0.645-0.805-0.989
				c-3.707-5.117-3.939-12.214-0.824-17.67c1.425-2.711,3.86-4.887,6.738-5.943c1.078-0.389,2.456-0.654,3.742-0.552
				c0.03-0.994,0.072-1.988,0.127-2.981c0.086-1.574,0.205-3.147,0.384-4.712c-3.24,0.663-6.606,0.884-9.875,0.884
				c-0.803,0-1.6-0.014-2.388-0.038c-3.535-0.24-7.202-0.595-10.51-1.928c-0.95,3.322-1.958,6.628-3.06,9.903
				c1.417,0.928,2.658,2.458,3.682,3.509c4.5,4.439,4.606,11.557,1.657,16.883c-0.677,1.235-1.464,2.368-2.344,3.404
				c1.078,1.708,1.944,3.549,2.783,5.384c3.309,7.28,4.923,15.378,3.328,23.305c-1.047,6.081-3.361,11.553-8.131,15.632
				c-6.19,5.411-14.968,6.65-22.876,7.474c-20.752,1.694-41.78,6.057-62.568,2.721c-9.809-1.802-17.694-6.198-17.821-17.249
				c0.185-7.809,5.513-16.665,11.262-21.758c5.161-4.702,11.788-7.363,18.521-8.896c3.833-0.958,7.756-1.561,11.701-1.75
				c3.193-2.258,7.374-4.503,8.47-5.123c0.006-0.003,0.01-0.006,0.015-0.008c3.102-1.658,6.215-3.295,9.597-4.304
				c0.399-0.151,0.85-0.326,1.323-0.484c-0.498-4.074,0.903-8.547,4.859-12.731c2.988-3.007,9.457-8.017,14.178-7.11
				c1.494-4.978,3.028-9.946,4.753-14.821c0.258-0.754,1.556-4.449,3.095-8.366c-21.087-6.799-35.105-23.785-41.792-45.947
				c-1.279-3.892-2.181-7.854-2.855-11.858c-3.702,1.96-7.769,3.891-10.828,4.724c-0.865,2.6-2.594,4.96-5.369,5.551
				c-0.737-0.001-1.467,0.297-2.192,0.474c-1.354,5.843-5.111,11.128-8.873,15.744c-3.321,4.023-6.952,7.832-9.557,12.386
				c-1.295,2.355-2.567,4.756-3.233,7.376c-2.066,7.981-0.515,16.597-3.783,24.306c-2.002,4.674-6.271,9.366-11.78,8.832
				c-2.46-0.128-4.532-0.883-6.45-2.138c-2.158,2.398-5.363,4.01-8.628,3.697c-3.348-0.141-6.265-2.291-8.151-4.951
				c-1.123-1.72-1.905-3.556-2.403-5.46c-0.463,0.009-0.916-0.042-1.327-0.159c-7.614-1.921-11.064-10.716-11.279-17.9
				c-0.336-10.685,3.436-21.291,10.07-29.624c-2.441,0.406-4.993,0.266-7.364-0.306c-7.274-1.669-13.065-7.992-14.096-15.384
				c-1.269-7.531,2.427-15.973,10.071-18.327c6.278-2.273,12.361,0.998,16.361,5.827c2.326,2.551,4.321,4.055,7.406,1.51
				c5.162-3.94,10.062-8.961,16.798-9.87c1.938-0.233,4.004-0.392,5.937,0.004c0.446-2.693,2.605-4.825,4.936-6.165
				c4.313-2.58,9.174-2.769,13.83-1.425c-2.565-7.983-6.984-15.307-8.968-23.501c-1.052-4.407-1.539-9.105-0.523-13.563
				c0.779-3.005,1.785-6.015,3.68-8.514c2.512-3.199,5.391-6.079,8.718-8.249c2.445-1.603,5.1-2.965,7.959-3.643
				c1.457-0.341,2.94-0.57,4.421-0.779c3.632-0.561,7.31-0.332,10.941,0.146c-0.769-2.923-0.933-5.999-0.551-9.021
				c-0.036-0.109-0.071-0.218-0.107-0.326c-1.279-3.988-2.124-8.088-3.061-12.163c-1.23-4.879-2.757-9.703-4.622-14.389
				c-2.879,4.545-8.725,7.172-14.018,5.771c-2.737-0.312-11.024-3.31-6.467-6.636c3.077-1.035,5.593-3.658,5.675-7.027
				c0.162-3.615-0.118-7.251,0.28-10.854c0.677-4.126,2.842-8.221,6.228-10.741c5.93-4.368,14.345-5.466,20.869-1.772
				c1.35,0.73,2.751,1.727,3.9,2.928c1.2-4.903,4.057-9.564,7.157-13.38c-1.732-3.597-1.033-8.203,0.247-11.854
				c1.691-3.76,4.549-6.738,7.461-9.554c-0.945-2.913,0.481-5.886,1.856-8.419c2.371-3.588,7.156-5.418,11.199-6.391
				c1.838-3.369,7.787-5.734,11.011-3.147c0.082,0.099,0.157,0.194,0.223,0.287c0.408-0.307,0.823-0.541,1.212-0.673
				c1.855-0.789,3.748,0.348,5.506,0.849c2.204-1.412,3.842-2.739,6.66-2.049c1.703,0.471,3.325,1.336,4.54,2.636
				c0.988,0.883,1.829,1.935,2.109,3.258c1.756,0.999,3.92,0.33,5.829,0.742c2.152,0.452,4.23,1.474,5.799,3.027
				c1.54,1.558,2.157,3.736,2.555,5.83c0.106,0.756,0.232,1.534,0.291,2.309c3.536-0.096,6.667,2.197,9.031,4.635
				c4.632,4.511,7.16,10.414,6.223,16.908c3.753,0.988,6.565,3.424,8.533,6.552c0.098-0.256,0.203-0.506,0.313-0.749
				c2-5.853,7.502-9.026,13.552-8.765c3.659,0.106,7.076,1.496,10.447,2.78c3.454,1.135,7.468,2.698,10.725,0.241
				c1.247-0.777,2.511-2.772,4.117-1.597c1.828,1.364,1.05,7.895,0.401,9.918c-2.027,6.913-8.996,9.817-15.563,10.765
				c-7.207,1.064-8.436,9.378-9.163,15.439c2.17,4.957,3.029,10.581,1.696,15.826c0.165,1.534,2.445,1.979,3.286,3.22
				c2.999,3.126,3.847,7.229,3.808,11.406c1.528-0.835,3.283-1.303,4.97-1.605c9.534-1.626,19.578,2.684,25.711,10.011
				c1.265,1.49,2.503,3.027,3.532,4.693c1.556-1.322,3.384-2.401,5.489-3.155c1.463-0.393,3.545-0.726,5.256-0.401
				c0.103-0.419,0.229-0.822,0.372-1.198c2.072-5.526,6.989-9.454,12.268-11.77c2.319-1.046,4.849-1.442,7.252-2.23
				c3.227-1.083,4.522-2.768,4.754-6.166c0.107-3.986-0.671-8.069,0.496-11.964c1.654-6.176,7.471-10.855,13.915-10.827
				c3.913-0.141,7.424,2.019,10.155,4.643c6.718,6.717,6.913,18.547,2.269,26.482c-0.124,0.176-0.248,0.354-0.372,0.532
				c12.042-0.492,25.717-0.654,35.744,6.849C431.226,191.127,433.62,194.228,434.276,197.876z"/>
			<path style="fill:#1B1818;" d="M194.112,122.09c0.042,0.423-0.164,0.782-0.345,1.146c-0.214,0.464-0.404,0.931-0.578,1.409
				c-0.777,2.444-1.25,4.979-1.462,7.533c-0.069,1.46-0.04,2.917,0.044,4.375c0.074,2.082,0.682,4.138,0.589,6.223
				c-0.064,1.41-0.831,2.21-1.906,3.006c-0.539,0.485-1.008,1.035-1.428,1.625c-0.905,1.432-1.614,2.979-2.217,4.559
				c-0.473,1.443-0.624,2.952-0.764,4.455c-0.315,4.501,0.741,8.953,2.001,13.242c1.093,2.784-2.712,4.72-4.322,2.165
				c-3.497-5.371-4.197-9.385-2.602-15.61c0.888-3.502,2.836-6.62,4.991-9.479c0.729-1.007,1.609-1.908,2.229-2.991
				c-0.671-1.048-1.119-2.199-1.356-3.42c-0.659-2.637-1.099-5.382-0.83-8.103c0.393-3.469,2.088-8.411,5.18-10.308
				C192.093,121.362,193.753,120.898,194.112,122.09z"/>
			<path style="fill:#1B1818;" d="M212.22,113.75c0.325,0.84,0.569,1.732,0.455,2.64c-0.066,1.353-1.037,1.98-1.922,2.817
				c-0.581,0.705-0.931,1.56-1.248,2.409c-0.384,1.351-0.473,2.779-0.416,4.178c0.113,1.132,0.497,2.211,0.832,3.29
				c0.332,0.937,0.656,1.88,0.717,2.876c0.551,0.87,0.359,2.055-0.462,2.687c-0.769,0.593-1.976,0.56-2.652-0.171
				c-0.329-0.39-0.759-0.653-1.13-0.998c-0.967-0.943-1.194-2.355-1.471-3.619c-0.891-4.561,1.096-8.851,3.653-12.507
				c-0.821-1.026-1.364-2.231-1.624-3.521c-0.879-3.367-0.677-6.801,1.323-9.738c0.389-0.673,1.415-2.013,2.184-1.118
				c0.245,0.513-0.122,1.058-0.2,1.573c-0.158,1.072-0.123,2.176,0.07,3.241C210.827,109.815,211.559,111.775,212.22,113.75z"/>
			<path style="fill:#1B1818;" d="M202.983,94.763c0.682,2.019,1.831,4.549,0.258,6.436c-0.504,0.636-1.277,0.898-1.926,1.345
				c-1.04,0.712-1.963,1.591-2.687,2.623c-1.614,2.361-1.745,4.766-1.164,7.494c0.097,0.54,0.188,1.065,0.13,1.618
				c-0.095,0.652-0.353,1.278-0.083,1.926c0.486,1.733-1.455,3.254-3.013,2.316c-1.105-0.62-1.014-2.036-1.578-3.032
				c-0.632-1.189-0.354-2.55-0.106-3.807c0.259-1.277,0.735-2.503,1.394-3.628c0.926-1.644,1.934-3.242,3.101-4.726
				c0.585-0.736,1.23-1.422,1.77-2.193c0.105-0.182,0.251-0.354,0.285-0.566c-0.165-0.543-0.368-1.078-0.447-1.643
				c-0.168-1.29,0.05-2.616,0.383-3.861c0.314-1.076,0.875-2.079,1.706-2.839c0.345-0.335,0.788-0.735,1.305-0.665
				c0.377,0.052,0.596,0.389,0.569,0.75C202.686,93.113,202.705,93.977,202.983,94.763z"/>
			<path style="fill:#1B1818;" d="M224.251,97.039c1.088,2.2-1.109,4.569-3.258,3.085c-1.093-0.826-1.444-2.282-1.673-3.568
				c-0.326-2.552,0.67-5.202,2.487-7.001c0.31-0.283,0.749-0.711,1.209-0.623c0.596,0.116,0.469,0.735,0.309,1.159
				C222.681,92.423,223.232,94.9,224.251,97.039z"/>
			<path style="fill:#1B1818;" d="M227.041,114.22c0.495,0.673,0.821,1.5,0.664,2.346c-0.126,0.861-0.7,1.607-1.51,1.938
				c-0.475,0.137-0.745,0.574-1.019,0.954c-0.623,1.027-1.059,1.884-1.321,3.015c-0.496,2.886,1.513,5.356,2.074,8.08
				c0.174,0.882,0.315,1.697,0.22,2.566c-0.143,1.083-1.365,1.815-2.377,1.353c-5.364-2.989-2.425-12.719-0.55-17.201
				c-1.63-1.958-2.434-4.605-2.206-7.142c0.251-1.844,0.799-4.203,2.274-5.445c0.49-0.35,1.303-0.809,1.869-0.356
				c0.635,0.536,0.129,1.964,0.143,2.722c-0.065,1.054,0.066,2.107,0.251,3.143c0.196,0.812,0.57,1.566,0.842,2.354
				C226.6,113.106,226.793,113.677,227.041,114.22z"/>
			<path style="fill:#1B1818;" d="M245.524,108.469c0.629,2.279,1.428,5.179-0.053,7.263c-0.803,0.799-1.66,1.934-2.931,1.738
				c-1.352-0.14-1.734-1.483-2.199-2.536c-0.538-1.349-0.065-2.766,0.013-4.154c0.036-2.386-0.911-4.895-2.29-6.824
				c-0.796-1.033-1.99-1.394-3.234-1.534c-3.197-0.926-4.017-3.67-3.638-6.694c0.024-1.005-0.021-2.015-0.296-2.985
				c-0.663-0.731-0.174-1.697,0.723-1.9c4.596-0.975,5.068,4.883,5.283,8.079C240.591,101.248,244.031,104.233,245.524,108.469z"/>
			<path style="fill:#1B1818;" d="M258.921,151.632c0.118,0.881-0.134,1.718-0.431,2.532c-0.077,0.559-0.04,1.126-0.052,1.69
				c-0.14,3.056-4.486,3.063-4.629,0c-0.02-0.49,0.015-1.007-0.159-1.472c-0.342-0.583-0.667-1.227-0.732-1.911
				c-0.35-2.773-0.988-5.545-2.58-7.888c-0.649-1.036-1.678-1.701-2.65-2.397c-1.728-1.341-1.174-3.707-0.979-5.585
				c0.119-1.099,0.144-2.202,0.072-3.306c-0.128-1.389-0.343-2.776-0.779-4.104c-0.438-1.135-1.053-2.189-1.69-3.223
				c-0.457-0.652-0.947-1.266-1.458-1.878c-0.4-0.501-1.092-1.019-0.736-1.731c0.85-1.331,2.775-1.129,4.073-0.65
				c1.77,0.638,3.16,1.999,4.277,3.474c1.732,2.412,2.629,5.473,2.573,8.435c-0.047,1.293-0.302,2.563-0.663,3.801
				c-0.317,0.956-0.501,1.981-1.035,2.847c2.296,1.281,4.606,2.603,5.84,5.044C258.201,147.263,258.815,149.428,258.921,151.632z"/>
			<path style="fill:#1B1818;" d="M266.512,134.398c0.473,1.83,0.717,3.738,0.642,5.628c-0.001,0.961-0.273,1.885-0.775,2.702
				c-0.249,1.387-1.545,2.434-2.957,2.228c-1.299-0.174-2.336-1.382-2.241-2.707c-0.585-1.263-0.426-2.681-0.384-4.031
				c0.064-1.21,0.196-2.414,0.292-3.622c0.047-0.908,0.06-1.82-0.113-2.717c-0.358-1.366-0.974-2.671-1.689-3.884
				c-0.861-1.312-2.221-2.258-3.676-2.807c-1.352-0.29-2.666-0.904-3.421-2.113c-0.828-1.182-0.704-2.767-0.608-4.108
				c0.146-2.278,0.405-4.55,0.241-6.834c-0.039-0.797-0.232-1.585-0.71-2.238c-0.132-0.248-0.408-0.376-0.41-0.692
				c0.401-1.562,2.475,0.929,2.926,1.458c0.788,0.912,1.4,1.973,1.91,3.06c0.773,1.614,1.224,3.361,1.521,5.12
				c0.297,1.104-0.17,2.533,0.811,3.346C261.895,125.365,265.325,129.287,266.512,134.398z"/>
			<path style="fill:#1B1818;" d="M230.129,154.699c1.143,1.605,0.023,3.946-2.057,3.431c-1.217-0.381-2.184-2.37-2.724-3.482
				c-0.937-3.466-0.16-8.274,3.305-10.019c1.08-0.006,0.795,0.79,0.566,1.501C228.315,149.072,230.098,151.794,230.129,154.699z"/>
			<path style="fill:#1B1818;" d="M286.658,185.208c0.072,1.812,0.479,3.823-0.509,5.458c-0.173,0.442-0.168,0.929-0.233,1.395
				c-0.179,1.74-2.498,2.511-3.694,1.243c-0.706-0.659-0.651-1.506-0.618-2.384c-0.001-0.293-0.217-0.515-0.314-0.779
				c-0.186-0.391-0.287-0.805-0.346-1.23c-0.56-5.717-0.282-12.711-5.032-16.793c-2.685-2.254-4.87-1.83-5.143-6.093
				c-0.036-5.112,1.748-11.098-1.802-15.451c-1.078-0.187-0.512-1.72,0.432-1.222c2.559,0.441,4.675,2.308,5.88,4.554
				c1.872,3.393,2.102,7.365,1.74,11.153c-0.039,0.919-0.271,1.809-0.679,2.635c0.823,0.997,1.847,1.81,2.795,2.684
				c1.958,1.753,3.651,3.814,4.957,6.098C285.542,179.16,286.365,182.177,286.658,185.208z"/>
			<path style="fill:#1B1818;" d="M247.498,307.919c0.189,0.556,0.637,1.356-0.101,1.694c-0.339,0.143-0.79-0.016-0.92-0.374
				c-1.406-3.578-2.976-7.098-4.632-10.568c-2.341-4.5-4.82-8.934-6.888-13.57c-4.206-8.914-7.442-18.355-12.773-26.693
				c-0.125-0.172-0.244-0.346-0.391-0.499c-0.289-0.146-0.005-0.598,0.269-0.4c0.387,0.313,0.673,0.732,0.992,1.11
				c2.718,3.467,5.359,6.992,7.984,10.53c6.486,9.156,11.316,19.474,14.017,30.37C245.858,302.3,246.664,305.164,247.498,307.919z"
				/>
		</g>
		<g>
			<path style="fill:#1B1818;" d="M241.274,191.813c0.069,0.701,0.059,1.402,0.053,2.106c-0.003,0.361-0.008,0.724-0.025,1.085
				c0.002,0.03,0.004,0.06,0.006,0.09c0.049,0.838-0.005,1.677-0.164,2.501c-0.068,0.355-0.155,0.707-0.256,1.054
				c-0.074,0.256-0.173,0.505-0.256,0.758c-0.152,0.462-0.346,0.904-0.606,1.317c-0.196,0.313-0.45,0.568-0.736,0.797
				c-0.294,0.237-0.653,0.376-1.012,0.481c-0.242,0.07-0.492,0.101-0.741,0.101c-0.298,0-0.597-0.044-0.884-0.114
				c-0.504-0.124-0.952-0.4-1.357-0.717c-0.839-0.654-1.488-1.519-2.045-2.415c-1.306-2.097-1.988-4.525-2.452-6.931
				c-0.22-1.144-0.394-2.296-0.442-3.462c-0.043-1.044-0.03-2.083,0.065-3.123c0.122-1.328,0.392-2.634,1.04-3.812
				c0.275-0.499,0.662-0.955,1.124-1.291c0.483-0.353,1.049-0.537,1.646-0.545c1.061-0.013,1.987,0.618,2.706,1.342
				c0.581,0.585,1.061,1.265,1.484,1.971c0.312,0.523,0.569,1.072,0.844,1.615c0.292,0.577,0.551,1.168,0.78,1.774
				c0.16,0.425,0.296,0.856,0.403,1.207c0.098,0.315,0.209,0.626,0.297,0.943c0.099,0.357,0.167,0.719,0.231,1.084
				C241.104,190.355,241.2,191.081,241.274,191.813z"/>
			<path style="fill:#1B1818;" d="M259.854,191.813c0.069,0.701,0.059,1.402,0.053,2.106c-0.003,0.361-0.008,0.724-0.025,1.085
				c0.002,0.03,0.004,0.06,0.006,0.09c0.049,0.838-0.005,1.677-0.164,2.501c-0.068,0.355-0.155,0.707-0.256,1.054
				c-0.074,0.256-0.173,0.505-0.256,0.758c-0.152,0.462-0.346,0.904-0.606,1.317c-0.196,0.313-0.45,0.568-0.736,0.797
				c-0.294,0.237-0.653,0.376-1.012,0.481c-0.242,0.07-0.491,0.101-0.741,0.101c-0.298,0-0.597-0.044-0.884-0.114
				c-0.504-0.124-0.952-0.4-1.357-0.717c-0.839-0.654-1.488-1.519-2.045-2.415c-1.306-2.097-1.988-4.525-2.452-6.931
				c-0.22-1.144-0.394-2.296-0.442-3.462c-0.043-1.044-0.03-2.083,0.065-3.123c0.122-1.328,0.392-2.634,1.04-3.812
				c0.275-0.499,0.662-0.955,1.124-1.291c0.483-0.353,1.049-0.537,1.646-0.545c1.061-0.013,1.987,0.618,2.706,1.342
				c0.581,0.585,1.061,1.265,1.484,1.971c0.312,0.523,0.569,1.072,0.844,1.615c0.292,0.577,0.551,1.168,0.78,1.774
				c0.159,0.425,0.296,0.856,0.403,1.207c0.098,0.315,0.209,0.626,0.297,0.943c0.099,0.357,0.167,0.719,0.231,1.084
				C259.683,190.355,259.78,191.081,259.854,191.813z"/>
			<g>
				<path style="fill:#A63D51;" d="M268.206,207.988c0.684-0.808,1.265-1.691,1.744-2.627c-0.43,3.997-1.093,7.973-2.076,11.871
					c-1.328,5.393-3.801,10.619-7.929,14.43c-0.201,0.173-0.404,0.343-0.612,0.509c-0.998-2.667-2.955-5.085-5.115-6.948
					c-2.676-2.133-6.368-3.141-9.719-2.272c-0.959,0.277-2.023,0.734-2.714,1.496c-1.505-1.693-3.41-3.029-5.543-3.83
					c-2.858-1.066-6.552-0.813-8.856,1.294c-1.312-2.871-2.308-5.908-3.122-8.901c-0.743-2.856-1.393-5.737-1.784-8.663
					c3.388,6.489,10.846,10.619,17.703,12.428C250.19,218.859,261.368,215.742,268.206,207.988z"/>
				<path style="fill:#FF9DA9;" d="M247.207,226.787c4.993,1.171,6.481,3.595,9.628,7.109c-4.057,2.395-8.912,3.445-13.568,2.5
					c-2.465-0.563-4.783-1.696-6.908-3.047c-3.314-2.32-5.793-5.431-7.704-8.906c0.158-0.041,0.318-0.078,0.479-0.108
					c1.511-0.311,3.06-0.253,4.569,0.048c3.237,0.611,5.719,2.295,8.144,4.44c0.997,0.841,1.845,1.826,2.529,2.94
					c0.436,0.694,1.475,0.158,1.175-0.589c-0.503-1.1-1.011-2.193-1.509-3.294c-0.151-0.324-0.314-0.643-0.489-0.955
					C244.753,226.654,245.993,226.523,247.207,226.787z"/>
				<path style="fill:#1B1818;" d="M256.835,233.897c-3.147-3.514-4.634-5.939-9.628-7.109c-1.214-0.264-2.454-0.133-3.654,0.139
					c0.174,0.311,0.338,0.63,0.489,0.955c0.498,1.101,1.006,2.194,1.509,3.294c0.3,0.747-0.739,1.283-1.175,0.589
					c-0.684-1.113-1.532-2.098-2.529-2.94c-2.425-2.145-4.907-3.829-8.144-4.44c-1.508-0.301-3.058-0.358-4.569-0.048
					c-0.161,0.03-0.321,0.067-0.479,0.108c1.911,3.475,4.39,6.585,7.704,8.906c2.124,1.352,4.443,2.485,6.908,3.047
					C247.922,237.342,252.777,236.291,256.835,233.897z M269.949,205.361c-0.478,0.936-1.06,1.82-1.744,2.627
					c-6.837,7.754-18.016,10.871-28.023,8.789c-6.857-1.809-14.316-5.94-17.703-12.428c0.391,2.925,1.041,5.807,1.784,8.663
					c0.814,2.993,1.81,6.03,3.122,8.901c2.303-2.107,5.998-2.36,8.856-1.294c2.133,0.801,4.038,2.137,5.543,3.83
					c0.691-0.762,1.756-1.219,2.714-1.496c3.35-0.869,7.043,0.139,9.719,2.272c2.16,1.863,4.118,4.281,5.115,6.948
					c0.207-0.166,0.411-0.336,0.612-0.509c4.128-3.811,6.601-9.037,7.929-14.43C268.857,213.334,269.52,209.358,269.949,205.361z
					 M274.139,196.238c0.25,0.497,0.471,1.04,0.321,1.603c-0.196,0.67-0.848,1.13-1.537,1.288c0.022,0.324,0.034,0.648,0.048,0.972
					c0.208,2.29,0.237,4.593,0.105,6.888c-0.498,8.232-2.748,16.505-7.441,23.363c-4.405,6.687-12.462,10.052-20.293,9.424
					c-2.574-0.152-5.068-0.856-7.369-2.01c-3.476-1.53-6.43-4.06-8.886-6.926c-3.212-3.91-5.387-8.545-6.919-13.344
					c-1.002-3.113-2.806-10.523-2.174-14.784c-0.241,0.005-0.49-0.025-0.746-0.098c-2.29-0.697-2.171-3.679-0.14-4.652
					c1.845-1.005,4.031-1.548,6.131-1.288c0.511,0.098,1.421,0.135,1.498,0.786c-0.069,0.602-0.749,0.944-1.133,1.352
					c-0.572,0.523-1.157,1.031-1.768,1.51c0.598,0.874,1.09,1.829,1.699,2.694c0.607,0.868,1.262,1.699,1.95,2.503
					c7.765,8.391,20.432,11.335,30.799,6.154c2.731-1.367,5.354-3.114,7.078-5.689c1.415-2.392,2.813-5.01,3.272-7.784
					c-1.119-0.366-2.226-0.774-3.321-1.202c-1.596-0.657,0.169-1.912,1.075-2.173c1.768-0.674,3.768-0.629,5.522,0.068
					C272.714,195.218,273.676,195.431,274.139,196.238z"/>
			</g>
			<path style="fill:#FFFFFF;" d="M238.02,189.837c-3.03-0.336-5.679-2.559-2.504-5.07c0.899-0.699,1.906-1.306,3.03-1.544
				c1.086,1.983,1.996,4.119,2.417,6.332C240.015,189.869,239.01,189.954,238.02,189.837z"/>
			<path style="fill:#FFFFFF;" d="M256.669,188.404c-5.301-0.745-5.319-4.924-0.382-6.469c1.369,1.905,2.31,4.163,2.973,6.388
				C258.416,188.499,257.523,188.51,256.669,188.404z"/>
		</g>
	</g>
</g>
</svg>
