<?xml version="1.0" encoding="utf-8"?>
<!-- Generator: Adobe Illustrator 27.5.0, SVG Export Plug-In . SVG Version: 6.00 Build 0)  -->
<svg version="1.1" xmlns="http://www.w3.org/2000/svg" xmlns:xlink="http://www.w3.org/1999/xlink" x="0px" y="0px"
	 viewBox="0 0 500 500" style="enable-background:new 0 0 500 500;" xml:space="preserve">
<g id="Background_Simple">
	<g id="background-simple--inject-1">
		<path style="fill:#C6FF00;" d="M74.387,206.561c-12.174,33.615-12.888,69.073,9.222,99.381
			c32.014,43.882,86.524,42.672,128.803,56.477c22.123,7.227,35.838,26.931,54.962,38.926c59.22,37.146,141.701-9.381,168.86-66.045
			C490.345,222.404,374.62,82.236,261.005,69.638c-33.551-3.72-67.957,6.406-96.097,24.531
			C125.709,119.417,90.313,162.583,74.387,206.561z"/>
		<path style="opacity:0.7;fill:#FFFFFF;" d="M74.387,206.561c-12.174,33.615-12.888,69.073,9.222,99.381
			c32.014,43.882,86.524,42.672,128.803,56.477c22.123,7.227,35.838,26.931,54.962,38.926c59.22,37.146,141.701-9.381,168.86-66.045
			C490.345,222.404,374.62,82.236,261.005,69.638c-33.551-3.72-67.957,6.406-96.097,24.531
			C125.709,119.417,90.313,162.583,74.387,206.561z"/>
	</g>
</g>
<g id="Shape">
	<g>
		<g>
			<ellipse style="fill:#C6FF00;" cx="239.318" cy="415.477" rx="184.932" ry="22.319"/>
			<ellipse style="opacity:0.2;" cx="239.318" cy="415.477" rx="184.932" ry="22.319"/>
		</g>
		<g id="Plants--inject-125_3_">
			<path style="fill:#C6FF00;" d="M409.941,318.331c1.577-1.313,3.227-3.573,3.145-6.035c-0.082-2.461-1.86-4.713-4.057-4.612
				c-3.045,0.137-5.533,5.551-5.989,8.605c-0.046,0.301-0.246,4.558-0.191,4.558C402.849,320.847,408.063,319.908,409.941,318.331z"
				/>
			<path style="fill:#C6FF00;" d="M411.983,394.967c0.547,0.355,4.923,3.2,7.183,3.5c2.051,0.301,4.667,0,5.998-1.823
				c1.353-1.989,1.013-4.674-0.793-6.262c-2.607-2.179-7.703-0.292-9.809,1.531c-0.128,0.119-1.568,1.696-2.288,2.516
				c0.41-0.83,0.857-1.659,1.322-2.516c0.647-1.24,1.376-2.525,2.078-3.774l1.167-1.905c0.383-0.629,0.82-1.194,1.231-1.823
				c0.629-0.893,1.313-1.759,1.996-2.671c1.13,0.984,4.412,3.783,6.436,4.403c2.024,0.62,4.695,0.775,6.272-0.757
				c1.612-1.762,1.612-4.464,0-6.226c-2.315-2.58-7.685-1.613-10.027-0.246c-0.073,0.046-0.538,0.401-1.085,0.829
				c0.693-0.839,1.377-1.677,2.115-2.498c2.024-2.352,4.202-4.613,6.381-6.91l1.34-1.449c0.948,0.848,4.585,3.929,6.609,4.558
				c2.024,0.629,4.695,0.784,6.262-0.757c1.638-1.752,1.638-4.474,0-6.226c-2.315-2.58-7.684-1.614-10.027-0.237
				c-0.091,0.046-0.638,0.474-1.258,0.957c1.167-1.276,2.315-2.561,3.409-3.883c1.917-2.279,3.666-4.695,5.232-7.229
				c0.337,0.301,4.503,4.002,6.782,4.704c2.033,0.629,4.704,0.784,6.272-0.748c1.617-1.764,1.617-4.471,0-6.235
				c-2.315-2.58-7.685-1.604-10.027-0.237c-0.164,0.1-2.151,1.65-2.844,2.233l0.064-0.091c1.527-2.613,2.814-5.359,3.847-8.204
				c0.966-2.59,1.788-5.231,2.461-7.912c0.656-2.507,1.112-4.859,1.513-6.937c0.201-1.139,0.374-2.179,0.52-3.154v0.064
				c0.036,0.055,2.115-3.273,2.215-3.51c1.258-2.662,2.233-8.851,0.064-11.586c-0.211-0.314-0.473-0.589-0.777-0.814
				c-1.468-1.089-3.54-0.781-4.629,0.687c-1.367,1.741-1.322,4.804-0.82,7.21c0.501,2.407,3.136,6.709,3.792,7.767
				c-0.164,1.012-0.365,2.078-0.602,3.263c-0.428,2.06-0.939,4.394-1.641,6.855c-0.182,0.665-0.401,1.358-0.611,2.042
				c0.137-1.258,0.292-2.99,0.292-3.163c0-3.154-1.623-9.444-4.558-10.857c-2.088-1.057-4.111,0.346-4.558,2.735
				c-0.447,2.388,0.784,5.15,2.197,7.174c1.413,2.024,5.424,4.685,6.335,5.26c-0.474,1.495-0.993,3.017-1.622,4.558
				c-1.082,2.777-2.416,5.45-3.984,7.985l-0.155-0.1c0.246-1.121,0.729-3.509,0.729-3.719c0.283-3.108-0.766-9.498-3.583-11.258
				c-2.024-1.267-4.202-0.164-4.877,2.133c-0.675,2.297,0.355,5.26,1.531,7.338c1.349,2.388,5.843,5.962,6.016,6.098
				c-1.58,2.395-3.322,4.68-5.214,6.837c-1.386,1.586-2.844,3.118-4.321,4.64c0.191-0.784,0.829-3.92,0.829-4.148
				c0.283-3.108-0.766-9.499-3.583-11.267c-2.024-1.267-4.202-0.109-4.877,2.142c-0.675,2.252,0.355,5.214,1.522,7.293
				c1.322,2.334,5.615,5.779,5.98,6.071l-2.015,2.06c-2.224,2.206-4.448,4.476-6.591,6.764c-0.738,0.793-1.44,1.604-2.142,2.416
				c0.246-1.185,0.693-3.364,0.693-3.555c0.292-3.108-0.766-9.499-3.583-11.267c-2.024-1.267-4.202-0.119-4.877,2.142
				c-0.675,2.261,0.337,5.205,1.531,7.293c1.194,2.087,4.74,5.068,5.752,5.889c-1.167,1.367-2.288,2.753-3.336,4.184
				c-0.401,0.629-0.93,1.24-1.313,1.869l-1.203,1.878c-0.784,1.313-1.513,2.534-2.206,3.783c-0.356,0.602-0.675,1.203-1.012,1.823
				c0.419-1.139,1.094-2.962,1.094-3.136c0.693-2.972,0.483-9.38-2.115-11.586c-0.307-0.286-0.667-0.509-1.06-0.656
				c-1.655-0.619-3.499,0.222-4.117,1.877c-0.123,0.267-0.221,0.544-0.292,0.83c-1.839,1.745-3.182,3.947-3.892,6.381
				c-0.046,0.191-0.41,2.516-0.565,3.719c-0.064-1.021-0.137-2.033-0.191-3.09c-0.082-1.522-0.137-3.136-0.191-4.694
				c0-0.811,0.018-1.604,0-2.443c-0.018-0.839,0.073-1.623,0.073-2.443c0.055-1.194,0.164-2.425,0.273-3.646
				c1.349,0.146,5.196,0.538,7.11-0.21c1.914-0.747,4.084-2.37,4.558-4.695c0.474-2.324-0.766-4.986-2.963-5.57
				c-3.054-0.802-6.764,3.5-7.931,6.235c-0.036,0.082-0.228,0.702-0.447,1.431c0.137-1.194,0.273-2.388,0.447-3.582
				c0.492-3.4,1.085-6.828,1.668-10.273c0.128-0.72,0.237-1.44,0.355-2.151c1.112,0.128,5.369,0.547,7.293-0.191
				c1.923-0.738,4.084-2.352,4.558-4.686c0.474-2.334-0.766-4.995-2.963-5.57c-3.054-0.802-6.764,3.491-7.922,6.226
				c-0.046,0.1-0.273,0.829-0.52,1.65c0.292-1.878,0.565-3.756,0.784-5.633c0.398-3.251,0.599-6.524,0.602-9.799
				c0.401,0.055,5.424,0.684,7.53-0.155c1.923-0.747,4.075-2.37,4.558-4.695c0.483-2.324-0.766-4.986-2.963-5.57
				c-3.054-0.802-6.764,3.5-7.922,6.235c-0.082,0.164-0.884,2.844-1.139,3.81v-0.119c-0.055-3.273-0.359-6.536-0.912-9.763
				c-0.482-2.905-1.112-5.783-1.887-8.624c-0.684-2.643-1.458-5.041-2.151-7.147c-0.383-1.139-0.757-2.179-1.103-3.145h0.064
				c0,0,0-4.285,0-4.558c-0.264-3.172-2.452-9.298-5.469-10.355c-2.17-0.766-4.038,0.884-4.257,3.345
				c-0.219,2.461,1.267,5.123,2.817,6.946c1.55,1.823,5.652,3.975,6.682,4.494c0.346,1.003,0.711,2.087,1.094,3.291
				c0.647,2.115,1.376,4.512,2.015,7.156c0.173,0.711,0.328,1.477,0.501,2.206c-0.501-1.167-1.212-2.844-1.294-2.99
				c-1.486-2.808-5.825-7.356-8.778-6.737c-2.133,0.447-3.035,2.999-2.233,5.415c0.802,2.416,3.09,4.075,5.15,4.977
				c2.06,0.902,6.481,0.684,7.448,0.629c0.337,1.632,0.656,3.327,0.912,5.096c0.492,3.2,0.738,6.434,0.738,9.672h-0.173
				c-0.346-1.158-1.13-3.582-1.212-3.774c-1.285-2.953-5.169-7.976-8.204-7.739c-2.16,0.164-3.309,2.561-2.735,5.032
				c0.574,2.47,2.789,4.457,4.704,5.551c2.197,1.267,7.402,1.577,7.593,1.577c-0.072,3.154-0.328,6.301-0.766,9.426
				c-0.31,2.306-0.711,4.603-1.13,6.91c-0.228-0.82-1.258-4.002-1.349-4.23c-1.285-2.954-5.169-7.967-8.204-7.739
				c-2.16,0.173-3.309,2.552-2.735,5.032c0.574,2.479,2.789,4.457,4.704,5.56c2.142,1.231,7.138,1.568,7.557,1.568
				c-0.191,1.048-0.383,2.097-0.583,3.136c-0.647,3.418-1.313,6.837-1.878,10.246c-0.191,1.176-0.346,2.352-0.501,3.537
				c-0.374-1.249-1.094-3.464-1.167-3.646c-1.285-2.954-5.169-7.976-8.204-7.739c-2.151,0.164-3.318,2.561-2.735,5.032
				c0.583,2.47,2.789,4.448,4.704,5.551c1.914,1.103,6.107,1.468,7.292,1.55c-0.246,1.969-0.465,3.92-0.592,5.871
				c-0.036,0.848-0.118,1.695-0.118,2.516c0,0.82,0,1.632,0,2.434c0.027,1.677,0.046,3.227,0.1,4.786
				c0.027,0.793,0.1,1.541,0.1,2.306c-0.219-1.285-0.602-3.318-0.656-3.5c-0.884-3.099-4.12-8.66-7.201-8.97
				c-2.215-0.219-3.692,1.887-3.437,4.403c0.255,2.516,2.224,4.831,3.993,6.235c1.951,1.55,6.755,2.707,7.347,2.853
				c0.082,1.878,0.191,3.701,0.31,5.415c0.337,4.868,0.775,9.07,1.139,12.16h2.042c-0.456-3.026-0.93-7.22-1.367-12.142
				c-0.137-1.541-0.264-3.181-0.383-4.868c0.583-0.027,5.032-0.283,7.046-1.367c1.061,1.408,2.2,2.756,3.409,4.038
				c-0.82,1.522-1.604,2.999-2.315,4.412c-1.978,3.902-3.564,7.32-4.713,9.927h2.361c1.03-2.425,2.352-5.406,3.956-8.742
				C410.798,397.556,411.445,396.161,411.983,394.967z"/>
			<path style="fill:#C6FF00;" d="M460.934,342.114c1.143-2.116,0.557-4.75-1.376-6.181c-2.78-1.841-7.593,0.766-9.471,2.844
				c-0.164,0.182-2.352,3.382-2.343,3.391c0.009,0.009,5.114,2.625,7.511,2.625C457.288,344.785,459.84,344.129,460.934,342.114z"/>
			<path style="opacity:0.2;" d="M409.941,318.331c1.577-1.313,3.227-3.573,3.145-6.035c-0.082-2.461-1.86-4.713-4.057-4.612
				c-3.045,0.137-5.533,5.551-5.989,8.605c-0.046,0.301-0.246,4.558-0.191,4.558C402.849,320.847,408.063,319.908,409.941,318.331z"
				/>
			<path style="opacity:0.2;" d="M411.983,394.967c0.547,0.355,4.923,3.2,7.183,3.5c2.051,0.301,4.667,0,5.998-1.823
				c1.353-1.989,1.013-4.674-0.793-6.262c-2.607-2.179-7.703-0.292-9.809,1.531c-0.128,0.119-1.568,1.696-2.288,2.516
				c0.41-0.83,0.857-1.659,1.322-2.516c0.647-1.24,1.376-2.525,2.078-3.774l1.167-1.905c0.383-0.629,0.82-1.194,1.231-1.823
				c0.629-0.893,1.313-1.759,1.996-2.671c1.13,0.984,4.412,3.783,6.436,4.403c2.024,0.62,4.695,0.775,6.272-0.757
				c1.612-1.762,1.612-4.464,0-6.226c-2.315-2.58-7.685-1.613-10.027-0.246c-0.073,0.046-0.538,0.401-1.085,0.829
				c0.693-0.839,1.377-1.677,2.115-2.498c2.024-2.352,4.202-4.613,6.381-6.91l1.34-1.449c0.948,0.848,4.585,3.929,6.609,4.558
				c2.024,0.629,4.695,0.784,6.262-0.757c1.638-1.752,1.638-4.474,0-6.226c-2.315-2.58-7.684-1.614-10.027-0.237
				c-0.091,0.046-0.638,0.474-1.258,0.957c1.167-1.276,2.315-2.561,3.409-3.883c1.917-2.279,3.666-4.695,5.232-7.229
				c0.337,0.301,4.503,4.002,6.782,4.704c2.033,0.629,4.704,0.784,6.272-0.748c1.617-1.764,1.617-4.471,0-6.235
				c-2.315-2.58-7.685-1.604-10.027-0.237c-0.164,0.1-2.151,1.65-2.844,2.233l0.064-0.091c1.527-2.613,2.814-5.359,3.847-8.204
				c0.966-2.59,1.788-5.231,2.461-7.912c0.656-2.507,1.112-4.859,1.513-6.937c0.201-1.139,0.374-2.179,0.52-3.154v0.064
				c0.036,0.055,2.115-3.273,2.215-3.51c1.258-2.662,2.233-8.851,0.064-11.586c-0.211-0.314-0.473-0.589-0.777-0.814
				c-1.468-1.089-3.54-0.781-4.629,0.687c-1.367,1.741-1.322,4.804-0.82,7.21c0.501,2.407,3.136,6.709,3.792,7.767
				c-0.164,1.012-0.365,2.078-0.602,3.263c-0.428,2.06-0.939,4.394-1.641,6.855c-0.182,0.665-0.401,1.358-0.611,2.042
				c0.137-1.258,0.292-2.99,0.292-3.163c0-3.154-1.623-9.444-4.558-10.857c-2.088-1.057-4.111,0.346-4.558,2.735
				c-0.447,2.388,0.784,5.15,2.197,7.174c1.413,2.024,5.424,4.685,6.335,5.26c-0.474,1.495-0.993,3.017-1.622,4.558
				c-1.082,2.777-2.416,5.45-3.984,7.985l-0.155-0.1c0.246-1.121,0.729-3.509,0.729-3.719c0.283-3.108-0.766-9.498-3.583-11.258
				c-2.024-1.267-4.202-0.164-4.877,2.133c-0.675,2.297,0.355,5.26,1.531,7.338c1.349,2.388,5.843,5.962,6.016,6.098
				c-1.58,2.395-3.322,4.68-5.214,6.837c-1.386,1.586-2.844,3.118-4.321,4.64c0.191-0.784,0.829-3.92,0.829-4.148
				c0.283-3.108-0.766-9.499-3.583-11.267c-2.024-1.267-4.202-0.109-4.877,2.142c-0.675,2.252,0.355,5.214,1.522,7.293
				c1.322,2.334,5.615,5.779,5.98,6.071l-2.015,2.06c-2.224,2.206-4.448,4.476-6.591,6.764c-0.738,0.793-1.44,1.604-2.142,2.416
				c0.246-1.185,0.693-3.364,0.693-3.555c0.292-3.108-0.766-9.499-3.583-11.267c-2.024-1.267-4.202-0.119-4.877,2.142
				c-0.675,2.261,0.337,5.205,1.531,7.293c1.194,2.087,4.74,5.068,5.752,5.889c-1.167,1.367-2.288,2.753-3.336,4.184
				c-0.401,0.629-0.93,1.24-1.313,1.869l-1.203,1.878c-0.784,1.313-1.513,2.534-2.206,3.783c-0.356,0.602-0.675,1.203-1.012,1.823
				c0.419-1.139,1.094-2.962,1.094-3.136c0.693-2.972,0.483-9.38-2.115-11.586c-0.307-0.286-0.667-0.509-1.06-0.656
				c-1.655-0.619-3.499,0.222-4.117,1.877c-0.123,0.267-0.221,0.544-0.292,0.83c-1.839,1.745-3.182,3.947-3.892,6.381
				c-0.046,0.191-0.41,2.516-0.565,3.719c-0.064-1.021-0.137-2.033-0.191-3.09c-0.082-1.522-0.137-3.136-0.191-4.694
				c0-0.811,0.018-1.604,0-2.443c-0.018-0.839,0.073-1.623,0.073-2.443c0.055-1.194,0.164-2.425,0.273-3.646
				c1.349,0.146,5.196,0.538,7.11-0.21c1.914-0.747,4.084-2.37,4.558-4.695c0.474-2.324-0.766-4.986-2.963-5.57
				c-3.054-0.802-6.764,3.5-7.931,6.235c-0.036,0.082-0.228,0.702-0.447,1.431c0.137-1.194,0.273-2.388,0.447-3.582
				c0.492-3.4,1.085-6.828,1.668-10.273c0.128-0.72,0.237-1.44,0.355-2.151c1.112,0.128,5.369,0.547,7.293-0.191
				c1.923-0.738,4.084-2.352,4.558-4.686c0.474-2.334-0.766-4.995-2.963-5.57c-3.054-0.802-6.764,3.491-7.922,6.226
				c-0.046,0.1-0.273,0.829-0.52,1.65c0.292-1.878,0.565-3.756,0.784-5.633c0.398-3.251,0.599-6.524,0.602-9.799
				c0.401,0.055,5.424,0.684,7.53-0.155c1.923-0.747,4.075-2.37,4.558-4.695c0.483-2.324-0.766-4.986-2.963-5.57
				c-3.054-0.802-6.764,3.5-7.922,6.235c-0.082,0.164-0.884,2.844-1.139,3.81v-0.119c-0.055-3.273-0.359-6.536-0.912-9.763
				c-0.482-2.905-1.112-5.783-1.887-8.624c-0.684-2.643-1.458-5.041-2.151-7.147c-0.383-1.139-0.757-2.179-1.103-3.145h0.064
				c0,0,0-4.285,0-4.558c-0.264-3.172-2.452-9.298-5.469-10.355c-2.17-0.766-4.038,0.884-4.257,3.345
				c-0.219,2.461,1.267,5.123,2.817,6.946c1.55,1.823,5.652,3.975,6.682,4.494c0.346,1.003,0.711,2.087,1.094,3.291
				c0.647,2.115,1.376,4.512,2.015,7.156c0.173,0.711,0.328,1.477,0.501,2.206c-0.501-1.167-1.212-2.844-1.294-2.99
				c-1.486-2.808-5.825-7.356-8.778-6.737c-2.133,0.447-3.035,2.999-2.233,5.415c0.802,2.416,3.09,4.075,5.15,4.977
				c2.06,0.902,6.481,0.684,7.448,0.629c0.337,1.632,0.656,3.327,0.912,5.096c0.492,3.2,0.738,6.434,0.738,9.672h-0.173
				c-0.346-1.158-1.13-3.582-1.212-3.774c-1.285-2.953-5.169-7.976-8.204-7.739c-2.16,0.164-3.309,2.561-2.735,5.032
				c0.574,2.47,2.789,4.457,4.704,5.551c2.197,1.267,7.402,1.577,7.593,1.577c-0.072,3.154-0.328,6.301-0.766,9.426
				c-0.31,2.306-0.711,4.603-1.13,6.91c-0.228-0.82-1.258-4.002-1.349-4.23c-1.285-2.954-5.169-7.967-8.204-7.739
				c-2.16,0.173-3.309,2.552-2.735,5.032c0.574,2.479,2.789,4.457,4.704,5.56c2.142,1.231,7.138,1.568,7.557,1.568
				c-0.191,1.048-0.383,2.097-0.583,3.136c-0.647,3.418-1.313,6.837-1.878,10.246c-0.191,1.176-0.346,2.352-0.501,3.537
				c-0.374-1.249-1.094-3.464-1.167-3.646c-1.285-2.954-5.169-7.976-8.204-7.739c-2.151,0.164-3.318,2.561-2.735,5.032
				c0.583,2.47,2.789,4.448,4.704,5.551c1.914,1.103,6.107,1.468,7.292,1.55c-0.246,1.969-0.465,3.92-0.592,5.871
				c-0.036,0.848-0.118,1.695-0.118,2.516c0,0.82,0,1.632,0,2.434c0.027,1.677,0.046,3.227,0.1,4.786
				c0.027,0.793,0.1,1.541,0.1,2.306c-0.219-1.285-0.602-3.318-0.656-3.5c-0.884-3.099-4.12-8.66-7.201-8.97
				c-2.215-0.219-3.692,1.887-3.437,4.403c0.255,2.516,2.224,4.831,3.993,6.235c1.951,1.55,6.755,2.707,7.347,2.853
				c0.082,1.878,0.191,3.701,0.31,5.415c0.337,4.868,0.775,9.07,1.139,12.16h2.042c-0.456-3.026-0.93-7.22-1.367-12.142
				c-0.137-1.541-0.264-3.181-0.383-4.868c0.583-0.027,5.032-0.283,7.046-1.367c1.061,1.408,2.2,2.756,3.409,4.038
				c-0.82,1.522-1.604,2.999-2.315,4.412c-1.978,3.902-3.564,7.32-4.713,9.927h2.361c1.03-2.425,2.352-5.406,3.956-8.742
				C410.798,397.556,411.445,396.161,411.983,394.967z"/>
			<path style="opacity:0.2;" d="M460.934,342.114c1.143-2.116,0.557-4.75-1.376-6.181c-2.78-1.841-7.593,0.766-9.471,2.844
				c-0.164,0.182-2.352,3.382-2.343,3.391c0.009,0.009,5.114,2.625,7.511,2.625C457.288,344.785,459.84,344.129,460.934,342.114z"/>
		</g>
		<g id="Plants--inject-125_2_">
			<path style="fill:#C6FF00;" d="M102.925,323.392c-1.577-1.313-3.227-3.573-3.145-6.035c0.082-2.461,1.86-4.713,4.056-4.612
				c3.045,0.137,5.533,5.551,5.989,8.605c0.046,0.301,0.246,4.558,0.191,4.558C110.017,325.908,104.803,324.969,102.925,323.392z"/>
			<path style="fill:#C6FF00;" d="M100.883,400.028c-0.547,0.355-4.922,3.2-7.183,3.5c-2.051,0.301-4.667,0-5.998-1.823
				c-1.353-1.989-1.013-4.674,0.793-6.262c2.607-2.179,7.703-0.292,9.808,1.531c0.128,0.119,1.568,1.696,2.288,2.516
				c-0.41-0.829-0.857-1.659-1.322-2.516c-0.647-1.24-1.376-2.525-2.078-3.774l-1.167-1.905c-0.383-0.629-0.82-1.194-1.231-1.823
				c-0.629-0.893-1.313-1.759-1.996-2.671c-1.13,0.984-4.412,3.783-6.436,4.403c-2.024,0.62-4.695,0.775-6.271-0.757
				c-1.612-1.762-1.612-4.464,0-6.226c2.315-2.58,7.685-1.613,10.027-0.246c0.073,0.046,0.538,0.401,1.085,0.829
				c-0.693-0.839-1.377-1.677-2.115-2.498c-2.024-2.352-4.202-4.612-6.381-6.91l-1.34-1.449c-0.948,0.848-4.585,3.929-6.609,4.558
				c-2.024,0.629-4.695,0.784-6.262-0.757c-1.638-1.752-1.638-4.474,0-6.226c2.315-2.58,7.685-1.614,10.027-0.237
				c0.091,0.046,0.638,0.474,1.258,0.957c-1.167-1.276-2.315-2.561-3.409-3.883c-1.917-2.279-3.666-4.695-5.232-7.229
				c-0.337,0.301-4.503,4.002-6.782,4.704c-2.033,0.629-4.704,0.784-6.272-0.747c-1.617-1.764-1.617-4.471,0-6.235
				c2.315-2.58,7.685-1.604,10.027-0.237c0.164,0.1,2.151,1.65,2.844,2.233l-0.064-0.091c-1.527-2.613-2.814-5.359-3.847-8.204
				c-0.966-2.59-1.788-5.231-2.461-7.913c-0.656-2.507-1.112-4.859-1.513-6.937c-0.201-1.139-0.374-2.179-0.52-3.154v0.064
				c-0.036,0.055-2.115-3.273-2.215-3.51c-1.258-2.662-2.234-8.851-0.064-11.586c0.21-0.314,0.473-0.589,0.777-0.814
				c1.468-1.089,3.54-0.781,4.629,0.686c1.367,1.741,1.322,4.804,0.821,7.211c-0.501,2.406-3.136,6.709-3.792,7.767
				c0.164,1.012,0.365,2.078,0.602,3.263c0.428,2.06,0.939,4.394,1.641,6.855c0.182,0.665,0.401,1.358,0.611,2.042
				c-0.137-1.258-0.292-2.99-0.292-3.163c0-3.154,1.623-9.444,4.558-10.857c2.087-1.057,4.111,0.346,4.558,2.735
				c0.447,2.388-0.784,5.15-2.197,7.174c-1.413,2.024-5.424,4.685-6.335,5.26c0.474,1.495,0.994,3.017,1.623,4.558
				c1.082,2.777,2.416,5.45,3.984,7.985l0.155-0.1c-0.246-1.121-0.729-3.509-0.729-3.719c-0.283-3.108,0.766-9.498,3.583-11.258
				c2.024-1.267,4.202-0.164,4.877,2.133c0.675,2.297-0.355,5.26-1.531,7.338c-1.349,2.388-5.843,5.962-6.016,6.098
				c1.58,2.396,3.322,4.68,5.214,6.837c1.386,1.586,2.844,3.118,4.321,4.64c-0.191-0.784-0.829-3.92-0.829-4.148
				c-0.283-3.108,0.766-9.499,3.582-11.267c2.024-1.267,4.202-0.109,4.877,2.142c0.675,2.252-0.355,5.214-1.522,7.292
				c-1.322,2.334-5.615,5.779-5.98,6.071l2.015,2.06c2.224,2.206,4.448,4.476,6.591,6.764c0.738,0.793,1.44,1.604,2.142,2.416
				c-0.246-1.185-0.693-3.364-0.693-3.555c-0.292-3.108,0.766-9.499,3.583-11.267c2.024-1.267,4.202-0.119,4.877,2.142
				c0.675,2.261-0.337,5.205-1.532,7.293c-1.194,2.087-4.74,5.068-5.752,5.889c1.167,1.367,2.288,2.753,3.336,4.184
				c0.401,0.629,0.93,1.24,1.313,1.869l1.203,1.878c0.784,1.313,1.513,2.534,2.206,3.783c0.356,0.602,0.675,1.203,1.012,1.823
				c-0.419-1.139-1.094-2.963-1.094-3.136c-0.693-2.972-0.483-9.38,2.115-11.586c0.307-0.286,0.667-0.509,1.06-0.656
				c1.655-0.619,3.499,0.222,4.117,1.877c0.123,0.267,0.221,0.544,0.292,0.83c1.839,1.745,3.182,3.947,3.892,6.381
				c0.046,0.191,0.41,2.516,0.565,3.719c0.064-1.021,0.137-2.033,0.191-3.09c0.082-1.522,0.137-3.136,0.191-4.695
				c0-0.811-0.018-1.604,0-2.443c0.018-0.839-0.073-1.623-0.073-2.443c-0.055-1.194-0.164-2.425-0.273-3.646
				c-1.349,0.146-5.196,0.538-7.11-0.21c-1.914-0.748-4.084-2.37-4.558-4.695s0.766-4.986,2.963-5.57
				c3.054-0.802,6.764,3.5,7.931,6.235c0.036,0.082,0.228,0.702,0.447,1.431c-0.137-1.194-0.273-2.388-0.447-3.582
				c-0.492-3.4-1.085-6.828-1.668-10.273c-0.128-0.72-0.237-1.44-0.355-2.151c-1.112,0.128-5.369,0.547-7.293-0.191
				s-4.084-2.352-4.558-4.686c-0.474-2.334,0.766-4.995,2.962-5.57c3.054-0.802,6.764,3.491,7.922,6.226
				c0.046,0.1,0.273,0.829,0.52,1.65c-0.292-1.878-0.565-3.756-0.784-5.633c-0.398-3.251-0.599-6.524-0.602-9.799
				c-0.401,0.055-5.424,0.684-7.53-0.155c-1.923-0.747-4.075-2.37-4.558-4.694c-0.483-2.325,0.766-4.986,2.963-5.57
				c3.054-0.802,6.764,3.5,7.922,6.235c0.082,0.164,0.884,2.844,1.139,3.81v-0.118c0.055-3.273,0.359-6.537,0.912-9.763
				c0.482-2.905,1.112-5.783,1.887-8.624c0.684-2.643,1.459-5.041,2.151-7.147c0.383-1.139,0.756-2.179,1.103-3.145h-0.064
				c0,0,0-4.284,0-4.558c0.264-3.172,2.452-9.298,5.469-10.355c2.17-0.766,4.038,0.884,4.257,3.345
				c0.219,2.461-1.267,5.123-2.817,6.946c-1.55,1.823-5.652,3.974-6.682,4.494c-0.346,1.003-0.711,2.087-1.094,3.291
				c-0.647,2.115-1.377,4.512-2.015,7.156c-0.173,0.711-0.328,1.477-0.501,2.206c0.501-1.167,1.212-2.844,1.295-2.99
				c1.486-2.808,5.825-7.356,8.778-6.737c2.133,0.447,3.035,2.999,2.233,5.415c-0.802,2.416-3.09,4.075-5.15,4.977
				c-2.06,0.902-6.481,0.684-7.447,0.629c-0.337,1.632-0.656,3.327-0.912,5.096c-0.492,3.2-0.738,6.434-0.738,9.672h0.173
				c0.347-1.158,1.13-3.582,1.213-3.774c1.285-2.953,5.169-7.976,8.204-7.739c2.16,0.164,3.309,2.561,2.735,5.032
				c-0.574,2.47-2.789,4.457-4.704,5.551c-2.197,1.267-7.402,1.577-7.593,1.577c0.072,3.154,0.328,6.301,0.766,9.426
				c0.31,2.306,0.711,4.603,1.13,6.91c0.228-0.82,1.258-4.002,1.349-4.23c1.285-2.953,5.169-7.967,8.204-7.739
				c2.16,0.173,3.309,2.552,2.735,5.032c-0.574,2.479-2.789,4.457-4.704,5.561c-2.142,1.231-7.138,1.568-7.557,1.568
				c0.191,1.048,0.383,2.096,0.583,3.136c0.647,3.418,1.313,6.837,1.878,10.246c0.192,1.176,0.346,2.352,0.501,3.537
				c0.374-1.249,1.094-3.464,1.167-3.646c1.285-2.954,5.169-7.976,8.204-7.739c2.151,0.164,3.318,2.561,2.735,5.032
				c-0.583,2.47-2.789,4.448-4.704,5.551c-1.914,1.103-6.107,1.468-7.292,1.55c0.246,1.969,0.465,3.92,0.592,5.87
				c0.036,0.848,0.118,1.695,0.118,2.516c0,0.82,0,1.632,0,2.434c-0.027,1.677-0.046,3.227-0.1,4.786
				c-0.027,0.793-0.1,1.541-0.1,2.306c0.219-1.285,0.602-3.318,0.656-3.5c0.884-3.099,4.12-8.66,7.201-8.97
				c2.215-0.219,3.692,1.887,3.437,4.403c-0.255,2.516-2.224,4.831-3.993,6.235c-1.951,1.55-6.755,2.707-7.347,2.853
				c-0.082,1.878-0.191,3.701-0.31,5.415c-0.337,4.868-0.775,9.07-1.139,12.16h-2.042c0.456-3.027,0.93-7.22,1.367-12.142
				c0.137-1.541,0.264-3.181,0.383-4.868c-0.583-0.027-5.032-0.283-7.046-1.367c-1.062,1.408-2.2,2.756-3.409,4.038
				c0.82,1.522,1.604,2.999,2.315,4.412c1.978,3.901,3.564,7.32,4.713,9.927h-2.361c-1.03-2.425-2.352-5.406-3.956-8.742
				C102.068,402.617,101.421,401.222,100.883,400.028z"/>
			<path style="fill:#C6FF00;" d="M51.932,347.175c-1.143-2.116-0.557-4.75,1.376-6.181c2.78-1.841,7.593,0.766,9.471,2.844
				c0.164,0.182,2.352,3.382,2.343,3.391c-0.009,0.009-5.114,2.625-7.511,2.625C55.578,349.846,53.026,349.19,51.932,347.175z"/>
			<path style="opacity:0.2;" d="M102.925,323.392c-1.577-1.313-3.227-3.573-3.145-6.035c0.082-2.461,1.86-4.713,4.056-4.612
				c3.045,0.137,5.533,5.551,5.989,8.605c0.046,0.301,0.246,4.558,0.191,4.558C110.017,325.908,104.803,324.969,102.925,323.392z"/>
			<path style="opacity:0.2;" d="M100.883,400.028c-0.547,0.355-4.922,3.2-7.183,3.5c-2.051,0.301-4.667,0-5.998-1.823
				c-1.353-1.989-1.013-4.674,0.793-6.262c2.607-2.179,7.703-0.292,9.808,1.531c0.128,0.119,1.568,1.696,2.288,2.516
				c-0.41-0.829-0.857-1.659-1.322-2.516c-0.647-1.24-1.376-2.525-2.078-3.774l-1.167-1.905c-0.383-0.629-0.82-1.194-1.231-1.823
				c-0.629-0.893-1.313-1.759-1.996-2.671c-1.13,0.984-4.412,3.783-6.436,4.403c-2.024,0.62-4.695,0.775-6.271-0.757
				c-1.612-1.762-1.612-4.464,0-6.226c2.315-2.58,7.685-1.613,10.027-0.246c0.073,0.046,0.538,0.401,1.085,0.829
				c-0.693-0.839-1.377-1.677-2.115-2.498c-2.024-2.352-4.202-4.612-6.381-6.91l-1.34-1.449c-0.948,0.848-4.585,3.929-6.609,4.558
				c-2.024,0.629-4.695,0.784-6.262-0.757c-1.638-1.752-1.638-4.474,0-6.226c2.315-2.58,7.685-1.614,10.027-0.237
				c0.091,0.046,0.638,0.474,1.258,0.957c-1.167-1.276-2.315-2.561-3.409-3.883c-1.917-2.279-3.666-4.695-5.232-7.229
				c-0.337,0.301-4.503,4.002-6.782,4.704c-2.033,0.629-4.704,0.784-6.272-0.747c-1.617-1.764-1.617-4.471,0-6.235
				c2.315-2.58,7.685-1.604,10.027-0.237c0.164,0.1,2.151,1.65,2.844,2.233l-0.064-0.091c-1.527-2.613-2.814-5.359-3.847-8.204
				c-0.966-2.59-1.788-5.231-2.461-7.913c-0.656-2.507-1.112-4.859-1.513-6.937c-0.201-1.139-0.374-2.179-0.52-3.154v0.064
				c-0.036,0.055-2.115-3.273-2.215-3.51c-1.258-2.662-2.234-8.851-0.064-11.586c0.21-0.314,0.473-0.589,0.777-0.814
				c1.468-1.089,3.54-0.781,4.629,0.686c1.367,1.741,1.322,4.804,0.821,7.211c-0.501,2.406-3.136,6.709-3.792,7.767
				c0.164,1.012,0.365,2.078,0.602,3.263c0.428,2.06,0.939,4.394,1.641,6.855c0.182,0.665,0.401,1.358,0.611,2.042
				c-0.137-1.258-0.292-2.99-0.292-3.163c0-3.154,1.623-9.444,4.558-10.857c2.087-1.057,4.111,0.346,4.558,2.735
				c0.447,2.388-0.784,5.15-2.197,7.174c-1.413,2.024-5.424,4.685-6.335,5.26c0.474,1.495,0.994,3.017,1.623,4.558
				c1.082,2.777,2.416,5.45,3.984,7.985l0.155-0.1c-0.246-1.121-0.729-3.509-0.729-3.719c-0.283-3.108,0.766-9.498,3.583-11.258
				c2.024-1.267,4.202-0.164,4.877,2.133c0.675,2.297-0.355,5.26-1.531,7.338c-1.349,2.388-5.843,5.962-6.016,6.098
				c1.58,2.396,3.322,4.68,5.214,6.837c1.386,1.586,2.844,3.118,4.321,4.64c-0.191-0.784-0.829-3.92-0.829-4.148
				c-0.283-3.108,0.766-9.499,3.582-11.267c2.024-1.267,4.202-0.109,4.877,2.142c0.675,2.252-0.355,5.214-1.522,7.292
				c-1.322,2.334-5.615,5.779-5.98,6.071l2.015,2.06c2.224,2.206,4.448,4.476,6.591,6.764c0.738,0.793,1.44,1.604,2.142,2.416
				c-0.246-1.185-0.693-3.364-0.693-3.555c-0.292-3.108,0.766-9.499,3.583-11.267c2.024-1.267,4.202-0.119,4.877,2.142
				c0.675,2.261-0.337,5.205-1.532,7.293c-1.194,2.087-4.74,5.068-5.752,5.889c1.167,1.367,2.288,2.753,3.336,4.184
				c0.401,0.629,0.93,1.24,1.313,1.869l1.203,1.878c0.784,1.313,1.513,2.534,2.206,3.783c0.356,0.602,0.675,1.203,1.012,1.823
				c-0.419-1.139-1.094-2.963-1.094-3.136c-0.693-2.972-0.483-9.38,2.115-11.586c0.307-0.286,0.667-0.509,1.06-0.656
				c1.655-0.619,3.499,0.222,4.117,1.877c0.123,0.267,0.221,0.544,0.292,0.83c1.839,1.745,3.182,3.947,3.892,6.381
				c0.046,0.191,0.41,2.516,0.565,3.719c0.064-1.021,0.137-2.033,0.191-3.09c0.082-1.522,0.137-3.136,0.191-4.695
				c0-0.811-0.018-1.604,0-2.443c0.018-0.839-0.073-1.623-0.073-2.443c-0.055-1.194-0.164-2.425-0.273-3.646
				c-1.349,0.146-5.196,0.538-7.11-0.21c-1.914-0.748-4.084-2.37-4.558-4.695s0.766-4.986,2.963-5.57
				c3.054-0.802,6.764,3.5,7.931,6.235c0.036,0.082,0.228,0.702,0.447,1.431c-0.137-1.194-0.273-2.388-0.447-3.582
				c-0.492-3.4-1.085-6.828-1.668-10.273c-0.128-0.72-0.237-1.44-0.355-2.151c-1.112,0.128-5.369,0.547-7.293-0.191
				s-4.084-2.352-4.558-4.686c-0.474-2.334,0.766-4.995,2.962-5.57c3.054-0.802,6.764,3.491,7.922,6.226
				c0.046,0.1,0.273,0.829,0.52,1.65c-0.292-1.878-0.565-3.756-0.784-5.633c-0.398-3.251-0.599-6.524-0.602-9.799
				c-0.401,0.055-5.424,0.684-7.53-0.155c-1.923-0.747-4.075-2.37-4.558-4.694c-0.483-2.325,0.766-4.986,2.963-5.57
				c3.054-0.802,6.764,3.5,7.922,6.235c0.082,0.164,0.884,2.844,1.139,3.81v-0.118c0.055-3.273,0.359-6.537,0.912-9.763
				c0.482-2.905,1.112-5.783,1.887-8.624c0.684-2.643,1.459-5.041,2.151-7.147c0.383-1.139,0.756-2.179,1.103-3.145h-0.064
				c0,0,0-4.284,0-4.558c0.264-3.172,2.452-9.298,5.469-10.355c2.17-0.766,4.038,0.884,4.257,3.345
				c0.219,2.461-1.267,5.123-2.817,6.946c-1.55,1.823-5.652,3.974-6.682,4.494c-0.346,1.003-0.711,2.087-1.094,3.291
				c-0.647,2.115-1.377,4.512-2.015,7.156c-0.173,0.711-0.328,1.477-0.501,2.206c0.501-1.167,1.212-2.844,1.295-2.99
				c1.486-2.808,5.825-7.356,8.778-6.737c2.133,0.447,3.035,2.999,2.233,5.415c-0.802,2.416-3.09,4.075-5.15,4.977
				c-2.06,0.902-6.481,0.684-7.447,0.629c-0.337,1.632-0.656,3.327-0.912,5.096c-0.492,3.2-0.738,6.434-0.738,9.672h0.173
				c0.347-1.158,1.13-3.582,1.213-3.774c1.285-2.953,5.169-7.976,8.204-7.739c2.16,0.164,3.309,2.561,2.735,5.032
				c-0.574,2.47-2.789,4.457-4.704,5.551c-2.197,1.267-7.402,1.577-7.593,1.577c0.072,3.154,0.328,6.301,0.766,9.426
				c0.31,2.306,0.711,4.603,1.13,6.91c0.228-0.82,1.258-4.002,1.349-4.23c1.285-2.953,5.169-7.967,8.204-7.739
				c2.16,0.173,3.309,2.552,2.735,5.032c-0.574,2.479-2.789,4.457-4.704,5.561c-2.142,1.231-7.138,1.568-7.557,1.568
				c0.191,1.048,0.383,2.096,0.583,3.136c0.647,3.418,1.313,6.837,1.878,10.246c0.192,1.176,0.346,2.352,0.501,3.537
				c0.374-1.249,1.094-3.464,1.167-3.646c1.285-2.954,5.169-7.976,8.204-7.739c2.151,0.164,3.318,2.561,2.735,5.032
				c-0.583,2.47-2.789,4.448-4.704,5.551c-1.914,1.103-6.107,1.468-7.292,1.55c0.246,1.969,0.465,3.92,0.592,5.87
				c0.036,0.848,0.118,1.695,0.118,2.516c0,0.82,0,1.632,0,2.434c-0.027,1.677-0.046,3.227-0.1,4.786
				c-0.027,0.793-0.1,1.541-0.1,2.306c0.219-1.285,0.602-3.318,0.656-3.5c0.884-3.099,4.12-8.66,7.201-8.97
				c2.215-0.219,3.692,1.887,3.437,4.403c-0.255,2.516-2.224,4.831-3.993,6.235c-1.951,1.55-6.755,2.707-7.347,2.853
				c-0.082,1.878-0.191,3.701-0.31,5.415c-0.337,4.868-0.775,9.07-1.139,12.16h-2.042c0.456-3.027,0.93-7.22,1.367-12.142
				c0.137-1.541,0.264-3.181,0.383-4.868c-0.583-0.027-5.032-0.283-7.046-1.367c-1.062,1.408-2.2,2.756-3.409,4.038
				c0.82,1.522,1.604,2.999,2.315,4.412c1.978,3.901,3.564,7.32,4.713,9.927h-2.361c-1.03-2.425-2.352-5.406-3.956-8.742
				C102.068,402.617,101.421,401.222,100.883,400.028z"/>
			<path style="opacity:0.2;" d="M51.932,347.175c-1.143-2.116-0.557-4.75,1.376-6.181c2.78-1.841,7.593,0.766,9.471,2.844
				c0.164,0.182,2.352,3.382,2.343,3.391c-0.009,0.009-5.114,2.625-7.511,2.625C55.578,349.846,53.026,349.19,51.932,347.175z"/>
		</g>
	</g>
</g>
<g id="Bag_2">
	<g>
		<g>
			<path style="fill:#263238;" d="M199.33,140.243c0.025-15.741-12.716-28.521-28.457-28.545
				c-15.741-0.024-28.521,12.716-28.545,28.457c-0.02,13.04,8.811,24.43,21.445,27.658l6.818,11.892l6.501-11.595
				C190.117,165.176,199.359,153.594,199.33,140.243z"/>
			<path style="fill:#C6FF00;" d="M173.544,155.089v4.717h-4.202v-4.539c-3.734-0.125-7.359-1.292-10.465-3.37l2.319-5.113
				c2.414,1.677,5.22,2.701,8.146,2.973v-7.016c-4.658-1.13-9.91-2.696-9.91-8.701c0-4.44,3.231-8.265,9.91-9.018v-4.678h4.202
				v4.578c3.004,0.176,5.924,1.059,8.523,2.577l-2.101,5.153c-1.977-1.141-4.159-1.882-6.422-2.18v7.155
				c4.658,1.09,9.791,2.636,9.791,8.562C183.355,150.51,180.144,154.296,173.544,155.089z M169.342,136.537v-5.946
				c-2.22,0.495-3.112,1.724-3.112,3.092C166.23,135.051,167.499,135.943,169.342,136.537L169.342,136.537z M176.557,146.645
				c0-1.467-1.209-2.26-3.013-2.894v5.807C175.645,149.083,176.557,147.993,176.557,146.645L176.557,146.645z"/>
		</g>
		<g>
			<g>
				<g id="character-2--inject-1_2_">
					<polygon style="fill:#C6FF00;stroke:#263238;stroke-linecap:round;stroke-linejoin:round;" points="110.74,212.632 
						126.133,427.035 286.66,408.344 241.58,203.836 					"/>
					<polygon style="fill:#C6FF00;stroke:#263238;stroke-linecap:round;stroke-linejoin:round;" points="110.74,212.632 
						87.65,416.04 126.133,427.035 					"/>
				</g>
				<polygon style="opacity:0.1;" points="126.133,427.035 110.74,212.632 87.65,416.04 				"/>
			</g>
			<path style="fill:none;stroke:#263238;stroke-linecap:round;stroke-linejoin:round;stroke-miterlimit:10;" d="M155.921,223.969
				c0,0,9.097,38.814,34.508,42.535c25.412,3.721,32.865-51.385,32.865-51.385"/>
			<circle style="fill:#263238;" cx="155.921" cy="222.998" r="4.812"/>
		</g>
	</g>
</g>
<g id="Phone">
	<g>
		<g id="Device--inject-1_1_">
			<path style="fill:#263238;stroke:#263238;stroke-linecap:round;stroke-linejoin:round;" d="M258.862,128.071h141.906
				c5.42,0,9.813,4.393,9.813,9.813v271.484c0,5.42-4.393,9.813-9.813,9.813H258.862c-5.42,0-9.813-4.393-9.813-9.813V137.885
				C249.049,132.465,253.443,128.071,258.862,128.071z"/>
			<path style="fill:#FFFFFF;stroke:#263238;stroke-linecap:round;stroke-linejoin:round;" d="M251.375,128.071h141.906
				c5.42,0,9.813,4.393,9.813,9.813v271.484c0,5.42-4.394,9.813-9.813,9.813H251.375c-5.42,0-9.813-4.393-9.813-9.813V137.885
				C241.562,132.465,245.955,128.071,251.375,128.071z"/>
			<path style="fill:#263238;" d="M333.486,145.459H313.38c-1.14,0-2.065-0.924-2.065-2.064l0,0l0,0
				c0.008-1.137,0.928-2.057,2.065-2.064h20.106c1.14,0,2.065,0.924,2.065,2.064l0,0l0,0c0.008,1.132-0.903,2.056-2.035,2.064
				C333.506,145.459,333.496,145.459,333.486,145.459z"/>
			<path style="fill:#263238;" d="M392.872,145.774v247.381H251.77V145.702h33.436l3.747,3.118c1.322,1.085,2.972,1.686,4.685,1.686
				h59.024c1.777,0,3.491-0.647,4.822-1.823l3.409-2.908H392.872z"/>
			<g>
				<defs>
					<path id="SVGID_1_" d="M392.874,393.158H251.768V145.706h33.437l3.751,3.111c1.318,1.088,2.973,1.684,4.681,1.686h59.024
						c1.777,0.005,3.494-0.642,4.827-1.817l3.402-2.908h31.984V393.158z"/>
				</defs>
				<clipPath id="SVGID_00000023975169959949509070000012296820956904491453_">
					<use xlink:href="#SVGID_1_"  style="overflow:visible;"/>
				</clipPath>
			</g>
			<path style="fill:none;stroke:#263238;stroke-linecap:round;stroke-linejoin:round;" d="M392.874,393.158H251.768V145.706h33.437
				l3.751,3.111c1.318,1.088,2.973,1.684,4.681,1.686h59.024c1.777,0.005,3.494-0.642,4.827-1.817l3.402-2.908h31.984V393.158z"/>
			<path style="fill:#263238;" d="M326.828,400.791c0-1.774-1.439-3.213-3.213-3.213c-1.775,0-3.213,1.438-3.213,3.213
				c0,1.774,1.439,3.213,3.213,3.213c0.005,0,0.01,0,0.015,0c1.766,0,3.198-1.432,3.198-3.198
				C326.828,400.801,326.828,400.796,326.828,400.791z"/>
		</g>
		<g>
			<polygon style="opacity:0.2;fill:#FFFFFF;" points="392.863,264.461 392.863,296.138 295.835,393.156 264.167,393.156 			"/>
			<polygon style="opacity:0.2;fill:#FFFFFF;" points="392.872,161.918 392.872,213.996 251.77,355.098 251.77,303.029 			"/>
		</g>
	</g>
</g>
<g id="Message">
	<g>
		<path style="fill:#FFFFFF;stroke:#263238;stroke-linecap:round;stroke-linejoin:round;" d="M412.104,314.051H222.758
			c-4.668,0-8.452-3.784-8.452-8.452V199.471c0-4.668,3.784-8.452,8.452-8.452h189.346c4.668,0,8.452,3.784,8.452,8.452v106.127
			C420.557,310.267,416.772,314.051,412.104,314.051z"/>
		
			<text transform="matrix(1 0 0 1 259.6475 222.4907)" style="fill:#C6FF00; font-family:'Montserrat-SemiBold'; font-size:17.3601px;">THANK YOU!</text>
		<text transform="matrix(1 0 0 1 252.1045 244.8232)" style="font-family:'Montserrat-Light'; font-size:10.976px;">Your order is confirmed</text>
		<g>
			<g>
				<path style="fill:#C6FF00;" d="M380.826,287.594h-84.582c-6.648,0-12.037-5.389-12.037-12.037l0,0
					c0-6.648,5.389-12.037,12.037-12.037h84.582c6.648,0,12.037,5.389,12.037,12.037l0,0
					C392.863,282.204,387.474,287.594,380.826,287.594z"/>
				
					<text transform="matrix(1 0 0 1 296.5566 278.1113)" style="fill:#263238; font-family:'Montserrat-SemiBold'; font-size:8.3078px; letter-spacing:1;">CHECK STATUS</text>
			</g>
			<g>
				
					<ellipse transform="matrix(0.7071 -0.7071 0.7071 0.7071 -119.2961 263.1073)" style="fill:#C6FF00;" cx="257.951" cy="275.557" rx="15.354" ry="15.354"/>
				
					<ellipse transform="matrix(0.7071 -0.7071 0.7071 0.7071 -119.2961 263.1073)" style="opacity:0.2;fill:#FFFFFF;enable-background:new    ;" cx="257.951" cy="275.557" rx="15.354" ry="15.354"/>
				<g>
					
						<ellipse transform="matrix(0.7071 -0.7071 0.7071 0.7071 -119.2087 263.1975)" style="fill:#FFFFFF;stroke:#263238;stroke-miterlimit:10;" cx="258.103" cy="275.496" rx="9.956" ry="9.956"/>
					<polyline style="fill:none;stroke:#263238;stroke-linecap:round;stroke-linejoin:round;" points="253.501,274.353 
						257.331,279.717 264.229,270.904 					"/>
				</g>
			</g>
		</g>
	</g>
</g>
<g id="Bag_1">
	<g>
		<g>
			<g id="character-2--inject-1_3_">
				<polygon style="fill:#C6FF00;stroke:#263238;stroke-linecap:round;stroke-linejoin:round;" points="172.913,314.051 
					181.251,430.189 268.206,420.064 243.787,309.286 				"/>
				<polygon style="fill:#C6FF00;stroke:#263238;stroke-linecap:round;stroke-linejoin:round;" points="172.913,314.051 
					160.406,424.233 181.251,430.189 				"/>
			</g>
			<polygon style="opacity:0.1;" points="181.251,430.189 172.756,315.435 160.406,424.233 			"/>
		</g>
		<path style="fill:none;stroke:#263238;stroke-linecap:round;stroke-linejoin:round;stroke-miterlimit:10;" d="M198.645,319.573
			c0,0,6.631,20.272,20.347,21.088c13.716,0.817,11.806-23.398,11.806-23.398"/>
		<path style="fill:#263238;" d="M200.445,319.573c0,0.994-0.806,1.8-1.799,1.8c-0.994,0-1.799-0.806-1.799-1.8
			c0-0.994,0.806-1.799,1.799-1.799C199.639,317.774,200.445,318.579,200.445,319.573z"/>
		<path style="fill:#263238;" d="M232.3,317.264c0,0.994-0.806,1.8-1.8,1.8c-0.994,0-1.799-0.806-1.799-1.8
			c0-0.994,0.806-1.799,1.799-1.799C231.494,315.464,232.3,316.27,232.3,317.264z"/>
	</g>
</g>
</svg>
